<?xml version="1.0" standalone="no"?>
<!DOCTYPE svg PUBLIC "-//W3C//DTD SVG 1.1//EN" "http://www.w3.org/Graphics/SVG/1.1/DTD/svg11.dtd" >
<svg xmlns="http://www.w3.org/2000/svg" xmlns:xlink="http://www.w3.org/1999/xlink" version="1.1">
<metadata>
Created by FontForge 20161003 at Mon Mar 27 08:01:54 2017
 By www-data
Core Sans A 35 Light
</metadata>
<defs>
<font id="CoreSansA35Light" horiz-adv-x="403" >
  <font-face 
    font-family="CoreSansA35Light"
    font-weight="400"
    font-stretch="normal"
    units-per-em="1000"
    panose-1="2 11 3 3 3 3 2 2 2 4"
    ascent="800"
    descent="-200"
    x-height="518"
    cap-height="700"
    bbox="-414 -256 1000 997"
    underline-thickness="24"
    underline-position="-231"
    unicode-range="U+0008-FB04"
  />
<missing-glyph horiz-adv-x="500" 
d="M430 0h-360v750h360v-750zM145 65h210v620h-210v-620z" />
    <glyph glyph-name="f_f" unicode="ff" horiz-adv-x="625" 
d="M554 730q32 0 54 -3v-56q-26 3 -54 3q-50 0 -73 -22.5t-23 -77.5v-56h140v-54h-140v-464h-60v464h-218v-464h-60v464h-103v54h103v60q0 81 38 116.5t118 35.5q32 0 54 -3v-56q-26 3 -54 3q-50 0 -73 -22.5t-23 -77.5v-56h218v60q0 81 38 116.5t118 35.5z" />
    <glyph glyph-name="f_i" unicode="fi" horiz-adv-x="557" 
d="M276 730q32 0 54 -3v-56q-26 3 -54 3q-50 0 -73 -22.5t-23 -77.5v-56h297v-518h-60v464h-237v-464h-60v464h-103v54h103v60q0 81 38 116.5t118 35.5zM401 679q0 19 13.5 32.5t32.5 13.5t32.5 -13.5t13.5 -32.5t-13.5 -32.5t-32.5 -13.5t-32.5 13.5t-13.5 32.5z" />
    <glyph glyph-name="f_l" unicode="fl" horiz-adv-x="541" 
d="M120 518v59q0 80 38.5 116.5t117.5 36.5q54 0 125 -15v15h60v-730h-60v663q-67 13 -124 13q-50 0 -73.5 -24.5t-23.5 -79.5v-54h140v-54h-140v-464h-60v464h-103v54h103z" />
    <glyph glyph-name="f_f_i" unicode="ffi" horiz-adv-x="835" 
d="M554 730q32 0 54 -3v-56q-26 3 -54 3q-50 0 -73 -22.5t-23 -77.5v-56h297v-518h-60v464h-237v-464h-60v464h-218v-464h-60v464h-103v54h103v60q0 81 38 116.5t118 35.5q32 0 54 -3v-56q-26 3 -54 3q-50 0 -73 -22.5t-23 -77.5v-56h218v60q0 81 38 116.5t118 35.5z
M679 679q0 19 13.5 32.5t32.5 13.5t32.5 -13.5t13.5 -32.5t-13.5 -32.5t-32.5 -13.5t-32.5 13.5t-13.5 32.5z" />
    <glyph glyph-name="f_f_l" unicode="ffl" horiz-adv-x="819" 
d="M398 518v59q0 80 38.5 116.5t117.5 36.5q54 0 125 -15v15h60v-730h-60v663q-67 13 -124 13q-50 0 -73.5 -24.5t-23.5 -79.5v-54h140v-54h-140v-464h-60v464h-218v-464h-60v464h-103v54h103v60q0 81 38 116.5t118 35.5q32 0 54 -3v-56q-26 3 -54 3q-50 0 -73 -22.5
t-23 -77.5v-56h218z" />
    <glyph glyph-name=".notdef" horiz-adv-x="500" 
d="M430 0h-360v750h360v-750zM145 65h210v620h-210v-620z" />
    <glyph glyph-name=".null" horiz-adv-x="0" 
 />
    <glyph glyph-name=".null" horiz-adv-x="0" 
 />
    <glyph glyph-name=".null" horiz-adv-x="0" 
 />
    <glyph glyph-name="nonmarkingreturn" horiz-adv-x="333" 
 />
    <glyph glyph-name="CR" unicode="&#x9;" horiz-adv-x="237" 
 />
    <glyph glyph-name="CR" unicode="&#xd;" horiz-adv-x="237" 
 />
    <glyph glyph-name="space" unicode=" " horiz-adv-x="300" 
 />
    <glyph glyph-name="exclam" unicode="!" horiz-adv-x="264" 
d="M82 38q0 21 14.5 35.5t35.5 14.5t35.5 -14.5t14.5 -35.5t-14.5 -35.5t-35.5 -14.5t-35.5 14.5t-14.5 35.5zM112 169l-14 313v218h68v-218l-14 -313h-40z" />
    <glyph glyph-name="quotedbl" unicode="&#x22;" horiz-adv-x="454" 
d="M282 428l-7 272h69v-49l-12 -223h-50zM117 428l-7 272h69v-49l-13 -223h-49z" />
    <glyph glyph-name="numbersign" unicode="#" horiz-adv-x="679" 
d="M374 0l32 188h-190l-32 -188h-64l32 188h-114v55h124l37 215h-119v55h128l33 187h64l-33 -187h190l33 187h64l-33 -187h115v-55h-124l-37 -215h119v-55h-129l-32 -188h-64zM263 458l-37 -215h190l37 215h-190z" />
    <glyph glyph-name="dollar" unicode="$" horiz-adv-x="589" 
d="M275 -98v88q-141 12 -237 110l50 42q79 -83 187 -94v296q-110 31 -158 78.5t-48 114.5q0 76 55 125t151 50v88h48v-91q114 -15 193 -102l-48 -39q-66 67 -145 82v-258q115 -35 166.5 -82t51.5 -129q0 -84 -58.5 -137t-159.5 -56v-86h-48zM475 178q0 57 -35.5 91
t-116.5 61v-284q69 4 110.5 40.5t41.5 91.5zM135 537q0 -85 140 -131v248q-68 -1 -104 -33t-36 -84z" />
    <glyph glyph-name="percent" unicode="%" horiz-adv-x="878" 
d="M146 528q0 -58 23.5 -90.5t66.5 -32.5t66.5 32.5t23.5 90.5t-23.5 90.5t-66.5 32.5t-66.5 -32.5t-23.5 -90.5zM83 528q0 79 41.5 129t111.5 50t111.5 -50t41.5 -129t-41.5 -129t-111.5 -50t-111.5 50t-41.5 129zM166 21l497 691l47 -33l-497 -691zM730 172
q0 58 -23.5 90.5t-66.5 32.5t-66.5 -32.5t-23.5 -90.5t23.5 -90.5t66.5 -32.5t66.5 32.5t23.5 90.5zM793 172q0 -79 -41.5 -129t-111.5 -50t-111.5 50t-41.5 129t41.5 129t111.5 50t111.5 -50t41.5 -129z" />
    <glyph glyph-name="ampersand" unicode="&#x26;" horiz-adv-x="629" 
d="M514 0l-55 66q-88 -78 -198 -78q-90 0 -149 50.5t-59 126.5q0 67 38.5 116.5t111.5 92.5l-8 10q-79 96 -79 169q0 71 47 115t121 44q67 0 114 -45.5t47 -117.5q0 -57 -37 -103.5t-111 -91.5l165 -199q43 53 81 131l52 -25q-40 -91 -93 -153l90 -108h-78zM267 45
q81 0 154 66l-176 213q-65 -37 -96.5 -72t-31.5 -87q0 -51 39.5 -85.5t110.5 -34.5zM180 554q0 -58 67 -139l9 -11q125 74 125 151q0 40 -28 70.5t-70 30.5q-49 0 -76 -30t-27 -72z" />
    <glyph glyph-name="quotesingle" unicode="'" horiz-adv-x="289" 
d="M117 428l-7 272h69v-49l-13 -223h-49z" />
    <glyph glyph-name="parenleft" unicode="(" horiz-adv-x="345" 
d="M113 310q0 249 147 440l45 -22q-129 -188 -129 -418t129 -418l-45 -22q-147 191 -147 440z" />
    <glyph glyph-name="parenright" unicode=")" horiz-adv-x="345" 
d="M232 310q0 -249 -147 -440l-45 22q129 188 129 418t-129 418l45 22q147 -191 147 -440z" />
    <glyph glyph-name="asterisk" unicode="*" horiz-adv-x="533" 
d="M234 116l5 169l-144 -88l-32 54l150 81l-150 81l32 54l144 -89l-5 170h64l-5 -170l144 89l32 -54l-150 -81l150 -81l-32 -54l-144 88l5 -169h-64z" />
    <glyph glyph-name="plus" unicode="+" horiz-adv-x="618" 
d="M276 88v215h-213v57h213v215h66v-215h213v-57h-213v-215h-66z" />
    <glyph glyph-name="comma" unicode="," horiz-adv-x="294" 
d="M128 95l70 -23l-90 -228l-51 17z" />
    <glyph glyph-name="hyphen" unicode="-" horiz-adv-x="406" 
d="M343 301h-280v62h280v-62z" />
    <glyph glyph-name="period" unicode="." horiz-adv-x="294" 
d="M97 38q0 21 14.5 35.5t35.5 14.5t35.5 -14.5t14.5 -35.5t-14.5 -35.5t-35.5 -14.5t-35.5 14.5t-14.5 35.5z" />
    <glyph glyph-name="slash" unicode="/" horiz-adv-x="484" 
d="M0 -93l431 853l52 -31l-431 -853z" />
    <glyph glyph-name="zero" unicode="0" horiz-adv-x="588" 
d="M48 350q0 163 63 262.5t183 99.5t183 -99.5t63 -262.5t-63 -262.5t-183 -99.5t-183 99.5t-63 262.5zM114 350q0 -143 46 -222.5t134 -79.5t134 79.5t46 222.5t-46 222.5t-134 79.5t-134 -79.5t-46 -222.5z" />
    <glyph glyph-name="one" unicode="1" horiz-adv-x="588" 
d="M299 623l-151 -104l-39 44l197 137h57v-700h-64v623z" />
    <glyph glyph-name="two" unicode="2" horiz-adv-x="588" 
d="M286 712q95 0 153.5 -52t58.5 -140q0 -115 -125 -258q-89 -101 -207 -204h342v-58h-436v52q139 123 240 236q120 135 120 235q0 56 -40 92.5t-107 36.5q-104 0 -183 -87l-47 38q101 109 231 109z" />
    <glyph glyph-name="three" unicode="3" horiz-adv-x="588" 
d="M299 652q-104 0 -178 -83l-47 39q95 104 226 104q96 0 152 -47t56 -126q0 -66 -40 -112.5t-98 -59.5q75 -18 116 -64.5t41 -118.5q0 -88 -61 -142t-169 -54q-155 0 -245 112l47 39q79 -91 195 -91q78 0 122.5 37.5t44.5 99.5q0 73 -53 113t-142 40h-66v57h66q78 0 127 37
t49 102q0 52 -37 85t-106 33z" />
    <glyph glyph-name="four" unicode="4" horiz-adv-x="588" 
d="M389 162h-351v55l355 483h60v-480h94v-58h-94v-162h-64v162zM389 592l-275 -372h275v372z" />
    <glyph glyph-name="five" unicode="5" horiz-adv-x="588" 
d="M301 48q75 0 119 44.5t44 110.5q0 75 -49.5 118t-127.5 43q-90 0 -162 -24l-9 5v355h378v-58h-314v-235q54 17 116 17q104 0 169 -61t65 -165q0 -90 -61.5 -150t-166.5 -60q-145 0 -231 106l48 42q78 -88 182 -88z" />
    <glyph glyph-name="six" unicode="6" horiz-adv-x="588" 
d="M310 652q-168 0 -179 -276q81 71 185 71q101 0 161 -64.5t60 -167.5q0 -101 -64.5 -164t-164.5 -63q-114 0 -179 84t-65 260q0 380 245 380q122 0 198 -97l-48 -36q-59 73 -149 73zM307 387q-45 0 -92.5 -21.5t-84.5 -57.5q6 -140 55 -200t122 -60q76 0 120 45.5
t44 123.5q0 79 -43 124.5t-121 45.5z" />
    <glyph glyph-name="seven" unicode="7" horiz-adv-x="588" 
d="M519 642l-282 -642h-72l284 642h-381v58h451v-58z" />
    <glyph glyph-name="eight" unicode="8" horiz-adv-x="588" 
d="M52 188q0 59 32 111.5t88 85.5q-91 54 -91 149q0 77 58.5 127.5t154.5 50.5q97 0 154.5 -51t57.5 -128q0 -109 -106 -174q135 -66 135 -181q0 -86 -67.5 -138t-173.5 -52q-108 0 -175 53t-67 147zM248 351q-3 1 -7 2.5t-6 1.5q-55 -32 -85.5 -76.5t-30.5 -92.5
q0 -64 48.5 -102t126.5 -38q77 0 125.5 35.5t48.5 94.5q0 61 -51.5 98t-168.5 77zM295 402q28 -10 42 -16q102 66 102 143q0 55 -39 89.5t-106 34.5q-65 0 -105.5 -33.5t-40.5 -85.5q0 -42 34.5 -73.5t112.5 -58.5z" />
    <glyph glyph-name="nine" unicode="9" horiz-adv-x="588" 
d="M269 -12q-113 0 -189 74l43 41q67 -55 149 -55q74 0 126.5 66t59.5 209q-82 -70 -185 -70q-101 0 -161 64.5t-60 167.5q0 101 64.5 164t164.5 63q114 0 179 -84t65 -260q0 -193 -68.5 -286.5t-187.5 -93.5zM282 313q45 0 92.5 21.5t83.5 56.5q-5 140 -54 200.5t-122 60.5
q-76 0 -120 -45.5t-44 -123.5q0 -79 43 -124.5t121 -45.5z" />
    <glyph glyph-name="colon" unicode=":" horiz-adv-x="294" 
d="M97 38q0 21 14.5 35.5t35.5 14.5t35.5 -14.5t14.5 -35.5t-14.5 -35.5t-35.5 -14.5t-35.5 14.5t-14.5 35.5zM97 480q0 21 14.5 35.5t35.5 14.5t35.5 -14.5t14.5 -35.5t-14.5 -35.5t-35.5 -14.5t-35.5 14.5t-14.5 35.5z" />
    <glyph glyph-name="semicolon" unicode=";" horiz-adv-x="294" 
d="M117 95l70 -23l-90 -228l-51 17zM96 480q0 21 14.5 35.5t35.5 14.5t35.5 -14.5t14.5 -35.5t-14.5 -35.5t-35.5 -14.5t-35.5 14.5t-14.5 35.5z" />
    <glyph glyph-name="less" unicode="&#x3c;" horiz-adv-x="618" 
d="M108 311v42l372 234l30 -52l-328 -203l328 -203l-30 -52z" />
    <glyph glyph-name="equal" unicode="=" horiz-adv-x="618" 
d="M555 417h-492v57h492v-57zM555 190h-492v57h492v-57z" />
    <glyph glyph-name="greater" unicode="&#x3e;" horiz-adv-x="618" 
d="M510 353v-42l-372 -234l-30 52l328 203l-328 203l30 52z" />
    <glyph glyph-name="question" unicode="?" horiz-adv-x="519" 
d="M250 654q-90 0 -159 -80l-44 36q86 102 208 102q91 0 142.5 -45t51.5 -123q0 -112 -120 -192q-45 -30 -61 -61t-16 -82v-40h-64v43q0 63 21 105.5t73 76.5q58 38 79.5 72t21.5 79q0 50 -36 79.5t-97 29.5zM171 38q0 21 14.5 35.5t35.5 14.5t35.5 -14.5t14.5 -35.5
t-14.5 -35.5t-35.5 -14.5t-35.5 14.5t-14.5 35.5z" />
    <glyph glyph-name="at" unicode="@" horiz-adv-x="957" 
d="M730 57q-85 0 -112 65q-67 -74 -156 -74q-94 0 -142.5 60t-48.5 163t48.5 163t142.5 60q83 0 148 -68v56h59v-298q0 -36 17.5 -56.5t47.5 -20.5q96 0 96 191q0 158 -99 263t-254 105q-154 0 -252 -111t-98 -280q0 -168 99 -280.5t256 -112.5q126 0 231 79l24 -41
q-110 -84 -255 -84q-185 0 -295.5 126.5t-110.5 312.5t109 311.5t292 125.5q121 0 214.5 -57t141.5 -150.5t48 -206.5q0 -50 -7.5 -91t-24 -76t-47 -54.5t-72.5 -19.5zM610 367q-64 75 -141 75q-139 0 -139 -171t139 -171q81 0 141 74v193z" />
    <glyph glyph-name="A" unicode="A" horiz-adv-x="666" 
d="M298 700h70l275 -700h-71l-73 191h-332l-73 -191h-71zM333 632l-146 -383h292z" />
    <glyph glyph-name="B" unicode="B" horiz-adv-x="618" 
d="M83 0v700h232q107 0 166 -50t59 -132q0 -56 -28.5 -96t-78.5 -53q68 -13 105 -58t37 -115q0 -93 -64 -144.5t-186 -51.5h-242zM147 393h176q72 0 111.5 33.5t39.5 91.5q0 61 -43 92.5t-125 31.5h-159v-249zM509 196q0 67 -45 103t-133 36h-184v-277h169q193 0 193 138z
" />
    <glyph glyph-name="C" unicode="C" horiz-adv-x="680" 
d="M48 350q0 160 87.5 261t231.5 101q182 0 271 -141l-53 -33q-80 114 -216 114q-113 0 -184 -81.5t-71 -220.5t71 -220.5t184 -81.5q136 0 216 114l53 -33q-89 -141 -271 -141q-144 0 -231.5 101t-87.5 261z" />
    <glyph glyph-name="D" unicode="D" horiz-adv-x="673" 
d="M147 58h148q124 0 194 77t70 215q0 137 -70 214.5t-194 77.5h-148v-584zM301 0h-218v700h218q151 0 237.5 -94t86.5 -256q0 -163 -86.5 -256.5t-237.5 -93.5z" />
    <glyph glyph-name="E" unicode="E" horiz-adv-x="561" 
d="M83 0v700h426v-58h-362v-251h325v-58h-325v-275h371v-58h-435z" />
    <glyph glyph-name="F" unicode="F" horiz-adv-x="532" 
d="M83 0v700h426v-58h-362v-264h328v-58h-328v-320h-64z" />
    <glyph glyph-name="G" unicode="G" horiz-adv-x="697" 
d="M48 350q0 159 87.5 260.5t225.5 101.5q182 0 273 -138l-53 -33q-41 58 -93 84.5t-125 26.5q-108 0 -178.5 -82t-70.5 -220q0 -136 73 -219t193 -83q59 0 111.5 20.5t81.5 57.5v176h-190v58h254v-258q-43 -55 -111.5 -84.5t-146.5 -29.5q-149 0 -240 103t-91 259z" />
    <glyph glyph-name="H" unicode="H" horiz-adv-x="691" 
d="M83 0v700h64v-298h397v298h64v-700h-64v344h-397v-344h-64z" />
    <glyph glyph-name="I" unicode="I" horiz-adv-x="240" 
d="M88 700h64v-700h-64v700z" />
    <glyph glyph-name="J" unicode="J" horiz-adv-x="553" 
d="M254 48q71 0 111.5 48.5t40.5 135.5v468h64v-468q0 -116 -57 -180t-156 -64q-154 0 -225 135l52 31q60 -106 170 -106z" />
    <glyph glyph-name="K" unicode="K" horiz-adv-x="604" 
d="M147 700v-424l335 424h77l-226 -286l257 -414h-77l-221 364l-145 -184v-180h-64v700h64z" />
    <glyph glyph-name="L" unicode="L" horiz-adv-x="527" 
d="M83 0v700h64v-642h360v-58h-424z" />
    <glyph glyph-name="M" unicode="M" horiz-adv-x="838" 
d="M398 138l-251 441v-579h-64v700h64l272 -476l272 476h64v-700h-64v579l-251 -441h-42z" />
    <glyph glyph-name="N" unicode="N" horiz-adv-x="697" 
d="M83 0v700h65l402 -594v594h64v-700h-64l-403 594v-594h-64z" />
    <glyph glyph-name="O" unicode="O" horiz-adv-x="708" 
d="M660 350q0 -157 -82.5 -259.5t-223.5 -102.5t-223.5 102.5t-82.5 259.5t82.5 259.5t223.5 102.5t223.5 -102.5t82.5 -259.5zM114 350q0 -137 65 -219.5t175 -82.5t175 82.5t65 219.5t-65 219.5t-175 82.5t-175 -82.5t-65 -219.5z" />
    <glyph glyph-name="P" unicode="P" horiz-adv-x="583" 
d="M544 486q0 -104 -67 -159t-192 -55h-138v-272h-64v700h202q125 0 192 -54.5t67 -159.5zM478 486q0 156 -199 156h-132v-312h132q199 0 199 156z" />
    <glyph glyph-name="Q" unicode="Q" horiz-adv-x="708" 
d="M660 350q0 -157 -80 -257l114 -123l-45 -42l-114 122q-75 -62 -181 -62q-141 0 -223.5 102.5t-82.5 259.5t82.5 259.5t223.5 102.5t223.5 -102.5t82.5 -259.5zM372 230l45 42l120 -132q57 82 57 210q0 137 -65 219.5t-175 82.5t-175 -82.5t-65 -219.5t65 -219.5
t175 -82.5q83 0 141 47z" />
    <glyph glyph-name="R" unicode="R" horiz-adv-x="613" 
d="M550 500q0 -149 -159 -189l201 -311h-74l-195 302q-23 -1 -71 -1h-105v-301h-64v700h217q119 0 184.5 -53t65.5 -147zM484 500q0 142 -190 142h-147v-283h147q94 0 142 36t48 105z" />
    <glyph glyph-name="S" unicode="S" horiz-adv-x="589" 
d="M309 48q76 0 121 36t45 93q0 63 -44 98.5t-153 66.5q-114 32 -161.5 78.5t-47.5 116.5q0 79 55.5 127t154.5 48q140 0 237 -105l-48 -39q-82 84 -188 84q-71 0 -108 -30t-37 -81q0 -94 166 -141q128 -36 184 -84t56 -135t-60.5 -140t-167.5 -53q-161 0 -275 112l51 42
q96 -94 220 -94z" />
    <glyph glyph-name="T" unicode="T" horiz-adv-x="549" 
d="M243 0v642h-225v58h513v-58h-224v-642h-64z" />
    <glyph glyph-name="U" unicode="U" horiz-adv-x="708" 
d="M354 48q101 0 154 57.5t53 169.5v425h64v-429q0 -139 -74.5 -211t-196.5 -72t-196.5 72t-74.5 211v429h64v-425q0 -112 53 -169.5t154 -57.5z" />
    <glyph glyph-name="V" unicode="V" horiz-adv-x="666" 
d="M333 68l239 632h71l-275 -700h-70l-275 700h71z" />
    <glyph glyph-name="W" unicode="W" horiz-adv-x="988" 
d="M290 75l165 625h78l165 -625l197 625h70l-224 -700h-85l-162 619l-162 -619h-85l-224 700h70z" />
    <glyph glyph-name="X" unicode="X" horiz-adv-x="590" 
d="M497 0l-202 308l-202 -308h-75l240 364l-220 336h74l183 -279l183 279h74l-220 -336l240 -364h-75z" />
    <glyph glyph-name="Y" unicode="Y" horiz-adv-x="590" 
d="M263 0v278l-245 422h72l205 -354l205 354h72l-245 -422v-278h-64z" />
    <glyph glyph-name="Z" unicode="Z" horiz-adv-x="560" 
d="M33 55l406 587h-387v58h465v-55l-406 -587h416v-58h-494v55z" />
    <glyph glyph-name="bracketleft" unicode="[" horiz-adv-x="398" 
d="M123 -130v880h251v-52h-188v-776h188v-52h-251z" />
    <glyph glyph-name="backslash" unicode="\" horiz-adv-x="484" 
d="M0 729l52 31l431 -853l-52 -31z" />
    <glyph glyph-name="bracketright" unicode="]" horiz-adv-x="398" 
d="M275 750v-880h-251v52h188v776h-188v52h251z" />
    <glyph glyph-name="asciicircum" unicode="^" horiz-adv-x="618" 
d="M279 700h60l197 -302l-50 -33l-177 263l-177 -263l-50 33z" />
    <glyph glyph-name="underscore" unicode="_" horiz-adv-x="493" 
d="M0 -162v51h493v-51h-493z" />
    <glyph glyph-name="grave" unicode="`" horiz-adv-x="395" 
d="M105 699l48 40l137 -147l-36 -31z" />
    <glyph glyph-name="a" unicode="a" horiz-adv-x="539" 
d="M42 154q0 72 54.5 119t144.5 47q93 0 169 -58v76q0 68 -34.5 102t-113.5 34q-83 0 -152 -56l-38 41q85 71 197 71q96 0 148.5 -46t52.5 -132v-352h-60v57q-73 -69 -169 -69q-90 0 -144.5 47t-54.5 119zM248 264q-66 0 -105 -28.5t-39 -81.5q0 -52 39 -81t105 -29
q92 0 162 67v94q-69 59 -162 59z" />
    <glyph glyph-name="b" unicode="b" horiz-adv-x="576" 
d="M133 60v-60h-60v730h60v-272q79 72 173 72q106 0 164 -72t58 -199t-58 -199t-164 -72q-94 0 -173 72zM466 259q0 215 -171 215q-43 0 -87.5 -22t-74.5 -56v-274q30 -34 74.5 -56t87.5 -22q171 0 171 215z" />
    <glyph glyph-name="c" unicode="c" horiz-adv-x="534" 
d="M43 259q0 120 67.5 195.5t176.5 75.5q142 0 212 -115l-48 -29q-61 88 -160 88q-85 0 -135.5 -58t-50.5 -157t50.5 -157t135.5 -58q99 0 160 88l48 -29q-70 -115 -212 -115q-109 0 -176.5 75.5t-67.5 195.5z" />
    <glyph glyph-name="d" unicode="d" horiz-adv-x="576" 
d="M443 0v60q-79 -72 -173 -72q-106 0 -164 72t-58 199t58 199t164 72q94 0 173 -72v272h60v-730h-60zM110 259q0 -215 171 -215q43 0 87.5 22t74.5 56v274q-30 34 -74.5 56t-87.5 22q-171 0 -171 -215z" />
    <glyph glyph-name="e" unicode="e" horiz-adv-x="561" 
d="M300 -12q-116 0 -186.5 78.5t-70.5 193.5q0 118 67.5 194t173.5 76q104 0 171 -75.5t67 -193.5q0 -20 -1 -27h-414q6 -84 57 -137t133 -53q93 0 154 74l46 -33q-75 -97 -197 -97zM107 288h352q-4 83 -54 134.5t-122 51.5t-122 -51.5t-54 -134.5z" />
    <glyph glyph-name="f" unicode="f" horiz-adv-x="347" 
d="M276 730q32 0 54 -3v-56q-26 3 -54 3q-50 0 -73 -22.5t-23 -77.5v-56h140v-54h-140v-464h-60v464h-103v54h103v60q0 81 38 116.5t118 35.5z" />
    <glyph glyph-name="g" unicode="g" horiz-adv-x="576" 
d="M503 518v-508q0 -113 -56 -173.5t-159 -60.5q-136 0 -217 104l47 33q69 -83 167 -83q74 0 116 45t42 127v58q-79 -72 -173 -72q-106 0 -164 72t-58 199t58 199t164 72q94 0 173 -72v60h60zM110 259q0 -215 171 -215q43 0 87.5 22t74.5 56v274q-30 34 -74.5 56t-87.5 22
q-171 0 -171 -215z" />
    <glyph glyph-name="h" unicode="h" horiz-adv-x="575" 
d="M324 530q85 0 133.5 -49t48.5 -141v-340h-60v325q0 149 -135 149q-48 0 -97.5 -26.5t-80.5 -63.5v-384h-60v730h60v-283q87 83 191 83z" />
    <glyph glyph-name="i" unicode="i" horiz-adv-x="220" 
d="M80 0v518h60v-518h-60zM64 679q0 19 13.5 32.5t32.5 13.5t32.5 -13.5t13.5 -32.5t-13.5 -32.5t-32.5 -13.5t-32.5 13.5t-13.5 32.5z" />
    <glyph glyph-name="j" unicode="j" horiz-adv-x="220" 
d="M80 -69v587h60v-592q0 -81 -38.5 -115.5t-115.5 -34.5q-17 0 -37 2v56q22 -2 40 -2q48 0 69.5 22.5t21.5 76.5zM64 679q0 19 13.5 32.5t32.5 13.5t32.5 -13.5t13.5 -32.5t-13.5 -32.5t-32.5 -13.5t-32.5 13.5t-13.5 32.5z" />
    <glyph glyph-name="k" unicode="k" horiz-adv-x="505" 
d="M428 0l-180 269l-115 -131v-138h-60v730h60v-512l258 300h77l-181 -206l211 -312h-70z" />
    <glyph glyph-name="l" unicode="l" horiz-adv-x="220" 
d="M80 0v730h60v-730h-60z" />
    <glyph glyph-name="m" unicode="m" horiz-adv-x="874" 
d="M305 530q101 0 142 -82q88 82 191 82q167 0 167 -188v-342h-60v326q0 75 -26.5 111.5t-92.5 36.5q-40 0 -85 -21.5t-77 -55.5q5 -27 5 -50v-347h-60v331q0 73 -27 108t-89 35q-41 0 -86.5 -22.5t-73.5 -58.5v-393h-60v518h60v-62q76 74 172 74z" />
    <glyph glyph-name="n" unicode="n" horiz-adv-x="575" 
d="M324 530q85 0 133.5 -49t48.5 -141v-340h-60v325q0 149 -135 149q-48 0 -97.5 -26.5t-80.5 -63.5v-384h-60v518h60v-71q87 83 191 83z" />
    <glyph glyph-name="o" unicode="o" horiz-adv-x="576" 
d="M471 259q0 98 -50 156.5t-133 58.5t-133 -58.5t-50 -156.5t50 -156.5t133 -58.5t133 58.5t50 156.5zM533 259q0 -119 -68 -195t-177 -76t-177 76t-68 195t68 195t177 76t177 -76t68 -195z" />
    <glyph glyph-name="p" unicode="p" horiz-adv-x="576" 
d="M133 518v-60q79 72 173 72q106 0 164 -72t58 -199t-58 -199t-164 -72q-94 0 -173 72v-272h-60v730h60zM466 259q0 215 -171 215q-43 0 -87.5 -22t-74.5 -56v-274q30 -34 74.5 -56t87.5 -22q171 0 171 215z" />
    <glyph glyph-name="q" unicode="q" horiz-adv-x="576" 
d="M443 458v60h60v-730h-60v272q-79 -72 -173 -72q-106 0 -164 72t-58 199t58 199t164 72q94 0 173 -72zM110 259q0 -215 171 -215q43 0 87.5 22t74.5 56v274q-30 34 -74.5 56t-87.5 22q-171 0 -171 -215z" />
    <glyph glyph-name="r" unicode="r" horiz-adv-x="355" 
d="M294 474q-48 0 -92 -25t-69 -65v-384h-60v518h60v-70q66 82 170 82q12 0 34 -2v-56q-28 2 -43 2z" />
    <glyph glyph-name="s" unicode="s" horiz-adv-x="489" 
d="M252 44q62 0 97 24.5t35 65.5q0 42 -34.5 68t-113.5 46q-98 25 -138 58.5t-40 91.5q0 60 46.5 96t129.5 36q110 0 185 -72l-42 -40q-62 56 -143 56q-51 0 -82.5 -20.5t-31.5 -55.5q0 -34 30 -54t114 -43q97 -27 139.5 -64.5t42.5 -98.5q0 -69 -50.5 -109.5t-141.5 -40.5
q-135 0 -223 91l44 42q75 -77 177 -77z" />
    <glyph glyph-name="t" unicode="t" horiz-adv-x="347" 
d="M278 -12q-77 0 -117.5 36t-40.5 116v324h-103v54h103v155h60v-155h140v-54h-140v-320q0 -54 22.5 -77t71.5 -23q19 0 45 2v-56q-22 -2 -41 -2z" />
    <glyph glyph-name="u" unicode="u" horiz-adv-x="570" 
d="M285 44q72 0 114.5 44t42.5 129v301h60v-306q0 -111 -58.5 -167.5t-158.5 -56.5t-158.5 56.5t-58.5 167.5v306h60v-301q0 -85 42.5 -129t114.5 -44z" />
    <glyph glyph-name="v" unicode="v" horiz-adv-x="516" 
d="M432 518h66l-206 -518h-68l-206 518h66l174 -451z" />
    <glyph glyph-name="w" unicode="w" horiz-adv-x="778" 
d="M225 76l134 442h60l134 -442l139 442h68l-176 -518h-62l-133 436l-133 -436h-62l-176 518h68z" />
    <glyph glyph-name="x" unicode="x" horiz-adv-x="486" 
d="M401 0l-158 223l-158 -223h-71l194 272l-175 246h70l140 -198l140 198h70l-175 -246l194 -272h-71z" />
    <glyph glyph-name="y" unicode="y" horiz-adv-x="506" 
d="M82 518l178 -432l165 432h63l-279 -730h-62l82 216l-211 514h64z" />
    <glyph glyph-name="z" unicode="z" horiz-adv-x="466" 
d="M28 0v50l323 416h-306v52h383v-50l-323 -416h333v-52h-410z" />
    <glyph glyph-name="braceleft" unicode="{" horiz-adv-x="374" 
d="M173 -18v201q0 45 -28 72.5t-70 27.5v54q42 0 70 27.5t28 72.5v201q0 112 113 112h68v-52h-68q-50 0 -50 -54v-215q0 -96 -89 -119q89 -23 89 -119v-215q0 -54 50 -54h68v-52h-68q-113 0 -113 112z" />
    <glyph glyph-name="bar" unicode="|" horiz-adv-x="280" 
d="M113 -200v969h54v-969h-54z" />
    <glyph glyph-name="braceright" unicode="}" horiz-adv-x="374" 
d="M201 183v-201q0 -112 -113 -112h-68v52h68q50 0 50 54v215q0 96 89 119q-89 23 -89 119v215q0 54 -50 54h-68v52h68q113 0 113 -112v-201q0 -45 28 -72.5t70 -27.5v-54q-42 0 -70 -27.5t-28 -72.5z" />
    <glyph glyph-name="asciitilde" unicode="~" horiz-adv-x="618" 
d="M294 303q-59 45 -108 45q-63 0 -83 -85l-54 9q10 60 46.5 96.5t88.5 36.5q66 0 140 -57q59 -45 108 -45q63 0 83 85l54 -9q-10 -60 -46.5 -96.5t-88.5 -36.5q-66 0 -140 57z" />
    <glyph glyph-name="uni00A0" unicode="&#xa0;" horiz-adv-x="300" 
 />
    <glyph glyph-name="exclamdown" unicode="&#xa1;" horiz-adv-x="264" 
d="M82 480q0 21 14.5 35.5t35.5 14.5t35.5 -14.5t14.5 -35.5t-14.5 -35.5t-35.5 -14.5t-35.5 14.5t-14.5 35.5zM98 36l14 313h40l14 -313v-218h-68v218z" />
    <glyph glyph-name="cent" unicode="&#xa2;" horiz-adv-x="534" 
d="M265 -98v87q-100 8 -161 82.5t-61 187.5t61 187.5t161 82.5v87h48v-87q122 -10 186 -114l-48 -29q-54 79 -138 87v-428q83 7 138 87l48 -29q-63 -103 -186 -114v-87h-48zM105 259q0 -92 43 -148.5t117 -65.5v427q-74 -9 -117 -65.5t-43 -147.5z" />
    <glyph glyph-name="sterling" unicode="&#xa3;" horiz-adv-x="578" 
d="M334 712q122 0 198 -89l-48 -39q-62 68 -152 68q-145 0 -145 -143v-123h217v-44h-217v-95q0 -126 -68 -189h425v-58h-501v51q80 71 80 184v107h-80v44h80v122q0 102 54.5 153t156.5 51z" />
    <glyph glyph-name="currency" unicode="&#xa4;" horiz-adv-x="707" 
d="M198 332q0 -69 44 -114.5t111 -45.5t111 45.5t44 114.5t-44 114.5t-111 45.5t-111 -45.5t-44 -114.5zM138 332q0 72 40 127l-89 89l46 47l88 -89q57 44 130 44t130 -44l88 89l46 -47l-89 -89q40 -55 40 -127t-40 -127l89 -89l-46 -47l-88 89q-57 -44 -130 -44t-130 44
l-88 -89l-46 47l89 89q-40 55 -40 127z" />
    <glyph glyph-name="yen" unicode="&#xa5;" horiz-adv-x="581" 
d="M258 0v164h-210v44h210v75h-210v44h185l-215 373h72l200 -357l200 357h72l-215 -373h185v-44h-210v-75h210v-44h-210v-164h-64z" />
    <glyph glyph-name="brokenbar" unicode="&#xa6;" horiz-adv-x="280" 
d="M113 220h54v-320h-54v320zM113 688h54v-320h-54v320z" />
    <glyph glyph-name="section" unicode="&#xa7;" horiz-adv-x="461" 
d="M416 316q0 -49 -28.5 -83t-78.5 -50q109 -38 109 -130q0 -70 -51 -111.5t-140 -41.5q-116 0 -196 83l42 37q64 -64 155 -64q60 0 94 25.5t34 67.5q0 39 -32.5 65t-104.5 43q-171 40 -171 155q0 48 29 83t78 51q-108 41 -108 126q0 60 50.5 100t128.5 40q104 0 174 -69
l-42 -36q-50 49 -134 49q-51 0 -83 -23.5t-32 -60.5q0 -34 34 -57.5t106 -43.5q89 -24 128 -61t39 -94zM229 422q-57 -14 -88 -38t-31 -67q0 -80 122 -107q54 5 88 32.5t34 70.5q0 44 -30.5 69t-94.5 40z" />
    <glyph glyph-name="dieresis" unicode="&#xa8;" horiz-adv-x="400" 
d="M59 649q0 19 13 32t32 13t32 -13t13 -32t-13 -32t-32 -13t-32 13t-13 32zM251 649q0 19 13 32t32 13t32 -13t13 -32t-13 -32t-32 -13t-32 13t-13 32z" />
    <glyph glyph-name="copyright" unicode="&#xa9;" horiz-adv-x="834" 
d="M218 349q0 -96 55.5 -156.5t146.5 -60.5q111 0 170 96l-39 23q-52 -74 -131 -74q-72 0 -111.5 46.5t-39.5 125.5t39.5 125.5t111.5 46.5q79 0 131 -74l39 23q-59 96 -170 96q-91 0 -146.5 -60.5t-55.5 -156.5zM55 350q0 150 106 256t256 106t256 -106t106 -256t-106 -256
t-256 -106t-256 106t-106 256zM91 350q0 -136 94.5 -232t231.5 -96t231.5 96t94.5 232t-94.5 232t-231.5 96t-231.5 -96t-94.5 -232z" />
    <glyph glyph-name="ordfeminine" unicode="&#xaa;" horiz-adv-x="430" 
d="M46 446q0 52 40.5 86t103.5 34q67 0 123 -35v40q0 91 -102 91q-61 0 -112 -41l-32 36q67 51 147 51q72 0 112.5 -34t40.5 -94v-247h-54v34q-53 -42 -123 -42q-63 0 -103.5 34t-40.5 87zM199 520q-44 0 -71.5 -19.5t-27.5 -54.5t28 -55t71 -20q62 0 114 41v72
q-51 36 -114 36z" />
    <glyph glyph-name="guillemotleft" unicode="&#xab;" horiz-adv-x="551" 
d="M50 300v24l217 160l31 -41l-180 -131l180 -131l-31 -41zM252 300v24l218 160l31 -41l-180 -131l180 -131l-31 -41z" />
    <glyph glyph-name="logicalnot" unicode="&#xac;" horiz-adv-x="618" 
d="M59 380v57h490v-270h-66v213h-424z" />
    <glyph glyph-name="uni00AD" unicode="&#xad;" horiz-adv-x="406" 
d="M343 301h-280v62h280v-62z" />
    <glyph glyph-name="registered" unicode="&#xae;" horiz-adv-x="834" 
d="M572 437q0 -86 -88 -113l108 -183h-55l-102 175q-14 -1 -44 -1h-69v-174h-51v417h145q73 0 114.5 -32t41.5 -89zM521 437q0 78 -109 78h-90v-157h90q109 0 109 79zM55 350q0 150 106 256t256 106t256 -106t106 -256t-106 -256t-256 -106t-256 106t-106 256zM91 350
q0 -136 94.5 -232t231.5 -96t231.5 96t94.5 232t-94.5 232t-231.5 96t-231.5 -96t-94.5 -232z" />
    <glyph glyph-name="macron" unicode="&#xaf;" horiz-adv-x="400" 
d="M57 621v54h286v-54h-286z" />
    <glyph glyph-name="degree" unicode="&#xb0;" horiz-adv-x="395" 
d="M198 452q-55 0 -93 38t-38 92t38 92t93 38t93 -38t38 -92t-38 -92t-93 -38zM198 665q-34 0 -57.5 -24t-23.5 -59t23.5 -59t57.5 -24t57.5 24t23.5 59t-23.5 59t-57.5 24z" />
    <glyph glyph-name="plusminus" unicode="&#xb1;" horiz-adv-x="618" 
d="M555 0h-492v57h492v-57zM276 115v215h-213v57h213v215h66v-215h213v-57h-213v-215h-66z" />
    <glyph glyph-name="twosuperior" unicode="&#xb2;" 
d="M191 658q-54 0 -99 -47l-39 33q61 64 141 64q63 0 99.5 -35t36.5 -95q0 -76 -70 -158q-68 -80 -131 -133h205v-50h-283v47q90 78 163 163q60 71 60 131q0 38 -21.5 59t-61.5 21z" />
    <glyph glyph-name="threesuperior" unicode="&#xb3;" 
d="M194 658q-60 0 -99 -47l-39 32q57 65 138 65q61 0 98 -33t37 -89q0 -39 -25.5 -69t-63.5 -38q44 -10 72 -41t28 -76q0 -58 -40 -95.5t-111 -37.5q-95 0 -149 73l41 33q41 -56 108 -56q44 0 69.5 24.5t25.5 58.5q0 91 -127 91h-38v49h38q55 0 85.5 22t30.5 59
q0 34 -20 54.5t-59 20.5z" />
    <glyph glyph-name="acute" unicode="&#xb4;" horiz-adv-x="400" 
d="M244 739l48 -40l-149 -138l-36 31z" />
    <glyph glyph-name="mu" unicode="&#xb5;" horiz-adv-x="580" 
d="M289 -12q-100 0 -156 61v-261h-60v730h60v-403q25 -34 68 -52.5t88 -18.5q46 0 89 18.5t68 52.5v403h60v-518h-60v49q-58 -61 -157 -61z" />
    <glyph glyph-name="paragraph" unicode="&#xb6;" horiz-adv-x="561" 
d="M45 498q0 96 63.5 149t162.5 53h195v-831h-55v775h-52v-775h-57v425h-23q-99 0 -166.5 54t-67.5 150z" />
    <glyph glyph-name="periodcentered" unicode="&#xb7;" horiz-adv-x="294" 
d="M97 323q0 21 14.5 35.5t35.5 14.5t35.5 -14.5t14.5 -35.5t-14.5 -35.5t-35.5 -14.5t-35.5 14.5t-14.5 35.5z" />
    <glyph glyph-name="cedilla" unicode="&#xb8;" horiz-adv-x="400" 
d="M175 -191q29 0 45.5 13t16.5 35q0 57 -94 60l-5 7l37 76h53l-25 -51q43 -8 66.5 -33t23.5 -61q0 -39 -30 -66t-87 -27q-55 0 -91 34l30 36q26 -23 60 -23z" />
    <glyph glyph-name="onesuperior" unicode="&#xb9;" 
d="M194 631l-79 -59l-35 40l120 89h49v-464h-55v394z" />
    <glyph glyph-name="ordmasculine" unicode="&#xba;" horiz-adv-x="430" 
d="M215 326q-78 0 -127.5 54t-49.5 137t49.5 137t127.5 54t127.5 -54t49.5 -137t-49.5 -137t-127.5 -54zM215 661q-55 0 -88.5 -39t-33.5 -105t33.5 -105t88.5 -39t88.5 39t33.5 105t-33.5 105t-88.5 39z" />
    <glyph glyph-name="guillemotright" unicode="&#xbb;" horiz-adv-x="551" 
d="M501 324v-24l-217 -160l-32 41l180 131l-180 131l32 41zM298 324v-24l-217 -160l-31 41l180 131l-180 131l31 41z" />
    <glyph glyph-name="onequarter" unicode="&#xbc;" horiz-adv-x="969" 
d="M194 631l-79 -59l-35 40l120 89h49v-464h-55v394zM698 689l-383 -702l-45 26l383 702zM813 102h-224v46l227 315h53v-311h56v-50h-56v-102h-56v102zM813 373l-158 -221h158v221z" />
    <glyph glyph-name="onehalf" unicode="&#xbd;" horiz-adv-x="969" 
d="M194 631l-79 -59l-35 40l120 89h49v-464h-55v394zM698 689l-383 -702l-45 26l383 702zM757 421q-54 0 -99 -47l-39 33q61 64 141 64q63 0 99.5 -35t36.5 -95q0 -76 -70 -158q-68 -80 -131 -133h205v-50h-283v47q90 78 163 163q60 71 60 131q0 38 -21.5 59t-61.5 21z" />
    <glyph glyph-name="threequarters" unicode="&#xbe;" horiz-adv-x="969" 
d="M698 689l-383 -702l-45 26l383 702zM194 658q-60 0 -99 -47l-39 32q57 65 138 65q61 0 98 -33t37 -89q0 -39 -25.5 -69t-63.5 -38q44 -10 72 -41t28 -76q0 -58 -40 -95.5t-111 -37.5q-95 0 -149 73l41 33q41 -56 108 -56q44 0 69.5 24.5t25.5 58.5q0 91 -127 91h-38v49
h38q55 0 85.5 22t30.5 59q0 34 -20 54.5t-59 20.5zM813 102h-224v46l227 315h53v-311h56v-50h-56v-102h-56v102zM813 373l-158 -221h158v221z" />
    <glyph glyph-name="questiondown" unicode="&#xbf;" horiz-adv-x="519" 
d="M269 -136q90 0 159 80l44 -36q-86 -102 -208 -102q-91 0 -142.5 45t-51.5 123q0 112 120 192q45 30 61 61t16 82v40h64v-43q0 -63 -21 -105.5t-73 -76.5q-58 -38 -79.5 -72t-21.5 -79q0 -50 36 -79.5t97 -29.5zM348 480q0 -21 -14.5 -35.5t-35.5 -14.5t-35.5 14.5
t-14.5 35.5t14.5 35.5t35.5 14.5t35.5 -14.5t14.5 -35.5z" />
    <glyph glyph-name="Agrave" unicode="&#xc0;" horiz-adv-x="666" 
d="M298 700h70l275 -700h-71l-73 191h-332l-73 -191h-71zM333 632l-146 -383h292zM203 893l48 40l137 -147l-36 -31z" />
    <glyph glyph-name="Aacute" unicode="&#xc1;" horiz-adv-x="666" 
d="M298 700h70l275 -700h-71l-73 191h-332l-73 -191h-71zM333 632l-146 -383h292zM415 933l48 -40l-149 -138l-36 31z" />
    <glyph glyph-name="Acircumflex" unicode="&#xc2;" horiz-adv-x="666" 
d="M298 700h70l275 -700h-71l-73 191h-332l-73 -191h-71zM333 632l-146 -383h292zM311 924h44l134 -145l-35 -30l-121 118l-121 -118l-35 30z" />
    <glyph glyph-name="Atilde" unicode="&#xc3;" horiz-adv-x="666" 
d="M298 700h70l275 -700h-71l-73 191h-332l-73 -191h-71zM333 632l-146 -383h292zM321 822q-29 27 -55 27q-33 0 -48 -52l-46 8q23 93 95 93q42 0 78 -33q29 -27 55 -27q33 0 48 52l46 -8q-23 -93 -95 -93q-42 0 -78 33z" />
    <glyph glyph-name="Adieresis" unicode="&#xc4;" horiz-adv-x="666" 
d="M298 700h70l275 -700h-71l-73 191h-332l-73 -191h-71zM333 632l-146 -383h292zM192 843q0 19 13 32t32 13t32 -13t13 -32t-13 -32t-32 -13t-32 13t-13 32zM384 843q0 19 13 32t32 13t32 -13t13 -32t-13 -32t-32 -13t-32 13t-13 32z" />
    <glyph glyph-name="Aring" unicode="&#xc5;" horiz-adv-x="666" 
d="M298 700h70l275 -700h-71l-73 191h-332l-73 -191h-71zM333 632l-146 -383h292zM282 843q0 -22 14.5 -37t36.5 -15t36.5 15t14.5 37t-14.5 37t-36.5 15t-36.5 -15t-14.5 -37zM234 843q0 40 29 68.5t70 28.5t70 -28.5t29 -68.5t-29 -68.5t-70 -28.5t-70 28.5t-29 68.5z" />
    <glyph glyph-name="AE" unicode="&#xc6;" horiz-adv-x="859" 
d="M816 0h-380v191h-239l-101 -191h-73l377 700h407v-58h-307v-251h270v-58h-270v-275h316v-58zM436 639l-208 -390h208v390z" />
    <glyph glyph-name="Ccedilla" unicode="&#xc7;" horiz-adv-x="680" 
d="M356 -191q29 0 45.5 13t16.5 35q0 57 -94 60l-5 7l31 65q-137 6 -219.5 106t-82.5 255q0 160 87.5 261t231.5 101q182 0 271 -141l-53 -33q-80 114 -216 114q-113 0 -184 -81.5t-71 -220.5t71 -220.5t184 -81.5q136 0 216 114l53 -33q-80 -124 -234 -139l-20 -41
q43 -8 66.5 -33t23.5 -61q0 -39 -30 -66t-87 -27q-55 0 -91 34l30 36q26 -23 60 -23z" />
    <glyph glyph-name="Egrave" unicode="&#xc8;" horiz-adv-x="561" 
d="M83 0v700h426v-58h-362v-251h325v-58h-325v-275h371v-58h-435zM184 893l48 40l137 -147l-36 -31z" />
    <glyph glyph-name="Eacute" unicode="&#xc9;" horiz-adv-x="561" 
d="M83 0v700h426v-58h-362v-251h325v-58h-325v-275h371v-58h-435zM368 933l48 -40l-149 -138l-36 31z" />
    <glyph glyph-name="Ecircumflex" unicode="&#xca;" horiz-adv-x="561" 
d="M83 0v700h426v-58h-362v-251h325v-58h-325v-275h371v-58h-435zM278 924h44l134 -145l-35 -30l-121 118l-121 -118l-35 30z" />
    <glyph glyph-name="Edieresis" unicode="&#xcb;" horiz-adv-x="561" 
d="M83 0v700h426v-58h-362v-251h325v-58h-325v-275h371v-58h-435zM159 843q0 19 13 32t32 13t32 -13t13 -32t-13 -32t-32 -13t-32 13t-13 32zM351 843q0 19 13 32t32 13t32 -13t13 -32t-13 -32t-32 -13t-32 13t-13 32z" />
    <glyph glyph-name="Igrave" unicode="&#xcc;" horiz-adv-x="240" 
d="M88 700h64v-700h-64v700zM-38 893l48 40l137 -147l-36 -31z" />
    <glyph glyph-name="Iacute" unicode="&#xcd;" horiz-adv-x="240" 
d="M88 700h64v-700h-64v700zM230 933l48 -40l-149 -138l-36 31z" />
    <glyph glyph-name="Icircumflex" unicode="&#xce;" horiz-adv-x="240" 
d="M88 700h64v-700h-64v700zM98 924h44l134 -145l-35 -30l-121 118l-121 -118l-35 30z" />
    <glyph glyph-name="Idieresis" unicode="&#xcf;" horiz-adv-x="240" 
d="M88 700h64v-700h-64v700zM-21 843q0 19 13 32t32 13t32 -13t13 -32t-13 -32t-32 -13t-32 13t-13 32zM171 843q0 19 13 32t32 13t32 -13t13 -32t-13 -32t-32 -13t-32 13t-13 32z" />
    <glyph glyph-name="Eth" unicode="&#xd0;" horiz-adv-x="680" 
d="M308 0h-218v323h-80v53h80v324h218q151 0 237.5 -94t86.5 -256q0 -163 -86.5 -256.5t-237.5 -93.5zM154 58h148q124 0 194 77t70 215q0 137 -70 214.5t-194 77.5h-148v-266h176v-53h-176v-265z" />
    <glyph glyph-name="Ntilde" unicode="&#xd1;" horiz-adv-x="697" 
d="M83 0v700h65l402 -594v594h64v-700h-64l-403 594v-594h-64zM336 822q-29 27 -55 27q-33 0 -48 -52l-46 8q23 93 95 93q42 0 78 -33q29 -27 55 -27q33 0 48 52l46 -8q-23 -93 -95 -93q-42 0 -78 33z" />
    <glyph glyph-name="Ograve" unicode="&#xd2;" horiz-adv-x="708" 
d="M660 350q0 -157 -82.5 -259.5t-223.5 -102.5t-223.5 102.5t-82.5 259.5t82.5 259.5t223.5 102.5t223.5 -102.5t82.5 -259.5zM114 350q0 -137 65 -219.5t175 -82.5t175 82.5t65 219.5t-65 219.5t-175 82.5t-175 -82.5t-65 -219.5zM237 893l48 40l137 -147l-36 -31z" />
    <glyph glyph-name="Oacute" unicode="&#xd3;" horiz-adv-x="708" 
d="M660 350q0 -157 -82.5 -259.5t-223.5 -102.5t-223.5 102.5t-82.5 259.5t82.5 259.5t223.5 102.5t223.5 -102.5t82.5 -259.5zM114 350q0 -137 65 -219.5t175 -82.5t175 82.5t65 219.5t-65 219.5t-175 82.5t-175 -82.5t-65 -219.5zM422 933l48 -40l-149 -138l-36 31z" />
    <glyph glyph-name="Ocircumflex" unicode="&#xd4;" horiz-adv-x="708" 
d="M660 350q0 -157 -82.5 -259.5t-223.5 -102.5t-223.5 102.5t-82.5 259.5t82.5 259.5t223.5 102.5t223.5 -102.5t82.5 -259.5zM114 350q0 -137 65 -219.5t175 -82.5t175 82.5t65 219.5t-65 219.5t-175 82.5t-175 -82.5t-65 -219.5zM332 924h44l134 -145l-35 -30l-121 118
l-121 -118l-35 30z" />
    <glyph glyph-name="Otilde" unicode="&#xd5;" horiz-adv-x="708" 
d="M660 350q0 -157 -82.5 -259.5t-223.5 -102.5t-223.5 102.5t-82.5 259.5t82.5 259.5t223.5 102.5t223.5 -102.5t82.5 -259.5zM114 350q0 -137 65 -219.5t175 -82.5t175 82.5t65 219.5t-65 219.5t-175 82.5t-175 -82.5t-65 -219.5zM342 822q-29 27 -55 27q-33 0 -48 -52
l-46 8q23 93 95 93q42 0 78 -33q29 -27 55 -27q33 0 48 52l46 -8q-23 -93 -95 -93q-42 0 -78 33z" />
    <glyph glyph-name="Odieresis" unicode="&#xd6;" horiz-adv-x="708" 
d="M660 350q0 -157 -82.5 -259.5t-223.5 -102.5t-223.5 102.5t-82.5 259.5t82.5 259.5t223.5 102.5t223.5 -102.5t82.5 -259.5zM114 350q0 -137 65 -219.5t175 -82.5t175 82.5t65 219.5t-65 219.5t-175 82.5t-175 -82.5t-65 -219.5zM213 843q0 19 13 32t32 13t32 -13t13 -32
t-13 -32t-32 -13t-32 13t-13 32zM405 843q0 19 13 32t32 13t32 -13t13 -32t-13 -32t-32 -13t-32 13t-13 32z" />
    <glyph glyph-name="multiply" unicode="&#xd7;" horiz-adv-x="618" 
d="M354 332l164 -163l-44 -45l-165 164l-165 -164l-44 45l164 163l-164 164l44 45l165 -164l165 164l44 -45z" />
    <glyph glyph-name="Oslash" unicode="&#xd8;" horiz-adv-x="708" 
d="M71 -7l64 91q-87 101 -87 266q0 157 82.5 259.5t223.5 102.5q105 0 181 -60l60 85l43 -29l-65 -93q87 -101 87 -265q0 -157 -82.5 -259.5t-223.5 -102.5q-106 0 -181 61l-60 -85zM594 350q0 130 -59 212l-327 -463q60 -51 146 -51q110 0 175 82.5t65 219.5zM114 350
q0 -131 59 -212l326 463q-60 51 -145 51q-110 0 -175 -82.5t-65 -219.5z" />
    <glyph glyph-name="Ugrave" unicode="&#xd9;" horiz-adv-x="708" 
d="M354 48q101 0 154 57.5t53 169.5v425h64v-429q0 -139 -74.5 -211t-196.5 -72t-196.5 72t-74.5 211v429h64v-425q0 -112 53 -169.5t154 -57.5zM207 893l48 40l137 -147l-36 -31z" />
    <glyph glyph-name="Uacute" unicode="&#xda;" horiz-adv-x="708" 
d="M354 48q101 0 154 57.5t53 169.5v425h64v-429q0 -139 -74.5 -211t-196.5 -72t-196.5 72t-74.5 211v429h64v-425q0 -112 53 -169.5t154 -57.5zM453 933l48 -40l-149 -138l-36 31z" />
    <glyph glyph-name="Ucircumflex" unicode="&#xdb;" horiz-adv-x="708" 
d="M354 48q101 0 154 57.5t53 169.5v425h64v-429q0 -139 -74.5 -211t-196.5 -72t-196.5 72t-74.5 211v429h64v-425q0 -112 53 -169.5t154 -57.5zM332 924h44l134 -145l-35 -30l-121 118l-121 -118l-35 30z" />
    <glyph glyph-name="Udieresis" unicode="&#xdc;" horiz-adv-x="708" 
d="M354 48q-101 0 -154 57.5t-53 169.5v425h-64v-429q0 -139 74.5 -211t196.5 -72t196.5 72t74.5 211v429h-64v-425q0 -112 -53 -169.5t-154 -57.5zM213 843q0 19 13 32t32 13t32 -13t13 -32t-13 -32t-32 -13t-32 13t-13 32zM405 843q0 19 13 32t32 13t32 -13t13 -32
t-13 -32t-32 -13t-32 13t-13 32z" />
    <glyph glyph-name="Yacute" unicode="&#xdd;" horiz-adv-x="590" 
d="M263 0v278l-245 422h72l205 -354l205 354h72l-245 -422v-278h-64zM398 933l48 -40l-149 -138l-36 31z" />
    <glyph glyph-name="Thorn" unicode="&#xde;" horiz-adv-x="583" 
d="M83 700h64v-131h138q125 0 192 -54.5t67 -159.5q0 -104 -67 -159t-192 -55h-138v-141h-64v700zM147 511v-312h132q199 0 199 156t-199 156h-132z" />
    <glyph glyph-name="germandbls" unicode="&#xdf;" horiz-adv-x="564" 
d="M203 20l28 56q42 -28 90 -28q68 0 105.5 37t37.5 103q0 76 -56.5 117.5t-147.5 42.5v58q70 0 106 34.5t36 94.5q0 52 -34 84.5t-93 32.5q-75 0 -105 -49.5t-30 -139.5v-463h-64v479q0 113 51 173t150 60q83 0 137 -51t54 -125q0 -118 -113 -157q78 -14 126.5 -62.5
t48.5 -128.5q0 -95 -54 -147.5t-149 -52.5q-71 0 -124 32z" />
    <glyph glyph-name="agrave" unicode="&#xe0;" horiz-adv-x="539" 
d="M42 154q0 72 54.5 119t144.5 47q93 0 169 -58v76q0 68 -34.5 102t-113.5 34q-83 0 -152 -56l-38 41q85 71 197 71q96 0 148.5 -46t52.5 -132v-352h-60v57q-73 -69 -169 -69q-90 0 -144.5 47t-54.5 119zM248 264q-66 0 -105 -28.5t-39 -81.5q0 -52 39 -81t105 -29
q92 0 162 67v94q-69 59 -162 59zM147 719l48 40l137 -147l-36 -31z" />
    <glyph glyph-name="aacute" unicode="&#xe1;" horiz-adv-x="539" 
d="M42 154q0 72 54.5 119t144.5 47q93 0 169 -58v76q0 68 -34.5 102t-113.5 34q-83 0 -152 -56l-38 41q85 71 197 71q96 0 148.5 -46t52.5 -132v-352h-60v57q-73 -69 -169 -69q-90 0 -144.5 47t-54.5 119zM248 264q-66 0 -105 -28.5t-39 -81.5q0 -52 39 -81t105 -29
q92 0 162 67v94q-69 59 -162 59zM348 759l48 -40l-149 -138l-36 31z" />
    <glyph glyph-name="acircumflex" unicode="&#xe2;" horiz-adv-x="539" 
d="M42 154q0 72 54.5 119t144.5 47q93 0 169 -58v76q0 68 -34.5 102t-113.5 34q-83 0 -152 -56l-38 41q85 71 197 71q96 0 148.5 -46t52.5 -132v-352h-60v57q-73 -69 -169 -69q-90 0 -144.5 47t-54.5 119zM248 264q-66 0 -105 -28.5t-39 -81.5q0 -52 39 -81t105 -29
q92 0 162 67v94q-69 59 -162 59zM251 750h44l134 -145l-35 -30l-121 118l-121 -118l-35 30z" />
    <glyph glyph-name="atilde" unicode="&#xe3;" horiz-adv-x="539" 
d="M42 154q0 72 54.5 119t144.5 47q93 0 169 -58v76q0 68 -34.5 102t-113.5 34q-83 0 -152 -56l-38 41q85 71 197 71q96 0 148.5 -46t52.5 -132v-352h-60v57q-73 -69 -169 -69q-90 0 -144.5 47t-54.5 119zM248 264q-66 0 -105 -28.5t-39 -81.5q0 -52 39 -81t105 -29
q92 0 162 67v94q-69 59 -162 59zM259 648q-29 27 -55 27q-33 0 -48 -52l-46 8q23 93 95 93q42 0 78 -33q29 -27 55 -27q33 0 48 52l46 -8q-23 -93 -95 -93q-42 0 -78 33z" />
    <glyph glyph-name="adieresis" unicode="&#xe4;" horiz-adv-x="539" 
d="M42 154q0 72 54.5 119t144.5 47q93 0 169 -58v76q0 68 -34.5 102t-113.5 34q-83 0 -152 -56l-38 41q85 71 197 71q96 0 148.5 -46t52.5 -132v-352h-60v57q-73 -69 -169 -69q-90 0 -144.5 47t-54.5 119zM248 264q-66 0 -105 -28.5t-39 -81.5q0 -52 39 -81t105 -29
q92 0 162 67v94q-69 59 -162 59zM140 669q0 19 13 32t32 13t32 -13t13 -32t-13 -32t-32 -13t-32 13t-13 32zM332 669q0 19 13 32t32 13t32 -13t13 -32t-13 -32t-32 -13t-32 13t-13 32z" />
    <glyph glyph-name="aring" unicode="&#xe5;" horiz-adv-x="539" 
d="M42 154q0 72 54.5 119t144.5 47q93 0 169 -58v76q0 68 -34.5 102t-113.5 34q-83 0 -152 -56l-38 41q85 71 197 71q96 0 148.5 -46t52.5 -132v-352h-60v57q-73 -69 -169 -69q-90 0 -144.5 47t-54.5 119zM248 264q-66 0 -105 -28.5t-39 -81.5q0 -52 39 -81t105 -29
q92 0 162 67v94q-69 59 -162 59zM226 669q0 -22 14.5 -37t36.5 -15t36.5 15t14.5 37t-14.5 37t-36.5 15t-36.5 -15t-14.5 -37zM178 669q0 40 29 68.5t70 28.5t70 -28.5t29 -68.5t-29 -68.5t-70 -28.5t-70 28.5t-29 68.5z" />
    <glyph glyph-name="ae" unicode="&#xe6;" horiz-adv-x="928" 
d="M667 -12q-70 0 -128 32t-92 93q-27 -59 -82.5 -92t-123.5 -33q-90 0 -144.5 47t-54.5 119t54.5 119t144.5 47q93 0 169 -58v76q0 68 -34.5 102t-113.5 34q-83 0 -152 -56l-38 41q85 71 197 71q73 0 123 -28.5t66 -82.5q27 51 78 81t115 30q104 0 171 -75.5t67 -193.5
q0 -20 -1 -27h-414q6 -84 57 -137t133 -53q93 0 154 74l46 -33q-75 -97 -197 -97zM410 187v17q-67 60 -162 60q-66 0 -105 -28.5t-39 -81.5q0 -52 38.5 -81t100.5 -29q66 0 116.5 42.5t50.5 100.5zM474 288h352q-4 83 -54 134.5t-122 51.5t-122 -51.5t-54 -134.5z" />
    <glyph glyph-name="ccedilla" unicode="&#xe7;" horiz-adv-x="534" 
d="M275 -191q29 0 45.5 13t16.5 35q0 57 -94 60l-5 7l31 65q-102 6 -164 80.5t-62 189.5q0 120 67.5 195.5t176.5 75.5q142 0 212 -115l-48 -29q-61 88 -160 88q-85 0 -135.5 -58t-50.5 -157t50.5 -157t135.5 -58q99 0 160 88l48 -29q-59 -98 -176 -112l-20 -42
q43 -8 66.5 -33t23.5 -61q0 -39 -30 -66t-87 -27q-55 0 -91 34l30 36q26 -23 60 -23z" />
    <glyph glyph-name="egrave" unicode="&#xe8;" horiz-adv-x="561" 
d="M300 -12q-116 0 -186.5 78.5t-70.5 193.5q0 118 67.5 194t173.5 76q104 0 171 -75.5t67 -193.5q0 -20 -1 -27h-414q6 -84 57 -137t133 -53q93 0 154 74l46 -33q-75 -97 -197 -97zM107 288h352q-4 83 -54 134.5t-122 51.5t-122 -51.5t-54 -134.5zM170 719l48 40l137 -147
l-36 -31z" />
    <glyph glyph-name="eacute" unicode="&#xe9;" horiz-adv-x="561" 
d="M300 -12q-116 0 -186.5 78.5t-70.5 193.5q0 118 67.5 194t173.5 76q104 0 171 -75.5t67 -193.5q0 -20 -1 -27h-414q6 -84 57 -137t133 -53q93 0 154 74l46 -33q-75 -97 -197 -97zM107 288h352q-4 83 -54 134.5t-122 51.5t-122 -51.5t-54 -134.5zM361 759l48 -40
l-149 -138l-36 31z" />
    <glyph glyph-name="ecircumflex" unicode="&#xea;" horiz-adv-x="561" 
d="M300 -12q-116 0 -186.5 78.5t-70.5 193.5q0 118 67.5 194t173.5 76q104 0 171 -75.5t67 -193.5q0 -20 -1 -27h-414q6 -84 57 -137t133 -53q93 0 154 74l46 -33q-75 -97 -197 -97zM107 288h352q-4 83 -54 134.5t-122 51.5t-122 -51.5t-54 -134.5zM262 750h44l134 -145
l-35 -30l-121 118l-121 -118l-35 30z" />
    <glyph glyph-name="edieresis" unicode="&#xeb;" horiz-adv-x="561" 
d="M300 -12q-116 0 -186.5 78.5t-70.5 193.5q0 118 67.5 194t173.5 76q104 0 171 -75.5t67 -193.5q0 -20 -1 -27h-414q6 -84 57 -137t133 -53q93 0 154 74l46 -33q-75 -97 -197 -97zM107 288h352q-4 83 -54 134.5t-122 51.5t-122 -51.5t-54 -134.5zM145 669q0 19 13 32
t32 13t32 -13t13 -32t-13 -32t-32 -13t-32 13t-13 32zM337 669q0 19 13 32t32 13t32 -13t13 -32t-13 -32t-32 -13t-32 13t-13 32z" />
    <glyph glyph-name="igrave" unicode="&#xec;" horiz-adv-x="220" 
d="M80 0v518h60v-518h-60zM-47 719l48 40l137 -147l-36 -31z" />
    <glyph glyph-name="iacute" unicode="&#xed;" horiz-adv-x="220" 
d="M80 0v518h60v-518h-60zM219 759l48 -40l-149 -138l-36 31z" />
    <glyph glyph-name="icircumflex" unicode="&#xee;" horiz-adv-x="220" 
d="M80 0v518h60v-518h-60zM88 750h44l134 -145l-35 -30l-121 118l-121 -118l-35 30z" />
    <glyph glyph-name="idieresis" unicode="&#xef;" horiz-adv-x="220" 
d="M80 0v518h60v-518h-60zM-31 669q0 19 13 32t32 13t32 -13t13 -32t-13 -32t-32 -13t-32 13t-13 32zM161 669q0 19 13 32t32 13t32 -13t13 -32t-13 -32t-32 -13t-32 13t-13 32z" />
    <glyph glyph-name="eth" unicode="&#xf0;" horiz-adv-x="558" 
d="M427 426q-19 100 -86 163l-166 -50l-16 47l134 41q-51 31 -118 47l4 56q113 -28 182 -83l159 49l16 -47l-133 -41q96 -105 96 -284q0 -158 -60.5 -247t-176.5 -89q-95 0 -155.5 68t-60.5 186q0 120 59 187t160 67q95 0 162 -70zM265 440q-72 0 -114.5 -52.5t-42.5 -145.5
q0 -90 41.5 -144t112.5 -54q83 0 129 69.5t46 211.5q0 19 -1 29q-68 86 -171 86z" />
    <glyph glyph-name="ntilde" unicode="&#xf1;" horiz-adv-x="575" 
d="M324 530q85 0 133.5 -49t48.5 -141v-340h-60v325q0 149 -135 149q-48 0 -97.5 -26.5t-80.5 -63.5v-384h-60v518h60v-71q87 83 191 83zM276 648q-29 27 -55 27q-33 0 -48 -52l-46 8q23 93 95 93q42 0 78 -33q29 -27 55 -27q33 0 48 52l46 -8q-23 -93 -95 -93q-42 0 -78 33
z" />
    <glyph glyph-name="ograve" unicode="&#xf2;" horiz-adv-x="576" 
d="M471 259q0 98 -50 156.5t-133 58.5t-133 -58.5t-50 -156.5t50 -156.5t133 -58.5t133 58.5t50 156.5zM533 259q0 -119 -68 -195t-177 -76t-177 76t-68 195t68 195t177 76t177 -76t68 -195zM169 719l48 40l137 -147l-36 -31z" />
    <glyph glyph-name="oacute" unicode="&#xf3;" horiz-adv-x="576" 
d="M471 259q0 98 -50 156.5t-133 58.5t-133 -58.5t-50 -156.5t50 -156.5t133 -58.5t133 58.5t50 156.5zM533 259q0 -119 -68 -195t-177 -76t-177 76t-68 195t68 195t177 76t177 -76t68 -195zM358 759l48 -40l-149 -138l-36 31z" />
    <glyph glyph-name="ocircumflex" unicode="&#xf4;" horiz-adv-x="576" 
d="M471 259q0 98 -50 156.5t-133 58.5t-133 -58.5t-50 -156.5t50 -156.5t133 -58.5t133 58.5t50 156.5zM533 259q0 -119 -68 -195t-177 -76t-177 76t-68 195t68 195t177 76t177 -76t68 -195zM266 750h44l134 -145l-35 -30l-121 118l-121 -118l-35 30z" />
    <glyph glyph-name="otilde" unicode="&#xf5;" horiz-adv-x="576" 
d="M471 259q0 98 -50 156.5t-133 58.5t-133 -58.5t-50 -156.5t50 -156.5t133 -58.5t133 58.5t50 156.5zM533 259q0 -119 -68 -195t-177 -76t-177 76t-68 195t68 195t177 76t177 -76t68 -195zM276 648q-29 27 -55 27q-33 0 -48 -52l-46 8q23 93 95 93q42 0 78 -33
q29 -27 55 -27q33 0 48 52l46 -8q-23 -93 -95 -93q-42 0 -78 33z" />
    <glyph glyph-name="odieresis" unicode="&#xf6;" horiz-adv-x="576" 
d="M471 259q0 -98 -50 -156.5t-133 -58.5t-133 58.5t-50 156.5t50 156.5t133 58.5t133 -58.5t50 -156.5zM533 259q0 119 -68 195t-177 76t-177 -76t-68 -195t68 -195t177 -76t177 76t68 195zM147 669q0 19 13 32t32 13t32 -13t13 -32t-13 -32t-32 -13t-32 13t-13 32z
M339 669q0 19 13 32t32 13t32 -13t13 -32t-13 -32t-32 -13t-32 13t-13 32z" />
    <glyph glyph-name="divide" unicode="&#xf7;" horiz-adv-x="618" 
d="M259 531q0 21 14.5 35.5t35.5 14.5t35.5 -14.5t14.5 -35.5t-14.5 -35.5t-35.5 -14.5t-35.5 14.5t-14.5 35.5zM63 303h492v57h-492v-57zM259 132q0 -21 14.5 -35.5t35.5 -14.5t35.5 14.5t14.5 35.5t-14.5 35.5t-35.5 14.5t-35.5 -14.5t-14.5 -35.5z" />
    <glyph glyph-name="oslash" unicode="&#xf8;" horiz-adv-x="576" 
d="M421 491l49 69l42 -29l-52 -73q73 -76 73 -199q0 -119 -68 -195t-177 -76q-77 0 -133 38l-48 -68l-42 29l51 72q-73 76 -73 200q0 119 68 195t177 76q75 0 133 -39zM288 474q-83 0 -133 -58.5t-50 -156.5q0 -95 45 -152l238 337q-44 30 -100 30zM471 259q0 94 -45 151
l-238 -337q41 -29 100 -29q83 0 133 58.5t50 156.5z" />
    <glyph glyph-name="ugrave" unicode="&#xf9;" horiz-adv-x="570" 
d="M285 44q72 0 114.5 44t42.5 129v301h60v-306q0 -111 -58.5 -167.5t-158.5 -56.5t-158.5 56.5t-58.5 167.5v306h60v-301q0 -85 42.5 -129t114.5 -44zM152 719l48 40l137 -147l-36 -31z" />
    <glyph glyph-name="uacute" unicode="&#xfa;" horiz-adv-x="570" 
d="M285 44q72 0 114.5 44t42.5 129v301h60v-306q0 -111 -58.5 -167.5t-158.5 -56.5t-158.5 56.5t-58.5 167.5v306h60v-301q0 -85 42.5 -129t114.5 -44zM370 759l48 -40l-149 -138l-36 31z" />
    <glyph glyph-name="ucircumflex" unicode="&#xfb;" horiz-adv-x="570" 
d="M285 44q72 0 114.5 44t42.5 129v301h60v-306q0 -111 -58.5 -167.5t-158.5 -56.5t-158.5 56.5t-58.5 167.5v306h60v-301q0 -85 42.5 -129t114.5 -44zM263 750h44l134 -145l-35 -30l-121 118l-121 -118l-35 30z" />
    <glyph glyph-name="udieresis" unicode="&#xfc;" horiz-adv-x="570" 
d="M285 44q-72 0 -114.5 44t-42.5 129v301h-60v-306q0 -111 58.5 -167.5t158.5 -56.5t158.5 56.5t58.5 167.5v306h-60v-301q0 -85 -42.5 -129t-114.5 -44zM144 669q0 19 13 32t32 13t32 -13t13 -32t-13 -32t-32 -13t-32 13t-13 32zM336 669q0 19 13 32t32 13t32 -13t13 -32
t-13 -32t-32 -13t-32 13t-13 32z" />
    <glyph glyph-name="yacute" unicode="&#xfd;" horiz-adv-x="506" 
d="M82 518l178 -432l165 432h63l-279 -730h-62l82 216l-211 514h64zM337 759l48 -40l-149 -138l-36 31z" />
    <glyph glyph-name="thorn" unicode="&#xfe;" horiz-adv-x="576" 
d="M133 730v-272q75 72 173 72q106 0 164 -72t58 -199t-58 -199t-164 -72q-98 0 -173 72v-272h-60v942h60zM466 259q0 215 -171 215q-43 0 -88 -20.5t-74 -53.5v-282q29 -33 74 -53.5t88 -20.5q171 0 171 215z" />
    <glyph glyph-name="ydieresis" unicode="&#xff;" horiz-adv-x="506" 
d="M82 518l178 -432l165 432h63l-279 -730h-62l82 216l-211 514h64zM112 669q0 19 13 32t32 13t32 -13t13 -32t-13 -32t-32 -13t-32 13t-13 32zM304 669q0 19 13 32t32 13t32 -13t13 -32t-13 -32t-32 -13t-32 13t-13 32z" />
    <glyph glyph-name="Amacron" unicode="&#x100;" horiz-adv-x="666" 
d="M298 700h70l275 -700h-71l-73 191h-332l-73 -191h-71zM333 632l-146 -383h292zM191 816v54h286v-54h-286z" />
    <glyph glyph-name="amacron" unicode="&#x101;" horiz-adv-x="539" 
d="M42 154q0 72 54.5 119t144.5 47q93 0 169 -58v76q0 68 -34.5 102t-113.5 34q-83 0 -152 -56l-38 41q85 71 197 71q96 0 148.5 -46t52.5 -132v-352h-60v57q-73 -69 -169 -69q-90 0 -144.5 47t-54.5 119zM248 264q-66 0 -105 -28.5t-39 -81.5q0 -52 39 -81t105 -29
q92 0 162 67v94q-69 59 -162 59zM124 642v54h286v-54h-286z" />
    <glyph glyph-name="Abreve" unicode="&#x102;" horiz-adv-x="666" 
d="M298 700h70l275 -700h-71l-73 191h-332l-73 -191h-71zM333 632l-146 -383h292zM333 820q78 0 107 91l45 -12q-16 -60 -55.5 -94t-96.5 -34t-96.5 34t-55.5 94l45 12q29 -91 107 -91z" />
    <glyph glyph-name="abreve" unicode="&#x103;" horiz-adv-x="539" 
d="M42 154q0 72 54.5 119t144.5 47q93 0 169 -58v76q0 68 -34.5 102t-113.5 34q-83 0 -152 -56l-38 41q85 71 197 71q96 0 148.5 -46t52.5 -132v-352h-60v57q-73 -69 -169 -69q-90 0 -144.5 47t-54.5 119zM248 264q-66 0 -105 -28.5t-39 -81.5q0 -52 39 -81t105 -29
q92 0 162 67v94q-69 59 -162 59zM274 648q78 0 107 91l45 -12q-16 -60 -55.5 -94t-96.5 -34t-96.5 34t-55.5 94l45 12q29 -91 107 -91z" />
    <glyph glyph-name="Aogonek" unicode="&#x104;" horiz-adv-x="666" 
d="M587 0h-15l-73 191h-332l-73 -191h-71l275 700h70l275 -700q-69 -52 -69 -110q0 -27 16.5 -43.5t41.5 -16.5q33 0 57 24l29 -36q-42 -37 -94 -37q-48 0 -77 29.5t-29 71.5q0 68 69 118zM333 632l-146 -384h292z" />
    <glyph glyph-name="aogonek" unicode="&#x105;" horiz-adv-x="539" 
d="M414 0h-4v57q-73 -69 -169 -69q-90 0 -144.5 47t-54.5 119t54.5 119t144.5 47q93 0 169 -58v76q0 68 -34.5 102t-113.5 34q-83 0 -152 -56l-38 41q85 71 197 71q96 0 148.5 -46t52.5 -132v-352q-69 -52 -69 -110q0 -27 16.5 -43.5t41.5 -16.5q33 0 57 24l29 -36
q-42 -37 -94 -37q-48 0 -77 29.5t-29 71.5q0 68 69 118zM248 264q-66 0 -105 -28.5t-39 -81.5q0 -52 39 -81t105 -29q92 0 162 67v94q-69 59 -162 59z" />
    <glyph glyph-name="Cacute" unicode="&#x106;" horiz-adv-x="680" 
d="M48 350q0 160 87.5 261t231.5 101q182 0 271 -141l-53 -33q-80 114 -216 114q-113 0 -184 -81.5t-71 -220.5t71 -220.5t184 -81.5q136 0 216 114l53 -33q-89 -141 -271 -141q-144 0 -231.5 101t-87.5 261zM444 933l48 -40l-149 -138l-36 31z" />
    <glyph glyph-name="cacute" unicode="&#x107;" horiz-adv-x="534" 
d="M43 259q0 120 67.5 195.5t176.5 75.5q142 0 212 -115l-48 -29q-61 88 -160 88q-85 0 -135.5 -58t-50.5 -157t50.5 -157t135.5 -58q99 0 160 88l48 -29q-70 -115 -212 -115q-109 0 -176.5 75.5t-67.5 195.5zM346 759l48 -40l-149 -138l-36 31z" />
    <glyph glyph-name="Ccircumflex" unicode="&#x108;" horiz-adv-x="680" 
d="M48 350q0 160 87.5 261t231.5 101q182 0 271 -141l-53 -33q-80 114 -216 114q-113 0 -184 -81.5t-71 -220.5t71 -220.5t184 -81.5q136 0 216 114l53 -33q-89 -141 -271 -141q-144 0 -231.5 101t-87.5 261zM352 924h44l134 -145l-35 -30l-121 118l-121 -118l-35 30z" />
    <glyph glyph-name="ccircumflex" unicode="&#x109;" horiz-adv-x="534" 
d="M43 259q0 120 67.5 195.5t176.5 75.5q142 0 212 -115l-48 -29q-61 88 -160 88q-85 0 -135.5 -58t-50.5 -157t50.5 -157t135.5 -58q99 0 160 88l48 -29q-70 -115 -212 -115q-109 0 -176.5 75.5t-67.5 195.5zM264 750h44l134 -145l-35 -30l-121 118l-121 -118l-35 30z" />
    <glyph glyph-name="Cdotaccent" unicode="&#x10a;" horiz-adv-x="680" 
d="M48 350q0 160 87.5 261t231.5 101q182 0 271 -141l-53 -33q-80 114 -216 114q-113 0 -184 -81.5t-71 -220.5t71 -220.5t184 -81.5q136 0 216 114l53 -33q-89 -141 -271 -141q-144 0 -231.5 101t-87.5 261zM318 843q0 18 13.5 31.5t31.5 13.5t31.5 -13.5t13.5 -31.5
t-13.5 -31.5t-31.5 -13.5t-31.5 13.5t-13.5 31.5z" />
    <glyph glyph-name="cdotaccent" unicode="&#x10b;" horiz-adv-x="534" 
d="M43 259q0 120 67.5 195.5t176.5 75.5q142 0 212 -115l-48 -29q-61 88 -160 88q-85 0 -135.5 -58t-50.5 -157t50.5 -157t135.5 -58q99 0 160 88l48 -29q-70 -115 -212 -115q-109 0 -176.5 75.5t-67.5 195.5zM239 669q0 18 13.5 31.5t31.5 13.5t31.5 -13.5t13.5 -31.5
t-13.5 -31.5t-31.5 -13.5t-31.5 13.5t-13.5 31.5z" />
    <glyph glyph-name="Ccaron" unicode="&#x10c;" horiz-adv-x="680" 
d="M48 350q0 160 87.5 261t231.5 101q182 0 271 -141l-53 -33q-80 114 -216 114q-113 0 -184 -81.5t-71 -220.5t71 -220.5t184 -81.5q136 0 216 114l53 -33q-89 -141 -271 -141q-144 0 -231.5 101t-87.5 261zM391 762h-44l-134 145l35 30l121 -118l121 118l35 -30z" />
    <glyph glyph-name="ccaron" unicode="&#x10d;" horiz-adv-x="534" 
d="M43 259q0 120 67.5 195.5t176.5 75.5q142 0 212 -115l-48 -29q-61 88 -160 88q-85 0 -135.5 -58t-50.5 -157t50.5 -157t135.5 -58q99 0 160 88l48 -29q-70 -115 -212 -115q-109 0 -176.5 75.5t-67.5 195.5zM315 588h-44l-134 145l35 30l121 -118l121 118l35 -30z" />
    <glyph glyph-name="Dcaron" unicode="&#x10e;" horiz-adv-x="673" 
d="M147 58h148q124 0 194 77t70 215q0 137 -70 214.5t-194 77.5h-148v-584zM301 0h-218v700h218q151 0 237.5 -94t86.5 -256q0 -163 -86.5 -256.5t-237.5 -93.5zM312 762h-44l-134 145l35 30l121 -118l121 118l35 -30z" />
    <glyph glyph-name="dcaron" unicode="&#x10f;" horiz-adv-x="667" 
d="M443 60v-60h60v730h-60v-272q-79 72 -173 72q-106 0 -164 -72t-58 -199t58 -199t164 -72q94 0 173 72zM110 259q0 215 171 215q43 0 87.5 -22t74.5 -56v-274q-30 -34 -74.5 -56t-87.5 -22q-171 0 -171 215zM618 739l59 -19l-87 -226l-44 12z" />
    <glyph glyph-name="Dcroat" unicode="&#x110;" horiz-adv-x="680" 
d="M308 0h-218v323h-80v53h80v324h218q151 0 237.5 -94t86.5 -256q0 -163 -86.5 -256.5t-237.5 -93.5zM154 58h148q124 0 194 77t70 215q0 137 -70 214.5t-194 77.5h-148v-266h176v-53h-176v-265z" />
    <glyph glyph-name="dcroat" unicode="&#x111;" horiz-adv-x="576" 
d="M443 0v60q-79 -72 -173 -72q-106 0 -164 72t-58 199t58 199t164 72q94 0 173 -72v143h-209v51h209v78h60v-78h65v-51h-65v-601h-60zM110 259q0 -215 171 -215q43 0 87.5 22t74.5 56v274q-30 34 -74.5 56t-87.5 22q-171 0 -171 -215z" />
    <glyph glyph-name="Emacron" unicode="&#x112;" horiz-adv-x="561" 
d="M83 0v700h426v-58h-362v-251h325v-58h-325v-275h371v-58h-435zM156 816v54h286v-54h-286z" />
    <glyph glyph-name="emacron" unicode="&#x113;" horiz-adv-x="561" 
d="M300 -12q-116 0 -186.5 78.5t-70.5 193.5q0 118 67.5 194t173.5 76q104 0 171 -75.5t67 -193.5q0 -20 -1 -27h-414q6 -84 57 -137t133 -53q93 0 154 74l46 -33q-75 -97 -197 -97zM107 288h352q-4 83 -54 134.5t-122 51.5t-122 -51.5t-54 -134.5zM139 642v54h286v-54h-286
z" />
    <glyph glyph-name="Ebreve" unicode="&#x114;" horiz-adv-x="561" 
d="M83 0v700h426v-58h-362v-251h325v-58h-325v-275h371v-58h-435zM298 820q78 0 107 91l45 -12q-16 -60 -55.5 -94t-96.5 -34t-96.5 34t-55.5 94l45 12q29 -91 107 -91z" />
    <glyph glyph-name="ebreve" unicode="&#x115;" horiz-adv-x="561" 
d="M300 -12q-116 0 -186.5 78.5t-70.5 193.5q0 118 67.5 194t173.5 76q104 0 171 -75.5t67 -193.5q0 -20 -1 -27h-414q6 -84 57 -137t133 -53q93 0 154 74l46 -33q-75 -97 -197 -97zM107 288h352q-4 83 -54 134.5t-122 51.5t-122 -51.5t-54 -134.5zM280 648q78 0 107 91
l45 -12q-16 -60 -55.5 -94t-96.5 -34t-96.5 34t-55.5 94l45 12q29 -91 107 -91z" />
    <glyph glyph-name="Edotaccent" unicode="&#x116;" horiz-adv-x="561" 
d="M83 0v700h426v-58h-362v-251h325v-58h-325v-275h371v-58h-435zM256 843q0 18 13.5 31.5t31.5 13.5t31.5 -13.5t13.5 -31.5t-13.5 -31.5t-31.5 -13.5t-31.5 13.5t-13.5 31.5z" />
    <glyph glyph-name="edotaccent" unicode="&#x117;" horiz-adv-x="561" 
d="M300 -12q-116 0 -186.5 78.5t-70.5 193.5q0 118 67.5 194t173.5 76q104 0 171 -75.5t67 -193.5q0 -20 -1 -27h-414q6 -84 57 -137t133 -53q93 0 154 74l46 -33q-75 -97 -197 -97zM107 288h352q-4 83 -54 134.5t-122 51.5t-122 -51.5t-54 -134.5zM236 669q0 18 13.5 31.5
t31.5 13.5t31.5 -13.5t13.5 -31.5t-13.5 -31.5t-31.5 -13.5t-31.5 13.5t-13.5 31.5z" />
    <glyph glyph-name="Eogonek" unicode="&#x118;" horiz-adv-x="561" 
d="M83 0v700h426v-58h-362v-251h325v-58h-325v-275h371v-58h-61q-69 -52 -69 -110q0 -27 16.5 -43.5t41.5 -16.5q33 0 57 24l29 -36q-42 -37 -94 -37q-48 0 -77 29.5t-29 71.5q0 68 69 118h-318z" />
    <glyph glyph-name="eogonek" unicode="&#x119;" horiz-adv-x="561" 
d="M497 85q-62 -79 -155 -94q-57 -48 -57 -101q0 -27 16.5 -43.5t41.5 -16.5q33 0 57 24l29 -36q-42 -37 -94 -37q-48 0 -77 29.5t-29 71.5q0 59 54 107q-109 6 -174.5 83t-65.5 188q0 118 67.5 194t173.5 76q104 0 171 -75.5t67 -193.5q0 -20 -1 -27h-414q6 -84 57 -137
t133 -53q93 0 154 74zM107 288h352q-4 83 -54 134.5t-122 51.5t-122 -51.5t-54 -134.5z" />
    <glyph glyph-name="Ecaron" unicode="&#x11a;" horiz-adv-x="561" 
d="M83 0v700h426v-58h-362v-251h325v-58h-325v-275h371v-58h-435zM322 762h-44l-134 145l35 30l121 -118l121 118l35 -30z" />
    <glyph glyph-name="ecaron" unicode="&#x11b;" horiz-adv-x="561" 
d="M300 -12q-116 0 -186.5 78.5t-70.5 193.5q0 118 67.5 194t173.5 76q104 0 171 -75.5t67 -193.5q0 -20 -1 -27h-414q6 -84 57 -137t133 -53q93 0 154 74l46 -33q-75 -97 -197 -97zM107 288h352q-4 83 -54 134.5t-122 51.5t-122 -51.5t-54 -134.5zM306 588h-44l-134 145
l35 30l121 -118l121 118l35 -30z" />
    <glyph glyph-name="Gcircumflex" unicode="&#x11c;" horiz-adv-x="697" 
d="M48 350q0 159 87.5 260.5t225.5 101.5q182 0 273 -138l-53 -33q-41 58 -93 84.5t-125 26.5q-108 0 -178.5 -82t-70.5 -220q0 -136 73 -219t193 -83q59 0 111.5 20.5t81.5 57.5v176h-190v58h254v-258q-43 -55 -111.5 -84.5t-146.5 -29.5q-149 0 -240 103t-91 259zM337 924
h44l134 -145l-35 -30l-121 118l-121 -118l-35 30z" />
    <glyph glyph-name="gcircumflex" unicode="&#x11d;" horiz-adv-x="576" 
d="M503 518v-508q0 -113 -56 -173.5t-159 -60.5q-136 0 -217 104l47 33q69 -83 167 -83q74 0 116 45t42 127v58q-79 -72 -173 -72q-106 0 -164 72t-58 199t58 199t164 72q94 0 173 -72v60h60zM110 259q0 -215 171 -215q43 0 87.5 22t74.5 56v274q-30 34 -74.5 56t-87.5 22
q-171 0 -171 -215zM261 750h44l134 -145l-35 -30l-121 118l-121 -118l-35 30z" />
    <glyph glyph-name="Gbreve" unicode="&#x11e;" horiz-adv-x="697" 
d="M48 350q0 159 87.5 260.5t225.5 101.5q182 0 273 -138l-53 -33q-41 58 -93 84.5t-125 26.5q-108 0 -178.5 -82t-70.5 -220q0 -136 73 -219t193 -83q59 0 111.5 20.5t81.5 57.5v176h-190v58h254v-258q-43 -55 -111.5 -84.5t-146.5 -29.5q-149 0 -240 103t-91 259zM361 820
q78 0 107 91l45 -12q-16 -60 -55.5 -94t-96.5 -34t-96.5 34t-55.5 94l45 12q29 -91 107 -91z" />
    <glyph glyph-name="gbreve" unicode="&#x11f;" horiz-adv-x="576" 
d="M503 518v-508q0 -113 -56 -173.5t-159 -60.5q-136 0 -217 104l47 33q69 -83 167 -83q74 0 116 45t42 127v58q-79 -72 -173 -72q-106 0 -164 72t-58 199t58 199t164 72q94 0 173 -72v60h60zM110 259q0 -215 171 -215q43 0 87.5 22t74.5 56v274q-30 34 -74.5 56t-87.5 22
q-171 0 -171 -215zM285 648q78 0 107 91l45 -12q-16 -60 -55.5 -94t-96.5 -34t-96.5 34t-55.5 94l45 12q29 -91 107 -91z" />
    <glyph glyph-name="Gdotaccent" unicode="&#x120;" horiz-adv-x="697" 
d="M48 350q0 159 87.5 260.5t225.5 101.5q182 0 273 -138l-53 -33q-41 58 -93 84.5t-125 26.5q-108 0 -178.5 -82t-70.5 -220q0 -136 73 -219t193 -83q59 0 111.5 20.5t81.5 57.5v176h-190v58h254v-258q-43 -55 -111.5 -84.5t-146.5 -29.5q-149 0 -240 103t-91 259zM316 843
q0 18 13.5 31.5t31.5 13.5t31.5 -13.5t13.5 -31.5t-13.5 -31.5t-31.5 -13.5t-31.5 13.5t-13.5 31.5z" />
    <glyph glyph-name="gdotaccent" unicode="&#x121;" horiz-adv-x="576" 
d="M503 518v-508q0 -113 -56 -173.5t-159 -60.5q-136 0 -217 104l47 33q69 -83 167 -83q74 0 116 45t42 127v58q-79 -72 -173 -72q-106 0 -164 72t-58 199t58 199t164 72q94 0 173 -72v60h60zM110 259q0 -215 171 -215q43 0 87.5 22t74.5 56v274q-30 34 -74.5 56t-87.5 22
q-171 0 -171 -215zM237 669q0 18 13.5 31.5t31.5 13.5t31.5 -13.5t13.5 -31.5t-13.5 -31.5t-31.5 -13.5t-31.5 13.5t-13.5 31.5z" />
    <glyph glyph-name="Gcommaaccent" unicode="&#x122;" horiz-adv-x="697" 
d="M48 350q0 159 87.5 260.5t225.5 101.5q182 0 273 -138l-53 -33q-41 58 -93 84.5t-125 26.5q-108 0 -178.5 -82t-70.5 -220q0 -136 73 -219t193 -83q59 0 111.5 20.5t81.5 57.5v176h-190v58h254v-258q-43 -55 -111.5 -84.5t-146.5 -29.5q-149 0 -240 103t-91 259z
M315 -241l60 193l55 -19l-71 -189z" />
    <glyph glyph-name="gcommaaccent" unicode="&#x123;" horiz-adv-x="576" 
d="M503 518v-508q0 -113 -56 -173.5t-159 -60.5q-136 0 -217 104l47 33q69 -83 167 -83q74 0 116 45t42 127v58q-79 -72 -173 -72q-106 0 -164 72t-58 199t58 199t164 72q94 0 173 -72v60h60zM110 259q0 -215 171 -215q43 0 87.5 22t74.5 56v274q-30 34 -74.5 56t-87.5 22
q-171 0 -171 -215zM354 777l-60 -193l-55 19l71 189z" />
    <glyph glyph-name="Hcircumflex" unicode="&#x124;" horiz-adv-x="691" 
d="M83 0v700h64v-298h397v298h64v-700h-64v344h-397v-344h-64zM323 924h44l134 -145l-35 -30l-121 118l-121 -118l-35 30z" />
    <glyph glyph-name="hcircumflex" unicode="&#x125;" horiz-adv-x="575" 
d="M324 530q85 0 133.5 -49t48.5 -141v-340h-60v325q0 149 -135 149q-48 0 -97.5 -26.5t-80.5 -63.5v-384h-60v730h60v-283q87 83 191 83zM80 924h44l134 -145l-35 -30l-121 118l-121 -118l-35 30z" />
    <glyph glyph-name="Hbar" unicode="&#x126;" horiz-adv-x="691" 
d="M83 0v542h-63v53h63v105h64v-105h397v105h64v-105h63v-53h-63v-542h-64v344h-397v-344h-64zM147 402h397v140h-397v-140z" />
    <glyph glyph-name="hbar" unicode="&#x127;" horiz-adv-x="576" 
d="M325 530q85 0 133.5 -49t48.5 -141v-340h-60v325q0 149 -135 149q-48 0 -97.5 -26.5t-80.5 -63.5v-384h-60v602h-66v50h66v78h60v-78h208v-50h-208v-155q87 83 191 83z" />
    <glyph glyph-name="Itilde" unicode="&#x128;" horiz-adv-x="240" 
d="M88 700h64v-700h-64v700zM108 822q-29 27 -55 27q-33 0 -48 -52l-46 8q23 93 95 93q42 0 78 -33q29 -27 55 -27q33 0 48 52l46 -8q-23 -93 -95 -93q-42 0 -78 33z" />
    <glyph glyph-name="itilde" unicode="&#x129;" horiz-adv-x="220" 
d="M80 0v518h60v-518h-60zM98 648q-29 27 -55 27q-33 0 -48 -52l-46 8q23 93 95 93q42 0 78 -33q29 -27 55 -27q33 0 48 52l46 -8q-23 -93 -95 -93q-42 0 -78 33z" />
    <glyph glyph-name="Imacron" unicode="&#x12a;" horiz-adv-x="240" 
d="M88 700h64v-700h-64v700zM-22 816v54h286v-54h-286z" />
    <glyph glyph-name="imacron" unicode="&#x12b;" horiz-adv-x="220" 
d="M80 0v518h60v-518h-60zM-33 642v54h286v-54h-286z" />
    <glyph glyph-name="Ibreve" unicode="&#x12c;" horiz-adv-x="240" 
d="M88 700h64v-700h-64v700zM120 820q78 0 107 91l45 -12q-16 -60 -55.5 -94t-96.5 -34t-96.5 34t-55.5 94l45 12q29 -91 107 -91z" />
    <glyph glyph-name="ibreve" unicode="&#x12d;" horiz-adv-x="220" 
d="M80 0v518h60v-518h-60zM110 648q78 0 107 91l45 -12q-16 -60 -55.5 -94t-96.5 -34t-96.5 34t-55.5 94l45 12q29 -91 107 -91z" />
    <glyph glyph-name="Iogonek" unicode="&#x12e;" horiz-adv-x="240" 
d="M96 0h-8v700h64v-700q-69 -52 -69 -110q0 -27 16.5 -43.5t41.5 -16.5q33 0 57 24l29 -36q-42 -37 -94 -37q-48 0 -77 29.5t-29 71.5q0 68 69 118z" />
    <glyph glyph-name="iogonek" unicode="&#x12f;" horiz-adv-x="220" 
d="M80 0v518h60v-518q-69 -52 -69 -110q0 -27 16.5 -43.5t41.5 -16.5q33 0 57 24l29 -36q-42 -37 -94 -37q-48 0 -77 29.5t-29 71.5q0 68 69 118h-4zM64 679q0 19 13.5 32.5t32.5 13.5t32.5 -13.5t13.5 -32.5t-13.5 -32.5t-32.5 -13.5t-32.5 13.5t-13.5 32.5z" />
    <glyph glyph-name="Idotaccent" unicode="&#x130;" horiz-adv-x="240" 
d="M88 700h64v-700h-64v700zM75 843q0 18 13.5 31.5t31.5 13.5t31.5 -13.5t13.5 -31.5t-13.5 -31.5t-31.5 -13.5t-31.5 13.5t-13.5 31.5z" />
    <glyph glyph-name="dotlessi" unicode="&#x131;" horiz-adv-x="220" 
d="M80 0v518h60v-518h-60z" />
    <glyph glyph-name="IJ" unicode="&#x132;" horiz-adv-x="793" 
d="M88 700h64v-700h-64v700zM494 48q71 0 111.5 48.5t40.5 135.5v468h64v-468q0 -116 -57 -180t-156 -64q-154 0 -225 135l52 31q60 -106 170 -106z" />
    <glyph glyph-name="ij" unicode="&#x133;" horiz-adv-x="440" 
d="M80 0v518h60v-518h-60zM64 679q0 19 13.5 32.5t32.5 13.5t32.5 -13.5t13.5 -32.5t-13.5 -32.5t-32.5 -13.5t-32.5 13.5t-13.5 32.5zM300 -69v587h60v-592q0 -81 -38.5 -115.5t-115.5 -34.5q-17 0 -37 2v56q22 -2 40 -2q48 0 69.5 22.5t21.5 76.5zM284 679q0 19 13.5 32.5
t32.5 13.5t32.5 -13.5t13.5 -32.5t-13.5 -32.5t-32.5 -13.5t-32.5 13.5t-13.5 32.5z" />
    <glyph glyph-name="Jcircumflex" unicode="&#x134;" horiz-adv-x="553" 
d="M254 48q71 0 111.5 48.5t40.5 135.5v468h64v-468q0 -116 -57 -180t-156 -64q-154 0 -225 135l52 31q60 -106 170 -106zM416 924h44l134 -145l-35 -30l-121 118l-121 -118l-35 30z" />
    <glyph glyph-name="jcircumflex" unicode="&#x135;" horiz-adv-x="220" 
d="M80 -69v587h60v-592q0 -81 -38.5 -115.5t-115.5 -34.5q-17 0 -37 2v56q22 -2 40 -2q48 0 69.5 22.5t21.5 76.5zM88 750h44l134 -145l-35 -30l-121 118l-121 -118l-35 30z" />
    <glyph glyph-name="Kcommaaccent" unicode="&#x136;" horiz-adv-x="604" 
d="M147 700v-424l335 424h77l-226 -286l257 -414h-77l-221 364l-145 -184v-180h-64v700h64zM253 -241l60 193l55 -19l-71 -189z" />
    <glyph glyph-name="kcommaaccent" unicode="&#x137;" horiz-adv-x="505" 
d="M428 0l-180 269l-115 -131v-138h-60v730h60v-512l258 300h77l-181 -206l211 -312h-70zM201 -241l60 193l55 -19l-71 -189z" />
    <glyph glyph-name="kgreenlandic" unicode="&#x138;" horiz-adv-x="505" 
d="M428 0l-180 269l-115 -131v-138h-60v518h60v-300l258 300h77l-181 -206l211 -312h-70z" />
    <glyph glyph-name="Lacute" unicode="&#x139;" horiz-adv-x="527" 
d="M83 0v700h64v-642h360v-58h-424zM223 933l48 -40l-149 -138l-36 31z" />
    <glyph glyph-name="lacute" unicode="&#x13a;" horiz-adv-x="220" 
d="M80 0v730h60v-730h-60zM219 933l48 -40l-149 -138l-36 31z" />
    <glyph glyph-name="Lcommaaccent" unicode="&#x13b;" horiz-adv-x="527" 
d="M83 0v700h64v-642h360v-58h-424zM227 -241l60 193l55 -19l-71 -189z" />
    <glyph glyph-name="lcommaaccent" unicode="&#x13c;" horiz-adv-x="220" 
d="M80 0v730h60v-730h-60zM28 -241l60 193l55 -19l-71 -189z" />
    <glyph glyph-name="Lcaron" unicode="&#x13d;" horiz-adv-x="527" 
d="M83 0v700h64v-642h360v-58h-424zM396 739l59 -19l-87 -226l-44 12z" />
    <glyph glyph-name="lcaron" unicode="&#x13e;" horiz-adv-x="304" 
d="M80 0v730h60v-730h-60zM255 739l59 -19l-87 -226l-44 12z" />
    <glyph glyph-name="Ldot" unicode="&#x13f;" horiz-adv-x="527" 
d="M83 0v700h64v-642h360v-58h-424zM314 379q0 18 13.5 31.5t31.5 13.5t31.5 -13.5t13.5 -31.5t-13.5 -31.5t-31.5 -13.5t-31.5 13.5t-13.5 31.5z" />
    <glyph glyph-name="ldot" unicode="&#x140;" horiz-adv-x="394" 
d="M80 0v730h60v-730h-60zM269 379q0 18 13.5 31.5t31.5 13.5t31.5 -13.5t13.5 -31.5t-13.5 -31.5t-31.5 -13.5t-31.5 13.5t-13.5 31.5z" />
    <glyph glyph-name="Lslash" unicode="&#x141;" horiz-adv-x="541" 
d="M-10 269l109 73v358h64v-316l276 185l28 -47l-304 -203v-261h360v-58h-424v276l-81 -54z" />
    <glyph glyph-name="lslash" unicode="&#x142;" horiz-adv-x="359" 
d="M-10 288l160 111v331h60v-289l128 89l31 -44l-159 -111v-375h-60v334l-131 -91z" />
    <glyph glyph-name="Nacute" unicode="&#x143;" horiz-adv-x="697" 
d="M83 0v700h65l402 -594v594h64v-700h-64l-403 594v-594h-64zM453 933l48 -40l-149 -138l-36 31z" />
    <glyph glyph-name="nacute" unicode="&#x144;" horiz-adv-x="575" 
d="M324 530q85 0 133.5 -49t48.5 -141v-340h-60v325q0 149 -135 149q-48 0 -97.5 -26.5t-80.5 -63.5v-384h-60v518h60v-71q87 83 191 83zM370 759l48 -40l-149 -138l-36 31z" />
    <glyph glyph-name="Ncommaaccent" unicode="&#x145;" horiz-adv-x="697" 
d="M83 0v700h65l402 -594v594h64v-700h-64l-403 594v-594h-64zM293 -241l60 193l55 -19l-71 -189z" />
    <glyph glyph-name="ncommaaccent" unicode="&#x146;" horiz-adv-x="575" 
d="M324 530q85 0 133.5 -49t48.5 -141v-340h-60v325q0 149 -135 149q-48 0 -97.5 -26.5t-80.5 -63.5v-384h-60v518h60v-71q87 83 191 83zM218 -241l60 193l55 -19l-71 -189z" />
    <glyph glyph-name="Ncaron" unicode="&#x147;" horiz-adv-x="697" 
d="M83 0v700h65l402 -594v594h64v-700h-64l-403 594v-594h-64zM370 762h-44l-134 145l35 30l121 -118l121 118l35 -30z" />
    <glyph glyph-name="ncaron" unicode="&#x148;" horiz-adv-x="575" 
d="M324 530q85 0 133.5 -49t48.5 -141v-340h-60v325q0 149 -135 149q-48 0 -97.5 -26.5t-80.5 -63.5v-384h-60v518h60v-71q87 83 191 83zM310 588h-44l-134 145l35 30l121 -118l121 118l35 -30z" />
    <glyph glyph-name="napostrophe" unicode="&#x149;" horiz-adv-x="613" 
d="M362 530q85 0 133.5 -49t48.5 -141v-340h-60v325q0 149 -135 149q-48 0 -97.5 -26.5t-80.5 -63.5v-384h-60v518h60v-71q87 83 191 83zM62 739l59 -19l-87 -226l-44 12z" />
    <glyph glyph-name="Eng" unicode="&#x14a;" horiz-adv-x="697" 
d="M83 0v700h65l402 -594v594h64v-774q0 -80 -39 -115t-116 -35q-17 0 -37 2v59q22 -3 41 -3q47 0 67 21.5t20 75.5v69l-403 594v-594h-64z" />
    <glyph glyph-name="eng" unicode="&#x14b;" horiz-adv-x="575" 
d="M324 530q85 0 133.5 -49t48.5 -141v-414q0 -80 -39.5 -115t-116.5 -35q-18 0 -36 2v57q21 -3 40 -3q48 0 70 22.5t22 76.5v394q0 149 -135 149q-48 0 -97.5 -26.5t-80.5 -63.5v-384h-60v518h60v-71q87 83 191 83z" />
    <glyph glyph-name="Omacron" unicode="&#x14c;" horiz-adv-x="708" 
d="M660 350q0 -157 -82.5 -259.5t-223.5 -102.5t-223.5 102.5t-82.5 259.5t82.5 259.5t223.5 102.5t223.5 -102.5t82.5 -259.5zM114 350q0 -137 65 -219.5t175 -82.5t175 82.5t65 219.5t-65 219.5t-175 82.5t-175 -82.5t-65 -219.5zM211 816v54h286v-54h-286z" />
    <glyph glyph-name="omacron" unicode="&#x14d;" horiz-adv-x="576" 
d="M471 259q0 98 -50 156.5t-133 58.5t-133 -58.5t-50 -156.5t50 -156.5t133 -58.5t133 58.5t50 156.5zM533 259q0 -119 -68 -195t-177 -76t-177 76t-68 195t68 195t177 76t177 -76t68 -195zM146 642v54h286v-54h-286z" />
    <glyph glyph-name="Obreve" unicode="&#x14e;" horiz-adv-x="708" 
d="M660 350q0 -157 -82.5 -259.5t-223.5 -102.5t-223.5 102.5t-82.5 259.5t82.5 259.5t223.5 102.5t223.5 -102.5t82.5 -259.5zM114 350q0 -137 65 -219.5t175 -82.5t175 82.5t65 219.5t-65 219.5t-175 82.5t-175 -82.5t-65 -219.5zM354 820q78 0 107 91l45 -12
q-16 -60 -55.5 -94t-96.5 -34t-96.5 34t-55.5 94l45 12q29 -91 107 -91z" />
    <glyph glyph-name="obreve" unicode="&#x14f;" horiz-adv-x="576" 
d="M471 259q0 -98 -50 -156.5t-133 -58.5t-133 58.5t-50 156.5t50 156.5t133 58.5t133 -58.5t50 -156.5zM533 259q0 119 -68 195t-177 76t-177 -76t-68 -195t68 -195t177 -76t177 76t68 195zM288 648q78 0 107 91l45 -12q-16 -60 -55.5 -94t-96.5 -34t-96.5 34t-55.5 94
l45 12q29 -91 107 -91z" />
    <glyph glyph-name="Ohungarumlaut" unicode="&#x150;" horiz-adv-x="708" 
d="M660 350q0 -157 -82.5 -259.5t-223.5 -102.5t-223.5 102.5t-82.5 259.5t82.5 259.5t223.5 102.5t223.5 -102.5t82.5 -259.5zM114 350q0 -137 65 -219.5t175 -82.5t175 82.5t65 219.5t-65 219.5t-175 82.5t-175 -82.5t-65 -219.5zM351 926l47 -38l-125 -139l-41 29z
M517 926l48 -38l-147 -139l-40 29z" />
    <glyph glyph-name="ohungarumlaut" unicode="&#x151;" horiz-adv-x="576" 
d="M471 259q0 -98 -50 -156.5t-133 -58.5t-133 58.5t-50 156.5t50 156.5t133 58.5t133 -58.5t50 -156.5zM533 259q0 119 -68 195t-177 76t-177 -76t-68 -195t68 -195t177 -76t177 76t68 195zM268 752l47 -38l-125 -139l-41 29zM434 752l48 -38l-147 -139l-40 29z" />
    <glyph glyph-name="OE" unicode="&#x152;" horiz-adv-x="829" 
d="M786 0h-405q-151 0 -242 94.5t-91 255.5q0 160 91 255t242 95h396v-58h-307v-251h270v-58h-270v-275h316v-58zM406 58v584h-25q-120 0 -193.5 -76.5t-73.5 -215.5q0 -140 73.5 -216t193.5 -76h25z" />
    <glyph glyph-name="oe" unicode="&#x153;" horiz-adv-x="993" 
d="M728 -12q-77 0 -135 36t-90 101q-29 -66 -85 -101.5t-130 -35.5q-109 0 -177 76t-68 195t68 195t177 76q73 0 128.5 -35t85.5 -100q30 65 84.5 100t125.5 35q104 0 171 -75.5t67 -193.5q0 -20 -1 -27h-414q6 -84 57 -137t133 -53q93 0 154 74l46 -33q-75 -97 -197 -97z
M471 259q0 100 -50.5 157.5t-132.5 57.5q-83 0 -133 -58.5t-50 -156.5t50 -156.5t133 -58.5t133 58t50 157zM535 288h352q-4 83 -54 134.5t-122 51.5t-122 -51.5t-54 -134.5z" />
    <glyph glyph-name="Racute" unicode="&#x154;" horiz-adv-x="613" 
d="M550 500q0 -149 -159 -189l201 -311h-74l-195 302q-23 -1 -71 -1h-105v-301h-64v700h217q119 0 184.5 -53t65.5 -147zM484 500q0 142 -190 142h-147v-283h147q94 0 142 36t48 105zM332 933l48 -40l-149 -138l-36 31z" />
    <glyph glyph-name="racute" unicode="&#x155;" horiz-adv-x="355" 
d="M294 474q-48 0 -92 -25t-69 -65v-384h-60v518h60v-70q66 82 170 82q12 0 34 -2v-56q-28 2 -43 2zM255 759l48 -40l-149 -138l-36 31z" />
    <glyph glyph-name="Rcommaaccent" unicode="&#x156;" horiz-adv-x="613" 
d="M550 500q0 -149 -159 -189l201 -311h-74l-195 302q-23 -1 -71 -1h-105v-301h-64v700h217q119 0 184.5 -53t65.5 -147zM484 500q0 142 -190 142h-147v-283h147q94 0 142 36t48 105zM258 -241l60 193l55 -19l-71 -189z" />
    <glyph glyph-name="rcommaaccent" unicode="&#x157;" horiz-adv-x="355" 
d="M294 474q-48 0 -92 -25t-69 -65v-384h-60v518h60v-70q66 82 170 82q12 0 34 -2v-56q-28 2 -43 2zM21 -241l60 193l55 -19l-71 -189z" />
    <glyph glyph-name="Rcaron" unicode="&#x158;" horiz-adv-x="613" 
d="M550 500q0 -149 -159 -189l201 -311h-74l-195 302q-23 -1 -71 -1h-105v-301h-64v700h217q119 0 184.5 -53t65.5 -147zM484 500q0 142 -190 142h-147v-283h147q94 0 142 36t48 105zM299 762h-44l-134 145l35 30l121 -118l121 118l35 -30z" />
    <glyph glyph-name="rcaron" unicode="&#x159;" horiz-adv-x="355" 
d="M294 474q-48 0 -92 -25t-69 -65v-384h-60v518h60v-70q66 82 170 82q12 0 34 -2v-56q-28 2 -43 2zM212 588h-44l-134 145l35 30l121 -118l121 118l35 -30z" />
    <glyph glyph-name="Sacute" unicode="&#x15a;" horiz-adv-x="589" 
d="M309 48q76 0 121 36t45 93q0 63 -44 98.5t-153 66.5q-114 32 -161.5 78.5t-47.5 116.5q0 79 55.5 127t154.5 48q140 0 237 -105l-48 -39q-82 84 -188 84q-71 0 -108 -30t-37 -81q0 -94 166 -141q128 -36 184 -84t56 -135t-60.5 -140t-167.5 -53q-161 0 -275 112l51 42
q96 -94 220 -94zM370 933l48 -40l-149 -138l-36 31z" />
    <glyph glyph-name="sacute" unicode="&#x15b;" horiz-adv-x="489" 
d="M252 44q62 0 97 24.5t35 65.5q0 42 -34.5 68t-113.5 46q-98 25 -138 58.5t-40 91.5q0 60 46.5 96t129.5 36q110 0 185 -72l-42 -40q-62 56 -143 56q-51 0 -82.5 -20.5t-31.5 -55.5q0 -34 30 -54t114 -43q97 -27 139.5 -64.5t42.5 -98.5q0 -69 -50.5 -109.5t-141.5 -40.5
q-135 0 -223 91l44 42q75 -77 177 -77zM311 759l48 -40l-149 -138l-36 31z" />
    <glyph glyph-name="Scircumflex" unicode="&#x15c;" horiz-adv-x="589" 
d="M309 48q76 0 121 36t45 93q0 63 -44 98.5t-153 66.5q-114 32 -161.5 78.5t-47.5 116.5q0 79 55.5 127t154.5 48q140 0 237 -105l-48 -39q-82 84 -188 84q-71 0 -108 -30t-37 -81q0 -94 166 -141q128 -36 184 -84t56 -135t-60.5 -140t-167.5 -53q-161 0 -275 112l51 42
q96 -94 220 -94zM275 924h44l134 -145l-35 -30l-121 118l-121 -118l-35 30z" />
    <glyph glyph-name="scircumflex" unicode="&#x15d;" horiz-adv-x="489" 
d="M252 44q62 0 97 24.5t35 65.5q0 42 -34.5 68t-113.5 46q-98 25 -138 58.5t-40 91.5q0 60 46.5 96t129.5 36q110 0 185 -72l-42 -40q-62 56 -143 56q-51 0 -82.5 -20.5t-31.5 -55.5q0 -34 30 -54t114 -43q97 -27 139.5 -64.5t42.5 -98.5q0 -69 -50.5 -109.5t-141.5 -40.5
q-135 0 -223 91l44 42q75 -77 177 -77zM213 750h44l134 -145l-35 -30l-121 118l-121 -118l-35 30z" />
    <glyph glyph-name="Scedilla" unicode="&#x15e;" horiz-adv-x="589" 
d="M284 -191q29 0 45.5 13t16.5 35q0 57 -94 60l-5 7l32 66q-143 12 -241 110l51 42q96 -94 220 -94q76 0 121 36t45 93q0 63 -44 98.5t-153 66.5q-114 32 -161.5 78.5t-47.5 116.5q0 79 55.5 127t154.5 48q140 0 237 -105l-48 -39q-82 84 -188 84q-71 0 -108 -30t-37 -81
q0 -94 166 -141q128 -36 184 -84t56 -135q0 -83 -55.5 -135.5t-154.5 -56.5l-19 -40q43 -8 66.5 -33t23.5 -61q0 -39 -30 -66t-87 -27q-55 0 -91 34l30 36q26 -23 60 -23z" />
    <glyph glyph-name="scedilla" unicode="&#x15f;" horiz-adv-x="489" 
d="M233 -191q29 0 45.5 13t16.5 35q0 57 -94 60l-5 7l31 65q-119 10 -196 90l44 42q75 -77 177 -77q62 0 97 24.5t35 65.5q0 42 -34.5 68t-113.5 46q-98 25 -138 58.5t-40 91.5q0 60 46.5 96t129.5 36q110 0 185 -72l-42 -40q-62 56 -143 56q-51 0 -82.5 -20.5t-31.5 -55.5
q0 -34 30 -54t114 -43q97 -27 139.5 -64.5t42.5 -98.5q0 -64 -43 -103.5t-123 -45.5l-19 -40q43 -8 66.5 -33t23.5 -61q0 -39 -30 -66t-87 -27q-55 0 -91 34l30 36q26 -23 60 -23z" />
    <glyph glyph-name="Scaron" unicode="&#x160;" horiz-adv-x="589" 
d="M309 48q76 0 121 36t45 93q0 63 -44 98.5t-153 66.5q-114 32 -161.5 78.5t-47.5 116.5q0 79 55.5 127t154.5 48q140 0 237 -105l-48 -39q-82 84 -188 84q-71 0 -108 -30t-37 -81q0 -94 166 -141q128 -36 184 -84t56 -135t-60.5 -140t-167.5 -53q-161 0 -275 112l51 42
q96 -94 220 -94zM315 762h-44l-134 145l35 30l121 -118l121 118l35 -30z" />
    <glyph glyph-name="scaron" unicode="&#x161;" horiz-adv-x="489" 
d="M252 44q62 0 97 24.5t35 65.5q0 42 -34.5 68t-113.5 46q-98 25 -138 58.5t-40 91.5q0 60 46.5 96t129.5 36q110 0 185 -72l-42 -40q-62 56 -143 56q-51 0 -82.5 -20.5t-31.5 -55.5q0 -34 30 -54t114 -43q97 -27 139.5 -64.5t42.5 -98.5q0 -69 -50.5 -109.5t-141.5 -40.5
q-135 0 -223 91l44 42q75 -77 177 -77zM262 588h-44l-134 145l35 30l121 -118l121 118l35 -30z" />
    <glyph glyph-name="Tcommaaccent" unicode="&#x162;" horiz-adv-x="549" 
d="M243 0v642h-225v58h513v-58h-224v-642h-6l-25 -51q43 -8 66.5 -33t23.5 -61q0 -39 -30 -66t-87 -27q-55 0 -91 34l30 36q26 -23 60 -23q29 0 45.5 13t16.5 35q0 57 -94 60l-5 7l37 76h-5z" />
    <glyph glyph-name="tcommaaccent" unicode="&#x163;" horiz-adv-x="347" 
d="M182 -191q29 0 45.5 13t16.5 35q0 57 -94 60l-5 7l40 82q-65 34 -65 134v324h-103v54h103v155h60v-155h140v-54h-140v-320q0 -54 22.5 -77t71.5 -23q19 0 45 2v-56q-22 -2 -41 -2t-47 4l-21 -43q43 -8 66.5 -33t23.5 -61q0 -39 -30 -66t-87 -27q-55 0 -91 34l30 36
q26 -23 60 -23z" />
    <glyph glyph-name="Tcaron" unicode="&#x164;" horiz-adv-x="549" 
d="M243 0v642h-225v58h513v-58h-224v-642h-64zM296 762h-44l-134 145l35 30l121 -118l121 118l35 -30z" />
    <glyph glyph-name="tcaron" unicode="&#x165;" horiz-adv-x="467" 
d="M278 -12q-77 0 -117.5 36t-40.5 116v324h-103v54h103v155h60v-155h140v-54h-140v-320q0 -54 22.5 -77t71.5 -23q19 0 45 2v-56q-22 -2 -41 -2zM418 739l59 -19l-87 -226l-44 12z" />
    <glyph glyph-name="Tbar" unicode="&#x166;" horiz-adv-x="549" 
d="M84 377h159v265h-225v58h513v-58h-224v-265h159v-53h-159v-324h-64v324h-159v53z" />
    <glyph glyph-name="tbar" unicode="&#x167;" horiz-adv-x="347" 
d="M34 321h86v143h-103v54h103v155h60v-155h140v-54h-140v-143h122v-50h-122v-127q0 -54 22.5 -77t71.5 -23q19 0 45 2v-56q-22 -2 -41 -2q-77 0 -117.5 36t-40.5 116v131h-86v50z" />
    <glyph glyph-name="Utilde" unicode="&#x168;" horiz-adv-x="708" 
d="M354 48q101 0 154 57.5t53 169.5v425h64v-429q0 -139 -74.5 -211t-196.5 -72t-196.5 72t-74.5 211v429h64v-425q0 -112 53 -169.5t154 -57.5zM342 822q-29 27 -55 27q-33 0 -48 -52l-46 8q23 93 95 93q42 0 78 -33q29 -27 55 -27q33 0 48 52l46 -8q-23 -93 -95 -93
q-42 0 -78 33z" />
    <glyph glyph-name="utilde" unicode="&#x169;" horiz-adv-x="570" 
d="M285 44q-72 0 -114.5 44t-42.5 129v301h-60v-306q0 -111 58.5 -167.5t158.5 -56.5t158.5 56.5t58.5 167.5v306h-60v-301q0 -85 -42.5 -129t-114.5 -44zM273 648q-29 27 -55 27q-33 0 -48 -52l-46 8q23 93 95 93q42 0 78 -33q29 -27 55 -27q33 0 48 52l46 -8
q-23 -93 -95 -93q-42 0 -78 33z" />
    <glyph glyph-name="Umacron" unicode="&#x16a;" horiz-adv-x="708" 
d="M354 48q101 0 154 57.5t53 169.5v425h64v-429q0 -139 -74.5 -211t-196.5 -72t-196.5 72t-74.5 211v429h64v-425q0 -112 53 -169.5t154 -57.5zM211 816v54h286v-54h-286z" />
    <glyph glyph-name="umacron" unicode="&#x16b;" horiz-adv-x="570" 
d="M285 44q72 0 114.5 44t42.5 129v301h60v-306q0 -111 -58.5 -167.5t-158.5 -56.5t-158.5 56.5t-58.5 167.5v306h60v-301q0 -85 42.5 -129t114.5 -44zM142 642v54h286v-54h-286z" />
    <glyph glyph-name="Ubreve" unicode="&#x16c;" horiz-adv-x="708" 
d="M354 48q-101 0 -154 57.5t-53 169.5v425h-64v-429q0 -139 74.5 -211t196.5 -72t196.5 72t74.5 211v429h-64v-425q0 -112 -53 -169.5t-154 -57.5zM354 820q78 0 107 91l45 -12q-16 -60 -55.5 -94t-96.5 -34t-96.5 34t-55.5 94l45 12q29 -91 107 -91z" />
    <glyph glyph-name="ubreve" unicode="&#x16d;" horiz-adv-x="570" 
d="M285 44q-72 0 -114.5 44t-42.5 129v301h-60v-306q0 -111 58.5 -167.5t158.5 -56.5t158.5 56.5t58.5 167.5v306h-60v-301q0 -85 -42.5 -129t-114.5 -44zM285 648q78 0 107 91l45 -12q-16 -60 -55.5 -94t-96.5 -34t-96.5 34t-55.5 94l45 12q29 -91 107 -91z" />
    <glyph glyph-name="Uring" unicode="&#x16e;" horiz-adv-x="708" 
d="M354 48q-101 0 -154 57.5t-53 169.5v425h-64v-429q0 -139 74.5 -211t196.5 -72t196.5 72t74.5 211v429h-64v-425q0 -112 -53 -169.5t-154 -57.5zM303 843q0 -22 14.5 -37t36.5 -15t36.5 15t14.5 37t-14.5 37t-36.5 15t-36.5 -15t-14.5 -37zM255 843q0 40 29 68.5t70 28.5
t70 -28.5t29 -68.5t-29 -68.5t-70 -28.5t-70 28.5t-29 68.5z" />
    <glyph glyph-name="uring" unicode="&#x16f;" horiz-adv-x="570" 
d="M285 44q72 0 114.5 44t42.5 129v301h60v-306q0 -111 -58.5 -167.5t-158.5 -56.5t-158.5 56.5t-58.5 167.5v306h60v-301q0 -85 42.5 -129t114.5 -44zM234 669q0 -22 14.5 -37t36.5 -15t36.5 15t14.5 37t-14.5 37t-36.5 15t-36.5 -15t-14.5 -37zM186 669q0 40 29 68.5
t70 28.5t70 -28.5t29 -68.5t-29 -68.5t-70 -28.5t-70 28.5t-29 68.5z" />
    <glyph glyph-name="Uhungarumlaut" unicode="&#x170;" horiz-adv-x="708" 
d="M354 48q-101 0 -154 57.5t-53 169.5v425h-64v-429q0 -139 74.5 -211t196.5 -72t196.5 72t74.5 211v429h-64v-425q0 -112 -53 -169.5t-154 -57.5zM360 926l47 -38l-125 -139l-41 29zM526 926l48 -38l-147 -139l-40 29z" />
    <glyph glyph-name="uhungarumlaut" unicode="&#x171;" horiz-adv-x="570" 
d="M285 44q-72 0 -114.5 44t-42.5 129v301h-60v-306q0 -111 58.5 -167.5t158.5 -56.5t158.5 56.5t58.5 167.5v306h-60v-301q0 -85 -42.5 -129t-114.5 -44zM274 752l47 -38l-125 -139l-41 29zM440 752l48 -38l-147 -139l-40 29z" />
    <glyph glyph-name="Uogonek" unicode="&#x172;" horiz-adv-x="708" 
d="M354 48q101 0 154 57.5t53 169.5v425h64v-429q0 -127 -63.5 -198.5t-169.5 -82.5q-56 -47 -56 -100q0 -27 16.5 -43.5t41.5 -16.5q33 0 57 24l29 -36q-42 -37 -94 -37q-48 0 -77 29.5t-29 71.5q0 59 54 107q-114 5 -182.5 77t-68.5 205v429h64v-425q0 -112 53 -169.5
t154 -57.5z" />
    <glyph glyph-name="uogonek" unicode="&#x173;" horiz-adv-x="570" 
d="M284 44q72 0 115 44t43 129v301h60v-306q0 -95 -43.5 -150.5t-120.5 -68.5q-59 -48 -59 -103q0 -27 16.5 -43.5t41.5 -16.5q33 0 57 24l29 -36q-42 -37 -94 -37q-48 0 -77 29.5t-29 71.5q0 59 53 106q-97 2 -152.5 58.5t-55.5 165.5v306h60v-301q0 -85 42 -129t114 -44z
" />
    <glyph glyph-name="Wcircumflex" unicode="&#x174;" horiz-adv-x="988" 
d="M290 75l165 625h78l165 -625l197 625h70l-224 -700h-85l-162 619l-162 -619h-85l-224 700h70zM472 924h44l134 -145l-35 -30l-121 118l-121 -118l-35 30z" />
    <glyph glyph-name="wcircumflex" unicode="&#x175;" horiz-adv-x="778" 
d="M225 76l134 442h60l134 -442l139 442h68l-176 -518h-62l-133 436l-133 -436h-62l-176 518h68zM367 750h44l134 -145l-35 -30l-121 118l-121 -118l-35 30z" />
    <glyph glyph-name="Ycircumflex" unicode="&#x176;" horiz-adv-x="590" 
d="M263 0v278l-245 422h72l205 -354l205 354h72l-245 -422v-278h-64zM273 924h44l134 -145l-35 -30l-121 118l-121 -118l-35 30z" />
    <glyph glyph-name="ycircumflex" unicode="&#x177;" horiz-adv-x="506" 
d="M82 518l178 -432l165 432h63l-279 -730h-62l82 216l-211 514h64zM231 750h44l134 -145l-35 -30l-121 118l-121 -118l-35 30z" />
    <glyph glyph-name="Ydieresis" unicode="&#x178;" horiz-adv-x="590" 
d="M263 0v278l-245 422h72l205 -354l205 354h72l-245 -422v-278h-64zM154 843q0 19 13 32t32 13t32 -13t13 -32t-13 -32t-32 -13t-32 13t-13 32zM346 843q0 19 13 32t32 13t32 -13t13 -32t-13 -32t-32 -13t-32 13t-13 32z" />
    <glyph glyph-name="Zacute" unicode="&#x179;" horiz-adv-x="560" 
d="M33 55l406 587h-387v58h465v-55l-406 -587h416v-58h-494v55zM357 933l48 -40l-149 -138l-36 31z" />
    <glyph glyph-name="zacute" unicode="&#x17a;" horiz-adv-x="466" 
d="M28 0v50l323 416h-306v52h383v-50l-323 -416h333v-52h-410zM309 759l48 -40l-149 -138l-36 31z" />
    <glyph glyph-name="Zdotaccent" unicode="&#x17b;" horiz-adv-x="560" 
d="M33 55l406 587h-387v58h465v-55l-406 -587h416v-58h-494v55zM231 843q0 18 13.5 31.5t31.5 13.5t31.5 -13.5t13.5 -31.5t-13.5 -31.5t-31.5 -13.5t-31.5 13.5t-13.5 31.5z" />
    <glyph glyph-name="zdotaccent" unicode="&#x17c;" horiz-adv-x="466" 
d="M28 0v50l323 416h-306v52h383v-50l-323 -416h333v-52h-410zM184 669q0 18 13.5 31.5t31.5 13.5t31.5 -13.5t13.5 -31.5t-13.5 -31.5t-31.5 -13.5t-31.5 13.5t-13.5 31.5z" />
    <glyph glyph-name="Zcaron" unicode="&#x17d;" horiz-adv-x="560" 
d="M33 55l406 587h-387v58h465v-55l-406 -587h416v-58h-494v55zM303 762h-44l-134 145l35 30l121 -118l121 118l35 -30z" />
    <glyph glyph-name="zcaron" unicode="&#x17e;" horiz-adv-x="466" 
d="M28 0v50l323 416h-306v52h383v-50l-323 -416h333v-52h-410zM256 588h-44l-134 145l35 30l121 -118l121 118l35 -30z" />
    <glyph glyph-name="longs" unicode="&#x17f;" horiz-adv-x="347" 
d="M276 730q32 0 54 -3v-56q-26 3 -54 3q-50 0 -73 -22.5t-23 -77.5v-574h-60v464h-103v54h103v60q0 81 38 116.5t118 35.5z" />
    <glyph glyph-name="uni0191" unicode="&#x191;" horiz-adv-x="532" 
d="M83 700h426v-58h-362v-264h328v-58h-328v-394q0 -80 -39.5 -115t-117.5 -35q-17 0 -37 2v59q21 -3 40 -3q48 0 69 21.5t21 75.5v769z" />
    <glyph glyph-name="florin" unicode="&#x192;" horiz-adv-x="347" 
d="M276 730q32 0 54 -3v-56q-26 3 -54 3q-50 0 -73 -22.5t-23 -77.5v-56h140v-54h-140v-525q0 -81 -38 -116.5t-118 -35.5q-32 0 -54 3v56q26 -3 54 -3q50 0 73 22.5t23 77.5v521h-103v54h103v60q0 81 38 116.5t118 35.5z" />
    <glyph glyph-name="Aringacute" unicode="&#x1fa;" horiz-adv-x="666" 
d="M234 742q0 40 29 68.5t70 28.5t70 -28.5t29 -68.5q0 -55 -48 -83l259 -659h-71l-73 191h-332l-73 -191h-71l259 658q-48 28 -48 84zM333 632l-146 -384h292zM282 742q0 -22 14.5 -37t36.5 -15t36.5 15t14.5 37t-14.5 37t-36.5 15t-36.5 -15t-14.5 -37zM406 997l37 -45
l-142 -89l-28 34z" />
    <glyph glyph-name="aringacute" unicode="&#x1fb;" horiz-adv-x="539" 
d="M226 669q0 -22 14.5 -37t36.5 -15t36.5 15t14.5 37t-14.5 37t-36.5 15t-36.5 -15t-14.5 -37zM178 669q0 40 29 68.5t70 28.5t70 -28.5t29 -68.5t-29 -68.5t-70 -28.5t-70 28.5t-29 68.5zM350 924l37 -45l-142 -89l-28 34zM42 154q0 72 54.5 119t144.5 47q93 0 169 -58v76
q0 68 -34.5 102t-113.5 34q-83 0 -152 -56l-38 41q85 71 197 71q96 0 148.5 -46t52.5 -132v-352h-60v57q-73 -69 -169 -69q-90 0 -144.5 47t-54.5 119zM248 264q-66 0 -105 -28.5t-39 -81.5q0 -52 39 -81t105 -29q92 0 162 67v94q-69 59 -162 59z" />
    <glyph glyph-name="AEacute" unicode="&#x1fc;" horiz-adv-x="859" 
d="M816 0h-380v191h-239l-101 -191h-73l377 700h407v-58h-307v-251h270v-58h-270v-275h316v-58zM436 639l-208 -390h208v390zM611 933l48 -40l-149 -138l-36 31z" />
    <glyph glyph-name="aeacute" unicode="&#x1fd;" horiz-adv-x="928" 
d="M667 -12q-70 0 -128 32t-92 93q-27 -59 -82.5 -92t-123.5 -33q-90 0 -144.5 47t-54.5 119t54.5 119t144.5 47q93 0 169 -58v76q0 68 -34.5 102t-113.5 34q-83 0 -152 -56l-38 41q85 71 197 71q73 0 123 -28.5t66 -82.5q27 51 78 81t115 30q104 0 171 -75.5t67 -193.5
q0 -20 -1 -27h-414q6 -84 57 -137t133 -53q93 0 154 74l46 -33q-75 -97 -197 -97zM410 187v17q-67 60 -162 60q-66 0 -105 -28.5t-39 -81.5q0 -52 38.5 -81t100.5 -29q66 0 116.5 42.5t50.5 100.5zM474 288h352q-4 83 -54 134.5t-122 51.5t-122 -51.5t-54 -134.5zM549 759
l48 -40l-149 -138l-36 31z" />
    <glyph glyph-name="Oslashacute" unicode="&#x1fe;" horiz-adv-x="708" 
d="M71 -7l64 91q-87 101 -87 266q0 157 82.5 259.5t223.5 102.5q105 0 181 -60l60 85l43 -29l-65 -93q87 -101 87 -265q0 -157 -82.5 -259.5t-223.5 -102.5q-106 0 -181 61l-60 -85zM594 350q0 130 -59 212l-327 -463q60 -51 146 -51q110 0 175 82.5t65 219.5zM114 350
q0 -131 59 -212l326 463q-60 51 -145 51q-110 0 -175 -82.5t-65 -219.5zM422 933l48 -40l-149 -138l-36 31z" />
    <glyph glyph-name="oslashacute" unicode="&#x1ff;" horiz-adv-x="575" 
d="M470 560l-49 -69q-58 39 -133 39q-109 0 -177 -76t-68 -195q0 -124 73 -200l-51 -72l42 -29l48 68q56 -38 133 -38q109 0 177 76t68 195q0 123 -73 199l52 73zM288 474q56 0 100 -30l-238 -337q-45 57 -45 152q0 98 50 156.5t133 58.5zM471 259q0 -98 -50 -156.5
t-133 -58.5q-59 0 -100 29l238 337q45 -57 45 -151zM358 759l48 -40l-149 -138l-36 31z" />
    <glyph glyph-name="Scommaaccent" unicode="&#x218;" horiz-adv-x="589" 
d="M309 48q76 0 121 36t45 93q0 63 -44 98.5t-153 66.5q-114 32 -161.5 78.5t-47.5 116.5q0 79 55.5 127t154.5 48q140 0 237 -105l-48 -39q-82 84 -188 84q-71 0 -108 -30t-37 -81q0 -94 166 -141q128 -36 184 -84t56 -135t-60.5 -140t-167.5 -53q-161 0 -275 112l51 42
q96 -94 220 -94zM227 -241l60 193l55 -19l-71 -189z" />
    <glyph glyph-name="scommaaccent" unicode="&#x219;" horiz-adv-x="489" 
d="M252 44q62 0 97 24.5t35 65.5q0 42 -34.5 68t-113.5 46q-98 25 -138 58.5t-40 91.5q0 60 46.5 96t129.5 36q110 0 185 -72l-42 -40q-62 56 -143 56q-51 0 -82.5 -20.5t-31.5 -55.5q0 -34 30 -54t114 -43q97 -27 139.5 -64.5t42.5 -98.5q0 -69 -50.5 -109.5t-141.5 -40.5
q-135 0 -223 91l44 42q75 -77 177 -77zM187 -241l60 193l55 -19l-71 -189z" />
    <glyph glyph-name="uni021A" unicode="&#x21a;" horiz-adv-x="549" 
d="M243 0v642h-225v58h513v-58h-224v-642h-64zM188 -241l60 193l55 -19l-71 -189z" />
    <glyph glyph-name="uni021B" unicode="&#x21b;" horiz-adv-x="347" 
d="M278 -12q-77 0 -117.5 36t-40.5 116v324h-103v54h103v155h60v-155h140v-54h-140v-320q0 -54 22.5 -77t71.5 -23q19 0 45 2v-56q-22 -2 -41 -2zM141 -241l60 193l55 -19l-71 -189z" />
    <glyph glyph-name="dotlessj" unicode="&#x237;" horiz-adv-x="220" 
d="M80 -69v587h60v-592q0 -81 -38.5 -115.5t-115.5 -34.5q-17 0 -37 2v56q22 -2 40 -2q48 0 69.5 22.5t21.5 76.5z" />
    <glyph glyph-name="apostrophe" unicode="&#x2bc;" horiz-adv-x="400" 
d="M206 747l59 -19l-87 -226l-44 12z" />
    <glyph glyph-name="circumflex" unicode="&#x2c6;" horiz-adv-x="400" 
d="M178 730h44l134 -145l-35 -30l-121 118l-121 -118l-35 30z" />
    <glyph glyph-name="caron" unicode="&#x2c7;" horiz-adv-x="400" 
d="M222 568h-44l-134 145l35 30l121 -118l121 118l35 -30z" />
    <glyph glyph-name="uni02C9" unicode="&#x2c9;" horiz-adv-x="0" 
d="M57 621v54h286v-54h-286z" />
    <glyph glyph-name="breve" unicode="&#x2d8;" horiz-adv-x="400" 
d="M200 628q78 0 107 91l45 -12q-16 -60 -55.5 -94t-96.5 -34t-96.5 34t-55.5 94l45 12q29 -91 107 -91z" />
    <glyph glyph-name="dotaccent" unicode="&#x2d9;" horiz-adv-x="400" 
d="M155 649q0 18 13.5 31.5t31.5 13.5t31.5 -13.5t13.5 -31.5t-13.5 -31.5t-31.5 -13.5t-31.5 13.5t-13.5 31.5z" />
    <glyph glyph-name="ring" unicode="&#x2da;" horiz-adv-x="400" 
d="M149 649q0 -22 14.5 -37t36.5 -15t36.5 15t14.5 37t-14.5 37t-36.5 15t-36.5 -15t-14.5 -37zM101 649q0 40 29 68.5t70 28.5t70 -28.5t29 -68.5t-29 -68.5t-70 -28.5t-70 28.5t-29 68.5z" />
    <glyph glyph-name="ogonek" unicode="&#x2db;" horiz-adv-x="400" 
d="M193 0h56q-69 -52 -69 -110q0 -27 16.5 -43.5t41.5 -16.5q33 0 57 24l29 -36q-42 -37 -94 -37q-48 0 -77 29.5t-29 71.5q0 68 69 118z" />
    <glyph glyph-name="tilde" unicode="&#x2dc;" horiz-adv-x="400" 
d="M188 629q-29 27 -55 27q-33 0 -48 -52l-46 8q23 93 95 93q42 0 78 -33q29 -27 55 -27q33 0 48 52l46 -8q-23 -93 -95 -93q-42 0 -78 33z" />
    <glyph glyph-name="hungarumlaut" unicode="&#x2dd;" horiz-adv-x="400" 
d="M152 732l47 -38l-125 -139l-41 29zM318 732l48 -38l-147 -139l-40 29z" />
    <glyph glyph-name="gravecomb" unicode="&#x300;" horiz-adv-x="0" 
d="M-375 699l48 40l137 -147l-36 -31z" />
    <glyph glyph-name="acutecomb" unicode="&#x301;" horiz-adv-x="0" 
d="M-183 739l48 -40l-149 -138l-36 31z" />
    <glyph glyph-name="uni0302" unicode="&#x302;" horiz-adv-x="0" 
d="M-275 730h44l134 -145l-35 -30l-121 118l-121 -118l-35 30z" />
    <glyph glyph-name="tildecomb" unicode="&#x303;" horiz-adv-x="0" 
d="M-265 629q-29 27 -55 27q-33 0 -48 -52l-46 8q23 93 95 93q42 0 78 -33q29 -27 55 -27q33 0 48 52l46 -8q-23 -93 -95 -93q-42 0 -78 33z" />
    <glyph glyph-name="uni0304" unicode="&#x304;" horiz-adv-x="0" 
d="M-394 622v54h286v-54h-286z" />
    <glyph glyph-name="uni0306" unicode="&#x306;" horiz-adv-x="0" 
d="M-253 628q78 0 107 91l45 -12q-16 -60 -55.5 -94t-96.5 -34t-96.5 34t-55.5 94l45 12q29 -91 107 -91z" />
    <glyph glyph-name="uni0307" unicode="&#x307;" horiz-adv-x="0" 
d="M-298 649q0 18 13.5 31.5t31.5 13.5t31.5 -13.5t13.5 -31.5t-13.5 -31.5t-31.5 -13.5t-31.5 13.5t-13.5 31.5z" />
    <glyph glyph-name="uni0308" unicode="&#x308;" horiz-adv-x="0" 
d="M-394 649q0 19 13 32t32 13t32 -13t13 -32t-13 -32t-32 -13t-32 13t-13 32zM-202 649q0 19 13 32t32 13t32 -13t13 -32t-13 -32t-32 -13t-32 13t-13 32z" />
    <glyph glyph-name="uni030A" unicode="&#x30a;" horiz-adv-x="0" 
d="M-304 649q0 -22 14.5 -37t36.5 -15t36.5 15t14.5 37t-14.5 37t-36.5 15t-36.5 -15t-14.5 -37zM-352 649q0 40 29 68.5t70 28.5t70 -28.5t29 -68.5t-29 -68.5t-70 -28.5t-70 28.5t-29 68.5z" />
    <glyph glyph-name="uni030C" unicode="&#x30c;" horiz-adv-x="0" 
d="M-231 568h-44l-134 145l35 30l121 -118l121 118l35 -30z" />
    <glyph glyph-name="uni0327" unicode="&#x327;" horiz-adv-x="0" 
d="M-275 -191q29 0 45.5 13t16.5 35q0 57 -94 60l-5 7l37 76h53l-25 -51q43 -8 66.5 -33t23.5 -61q0 -39 -30 -66t-87 -27q-55 0 -91 34l30 36q26 -23 60 -23z" />
    <glyph glyph-name="uni03A9" unicode="&#x3a9;" horiz-adv-x="708" 
d="M354 654q-111 0 -175.5 -81.5t-64.5 -202.5q0 -193 178 -313v-57h-233v58h148q-159 115 -159 312q0 148 82 245t224 97t224 -97t82 -245q0 -197 -159 -312h148v-58h-233v57q178 120 178 313q0 121 -64.5 202.5t-175.5 81.5z" />
    <glyph glyph-name="uni0400" unicode="&#x400;" horiz-adv-x="561" 
d="M83 0v700h426v-58h-362v-251h325v-58h-325v-275h371v-58h-435zM182 893l48 40l137 -147l-36 -31z" />
    <glyph glyph-name="afii10023" unicode="&#x401;" horiz-adv-x="561" 
d="M83 0v700h426v-58h-362v-251h325v-58h-325v-275h371v-58h-435zM159 843q0 19 13 32t32 13t32 -13t13 -32t-13 -32t-32 -13t-32 13t-13 32zM351 843q0 19 13 32t32 13t32 -13t13 -32t-13 -32t-32 -13t-32 13t-13 32z" />
    <glyph glyph-name="afii10051" unicode="&#x402;" horiz-adv-x="745" 
d="M632 231q0 77 -41 125t-119 48q-90 0 -165 -60v-344h-64v642h-225v58h513v-58h-224v-243q77 61 170 61q101 0 161 -62.5t60 -161.5q0 -103 -56 -169.5t-154 -66.5h-21v58h17q71 0 109.5 50t38.5 123z" />
    <glyph glyph-name="afii10052" unicode="&#x403;" horiz-adv-x="525" 
d="M369 933l48 -40l-149 -138l-36 31zM83 0v700h424v-58h-360v-642h-64z" />
    <glyph glyph-name="afii10053" unicode="&#x404;" horiz-adv-x="680" 
d="M48 350q0 160 87.5 261t231.5 101q182 0 271 -141l-53 -33q-80 114 -216 114q-107 0 -177 -73.5t-77 -200.5h349v-57h-349q7 -127 77 -200t177 -73q136 0 216 114l53 -33q-89 -141 -271 -141q-144 0 -231.5 101t-87.5 261z" />
    <glyph glyph-name="afii10054" unicode="&#x405;" horiz-adv-x="589" 
d="M309 48q76 0 121 36t45 93q0 63 -44 98.5t-153 66.5q-114 32 -161.5 78.5t-47.5 116.5q0 79 55.5 127t154.5 48q140 0 237 -105l-48 -39q-82 84 -188 84q-71 0 -108 -30t-37 -81q0 -94 166 -141q128 -36 184 -84t56 -135t-60.5 -140t-167.5 -53q-161 0 -275 112l51 42
q96 -94 220 -94z" />
    <glyph glyph-name="afii10055" unicode="&#x406;" horiz-adv-x="240" 
d="M88 700h64v-700h-64v700z" />
    <glyph glyph-name="afii10056" unicode="&#x407;" horiz-adv-x="240" 
d="M88 700h64v-700h-64v700zM-21 843q0 19 13 32t32 13t32 -13t13 -32t-13 -32t-32 -13t-32 13t-13 32zM171 843q0 19 13 32t32 13t32 -13t13 -32t-13 -32t-32 -13t-32 13t-13 32z" />
    <glyph glyph-name="afii10057" unicode="&#x408;" horiz-adv-x="553" 
d="M254 48q71 0 111.5 48.5t40.5 135.5v468h64v-468q0 -116 -57 -180t-156 -64q-154 0 -225 135l52 31q60 -106 170 -106z" />
    <glyph glyph-name="afii10058" unicode="&#x409;" horiz-adv-x="1026" 
d="M605 700v-296h151q108 0 169 -54.5t61 -147.5t-61 -147.5t-169 -54.5h-215v642h-318v-498q0 -156 -159 -156q-26 0 -44 3v56q25 -3 48 -3q48 0 69.5 25t21.5 79v552h446zM920 202q0 69 -43 106.5t-130 37.5h-142v-288h142q87 0 130 37.5t43 106.5z" />
    <glyph glyph-name="afii10059" unicode="&#x40a;" horiz-adv-x="1008" 
d="M523 700h64v-296h151q108 0 169 -54.5t61 -147.5t-61 -147.5t-169 -54.5h-215v347h-375v-347h-65v700h65v-296h375v296zM902 202q0 69 -43 106.5t-130 37.5h-142v-288h142q87 0 130 37.5t43 106.5z" />
    <glyph glyph-name="afii10060" unicode="&#x40b;" horiz-adv-x="767" 
d="M472 404q-98 0 -165 -56v-348h-64v642h-225v58h513v-58h-224v-239q77 57 170 57q106 0 163.5 -59t57.5 -170v-231h-64v227q0 177 -162 177z" />
    <glyph glyph-name="afii10061" unicode="&#x40c;" horiz-adv-x="604" 
d="M147 700v-424l335 424h77l-226 -286l257 -414h-77l-221 364l-145 -184v-180h-64v700h64zM393 933l48 -40l-149 -138l-36 31z" />
    <glyph glyph-name="uni040D" unicode="&#x40d;" horiz-adv-x="697" 
d="M614 700v-700h-64v594l-403 -594h-64v700h64v-594l402 594h65zM222 893l48 40l137 -147l-36 -31z" />
    <glyph glyph-name="afii10062" unicode="&#x40e;" horiz-adv-x="589" 
d="M304 284l197 416h70l-333 -700h-69l102 216l-253 484h70zM290 820q78 0 107 91l45 -12q-16 -60 -55.5 -94t-96.5 -34t-96.5 34t-55.5 94l45 12q29 -91 107 -91z" />
    <glyph glyph-name="afii10145" unicode="&#x40f;" horiz-adv-x="690" 
d="M83 0v700h64v-643h396v643h64v-700h-230v-120h-64v120h-230z" />
    <glyph glyph-name="afii10017" unicode="&#x410;" horiz-adv-x="666" 
d="M298 700h70l275 -700h-71l-73 191h-332l-73 -191h-71zM333 632l-146 -383h292z" />
    <glyph glyph-name="afii10018" unicode="&#x411;" horiz-adv-x="568" 
d="M83 700h387v-57h-323v-239h151q108 0 169 -54.5t61 -147.5t-61 -147.5t-169 -54.5h-215v700zM462 202q0 69 -43 106.5t-130 37.5h-142v-288h142q87 0 130 37.5t43 106.5z" />
    <glyph glyph-name="afii10019" unicode="&#x412;" horiz-adv-x="618" 
d="M83 0v700h232q107 0 166 -50t59 -132q0 -56 -28.5 -96t-78.5 -53q68 -13 105 -58t37 -115q0 -93 -64 -144.5t-186 -51.5h-242zM147 393h176q72 0 111.5 33.5t39.5 91.5q0 61 -43 92.5t-125 31.5h-159v-249zM509 196q0 67 -45 103t-133 36h-184v-277h169q193 0 193 138z
" />
    <glyph glyph-name="afii10020" unicode="&#x413;" horiz-adv-x="525" 
d="M83 0v700h424v-58h-360v-642h-64z" />
    <glyph glyph-name="afii10021" unicode="&#x414;" horiz-adv-x="617" 
d="M593 58v-178h-64v120h-442v-120h-64v178h57q69 179 69 471v171h369v-642h75zM148 58h306v584h-241v-121q0 -269 -65 -463z" />
    <glyph glyph-name="afii10022" unicode="&#x415;" horiz-adv-x="561" 
d="M83 0v700h426v-58h-362v-251h325v-58h-325v-275h371v-58h-435z" />
    <glyph glyph-name="afii10024" unicode="&#x416;" horiz-adv-x="896" 
d="M416 288v412h64v-412l295 412h76l-211 -289l243 -411h-78l-204 357l-121 -166v-191h-64v191l-121 166l-204 -357h-78l243 411l-211 289h76z" />
    <glyph glyph-name="afii10025" unicode="&#x417;" horiz-adv-x="556" 
d="M276 652q-104 0 -178 -83l-47 39q95 104 226 104q96 0 152 -47t56 -126q0 -66 -40 -112.5t-98 -59.5q75 -18 116 -64.5t41 -118.5q0 -88 -61 -142t-169 -54q-155 0 -245 112l47 39q79 -91 195 -91q78 0 122.5 37.5t44.5 99.5q0 73 -53 113t-142 40h-66v57h66q78 0 127 37
t49 102q0 52 -37 85t-106 33z" />
    <glyph glyph-name="afii10026" unicode="&#x418;" horiz-adv-x="697" 
d="M614 700v-700h-64v594l-403 -594h-64v700h64v-594l402 594h65z" />
    <glyph glyph-name="afii10027" unicode="&#x419;" horiz-adv-x="697" 
d="M614 0v700h-65l-402 -594v594h-64v-700h64l403 594v-594h64zM355 820q78 0 107 91l45 -12q-16 -60 -55.5 -94t-96.5 -34t-96.5 34t-55.5 94l45 12q29 -91 107 -91z" />
    <glyph glyph-name="afii10028" unicode="&#x41a;" horiz-adv-x="604" 
d="M147 700v-424l335 424h77l-226 -286l257 -414h-77l-221 364l-145 -184v-180h-64v700h64z" />
    <glyph glyph-name="afii10029" unicode="&#x41b;" horiz-adv-x="709" 
d="M626 0h-64v642h-339v-498q0 -156 -158 -156q-21 0 -45 2v57q25 -3 48 -3q49 0 70 25t21 80v551h467v-700z" />
    <glyph glyph-name="afii10030" unicode="&#x41c;" horiz-adv-x="838" 
d="M398 138l-251 441v-579h-64v700h64l272 -476l272 476h64v-700h-64v579l-251 -441h-42z" />
    <glyph glyph-name="afii10031" unicode="&#x41d;" horiz-adv-x="691" 
d="M83 0v700h64v-298h397v298h64v-700h-64v344h-397v-344h-64z" />
    <glyph glyph-name="afii10032" unicode="&#x41e;" horiz-adv-x="708" 
d="M660 350q0 -157 -82.5 -259.5t-223.5 -102.5t-223.5 102.5t-82.5 259.5t82.5 259.5t223.5 102.5t223.5 -102.5t82.5 -259.5zM114 350q0 -137 65 -219.5t175 -82.5t175 82.5t65 219.5t-65 219.5t-175 82.5t-175 -82.5t-65 -219.5z" />
    <glyph glyph-name="afii10033" unicode="&#x41f;" horiz-adv-x="690" 
d="M83 0v700h524v-700h-64v642h-396v-642h-64z" />
    <glyph glyph-name="afii10034" unicode="&#x420;" horiz-adv-x="583" 
d="M544 486q0 -104 -67 -159t-192 -55h-138v-272h-64v700h202q125 0 192 -54.5t67 -159.5zM478 486q0 156 -199 156h-132v-312h132q199 0 199 156z" />
    <glyph glyph-name="afii10035" unicode="&#x421;" horiz-adv-x="680" 
d="M48 350q0 160 87.5 261t231.5 101q182 0 271 -141l-53 -33q-80 114 -216 114q-113 0 -184 -81.5t-71 -220.5t71 -220.5t184 -81.5q136 0 216 114l53 -33q-89 -141 -271 -141q-144 0 -231.5 101t-87.5 261z" />
    <glyph glyph-name="afii10036" unicode="&#x422;" horiz-adv-x="549" 
d="M243 0v642h-225v58h513v-58h-224v-642h-64z" />
    <glyph glyph-name="afii10037" unicode="&#x423;" horiz-adv-x="589" 
d="M304 284l197 416h70l-333 -700h-69l102 216l-253 484h70z" />
    <glyph glyph-name="afii10038" unicode="&#x424;" horiz-adv-x="708" 
d="M112 350q0 -86 57 -135.5t153 -52.5v375q-96 -3 -153 -52.5t-57 -134.5zM596 350q0 85 -57 134.5t-153 52.5v-375q96 3 153 52.5t57 135.5zM322 0v104q-125 5 -200.5 70.5t-75.5 175.5q0 109 75.5 174.5t200.5 70.5v105h64v-105q125 -5 200.5 -70.5t75.5 -174.5
q0 -110 -75.5 -175.5t-200.5 -70.5v-104h-64z" />
    <glyph glyph-name="afii10039" unicode="&#x425;" horiz-adv-x="590" 
d="M497 0l-202 308l-202 -308h-75l240 364l-220 336h74l183 -279l183 279h74l-220 -336l240 -364h-75z" />
    <glyph glyph-name="afii10040" unicode="&#x426;" horiz-adv-x="706" 
d="M607 58h76v-178h-64v120h-536v700h64v-642h396v642h64v-642z" />
    <glyph glyph-name="afii10041" unicode="&#x427;" horiz-adv-x="604" 
d="M457 700h64v-700h-64v299q-78 -54 -168 -54q-106 0 -163.5 58.5t-57.5 169.5v227h64v-222q0 -178 163 -178q94 0 162 55v345z" />
    <glyph glyph-name="afii10042" unicode="&#x428;" horiz-adv-x="820" 
d="M83 0v700h64v-642h231v642h64v-642h231v642h64v-700h-654z" />
    <glyph glyph-name="afii10043" unicode="&#x429;" horiz-adv-x="837" 
d="M83 0v700h64v-642h231v642h64v-642h231v642h64v-642h75v-178h-64v120h-665z" />
    <glyph glyph-name="afii10044" unicode="&#x42a;" horiz-adv-x="668" 
d="M20 700h227v-296h151q108 0 169 -54.5t61 -147.5t-61 -147.5t-169 -54.5h-215v643h-163v57zM562 202q0 69 -43 106.5t-130 37.5h-142v-288h142q87 0 130 37.5t43 106.5z" />
    <glyph glyph-name="afii10045" unicode="&#x42b;" horiz-adv-x="770" 
d="M623 700h64v-700h-64v700zM83 700h64v-296h151q108 0 169 -54.5t61 -147.5t-61 -147.5t-169 -54.5h-215v700zM462 202q0 69 -43 106.5t-130 37.5h-142v-288h142q87 0 130 37.5t43 106.5z" />
    <glyph glyph-name="afii10046" unicode="&#x42c;" horiz-adv-x="568" 
d="M83 700h64v-296h151q108 0 169 -54.5t61 -147.5t-61 -147.5t-169 -54.5h-215v700zM462 202q0 69 -43 106.5t-130 37.5h-142v-288h142q87 0 130 37.5t43 106.5z" />
    <glyph glyph-name="afii10047" unicode="&#x42d;" horiz-adv-x="680" 
d="M632 350q0 -160 -87.5 -261t-231.5 -101q-182 0 -271 141l53 33q80 -114 216 -114q107 0 177 73t77 200h-349v57h349q-7 127 -77 200.5t-177 73.5q-136 0 -216 -114l-53 33q89 141 271 141q144 0 231.5 -101t87.5 -261z" />
    <glyph glyph-name="afii10048" unicode="&#x42e;" horiz-adv-x="817" 
d="M83 700h65v-322h113q5 150 71.5 242t181.5 92q121 0 188 -100t67 -262t-67 -262t-188 -100q-115 0 -181.5 91.5t-71.5 241.5h-113v-321h-65v700zM327 350q0 -142 48.5 -223t138.5 -81t139 81t49 223t-49 223t-139 81t-138.5 -81t-48.5 -223z" />
    <glyph glyph-name="afii10049" unicode="&#x42f;" horiz-adv-x="613" 
d="M63 500q0 94 65.5 147t184.5 53h217v-700h-64v301h-105q-48 0 -71 1l-195 -302h-74l201 311q-159 40 -159 189zM129 500q0 -69 48 -105t142 -36h147v283h-147q-190 0 -190 -142z" />
    <glyph glyph-name="afii10065" unicode="&#x430;" horiz-adv-x="539" 
d="M42 154q0 72 54.5 119t144.5 47q93 0 169 -58v76q0 68 -34.5 102t-113.5 34q-83 0 -152 -56l-38 41q85 71 197 71q96 0 148.5 -46t52.5 -132v-352h-60v57q-73 -69 -169 -69q-90 0 -144.5 47t-54.5 119zM248 264q-66 0 -105 -28.5t-39 -81.5q0 -52 39 -81t105 -29
q92 0 162 67v94q-69 59 -162 59z" />
    <glyph glyph-name="afii10066" unicode="&#x431;" horiz-adv-x="549" 
d="M494 742l-6 -56q-330 -23 -365 -257q64 67 164 67q102 0 160.5 -67t58.5 -187q0 -118 -60.5 -186t-155.5 -68q-117 0 -177 89t-60 247q0 192 101 295t340 123zM287 440q-105 0 -171 -80q-1 -11 -1 -35q0 -145 47 -213t128 -68q71 0 112.5 54t41.5 144q0 94 -42 146
t-115 52z" />
    <glyph glyph-name="afii10067" unicode="&#x432;" horiz-adv-x="510" 
d="M259 0h-186v518h180q94 0 140 -35t46 -99q0 -84 -79 -111q49 -11 77.5 -43.5t28.5 -83.5q0 -66 -50.5 -106t-156.5 -40zM377 381q0 43 -30.5 63t-94.5 20h-119v-167h124q120 0 120 84zM404 147q0 96 -137 96h-134v-189h131q68 0 104 24.5t36 68.5z" />
    <glyph glyph-name="afii10068" unicode="&#x433;" horiz-adv-x="437" 
d="M421 464h-286v-464h-62v518h348v-54z" />
    <glyph glyph-name="afii10069" unicode="&#x434;" horiz-adv-x="559" 
d="M535 53v-163h-60v110h-392v-110h-60v163h61q57 142 57 335v130h319v-465h75zM147 53h253v411h-199v-83q0 -183 -54 -328z" />
    <glyph glyph-name="afii10070" unicode="&#x435;" horiz-adv-x="561" 
d="M300 -12q-116 0 -186.5 78.5t-70.5 193.5q0 118 67.5 194t173.5 76q104 0 171 -75.5t67 -193.5q0 -20 -1 -27h-414q6 -84 57 -137t133 -53q93 0 154 74l46 -33q-75 -97 -197 -97zM107 288h352q-4 83 -54 134.5t-122 51.5t-122 -51.5t-54 -134.5z" />
    <glyph glyph-name="afii10072" unicode="&#x436;" horiz-adv-x="749" 
d="M7 0l199 312l-169 206h74l233 -291v291h61v-291l233 291h74l-169 -207l199 -311h-67l-170 265l-100 -121v-144h-61v144l-100 121l-170 -265h-67z" />
    <glyph glyph-name="afii10073" unicode="&#x437;" horiz-adv-x="479" 
d="M233 42q63 0 100.5 27t37.5 70q0 51 -50 79t-123 28h-55v54h54q69 0 112 25.5t43 68.5q0 38 -33.5 60t-87.5 22q-80 0 -144 -55l-42 38q77 71 183 71q81 0 133.5 -36t52.5 -97q0 -46 -29 -78.5t-81 -46.5q60 -13 94.5 -47.5t34.5 -85.5q0 -67 -55 -109t-148 -42
q-126 0 -212 76l41 42q76 -64 174 -64z" />
    <glyph glyph-name="afii10074" unicode="&#x438;" horiz-adv-x="591" 
d="M518 0h-62v424l-321 -424h-62v518h62v-424l321 424h62v-518z" />
    <glyph glyph-name="afii10075" unicode="&#x439;" horiz-adv-x="591" 
d="M518 0h-62v424l-321 -424h-62v518h62v-424l321 424h62v-518zM295 648q78 0 107 91l45 -12q-16 -60 -55.5 -94t-96.5 -34t-96.5 34t-55.5 94l45 12q29 -91 107 -91z" />
    <glyph glyph-name="afii10076" unicode="&#x43a;" horiz-adv-x="505" 
d="M428 0l-180 269l-115 -131v-138h-60v518h60v-300l258 300h77l-181 -206l211 -312h-70z" />
    <glyph glyph-name="afii10077" unicode="&#x43b;" horiz-adv-x="582" 
d="M16 -10v57q26 -3 45 -3q45 0 64.5 24.5t19.5 78.5v371h364v-518h-60v464h-244v-322q0 -81 -36.5 -117.5t-112.5 -36.5q-18 0 -40 2z" />
    <glyph glyph-name="afii10078" unicode="&#x43c;" horiz-adv-x="688" 
d="M324 117l-189 291v-408h-62v518h59l212 -331l212 331h59v-518h-62v408l-189 -291h-40z" />
    <glyph glyph-name="afii10079" unicode="&#x43d;" horiz-adv-x="573" 
d="M133 309h307v209h60v-518h-60v255h-307v-255h-60v518h60v-209z" />
    <glyph glyph-name="afii10080" unicode="&#x43e;" horiz-adv-x="576" 
d="M471 259q0 98 -50 156.5t-133 58.5t-133 -58.5t-50 -156.5t50 -156.5t133 -58.5t133 58.5t50 156.5zM533 259q0 -119 -68 -195t-177 -76t-177 76t-68 195t68 195t177 76t177 -76t68 -195z" />
    <glyph glyph-name="afii10081" unicode="&#x43f;" horiz-adv-x="556" 
d="M73 0v518h410v-518h-60v464h-290v-464h-60z" />
    <glyph glyph-name="afii10082" unicode="&#x440;" horiz-adv-x="576" 
d="M133 518v-60q79 72 173 72q106 0 164 -72t58 -199t-58 -199t-164 -72q-94 0 -173 72v-272h-60v730h60zM466 259q0 215 -171 215q-43 0 -87.5 -22t-74.5 -56v-274q30 -34 74.5 -56t87.5 -22q171 0 171 215z" />
    <glyph glyph-name="afii10083" unicode="&#x441;" horiz-adv-x="534" 
d="M43 259q0 120 67.5 195.5t176.5 75.5q142 0 212 -115l-48 -29q-61 88 -160 88q-85 0 -135.5 -58t-50.5 -157t50.5 -157t135.5 -58q99 0 160 88l48 -29q-70 -115 -212 -115q-109 0 -176.5 75.5t-67.5 195.5z" />
    <glyph glyph-name="afii10084" unicode="&#x442;" horiz-adv-x="483" 
d="M212 0v464h-196v54h451v-54h-195v-464h-60z" />
    <glyph glyph-name="afii10085" unicode="&#x443;" horiz-adv-x="506" 
d="M82 518l178 -432l165 432h63l-279 -730h-62l82 216l-211 514h64z" />
    <glyph glyph-name="afii10086" unicode="&#x444;" horiz-adv-x="888" 
d="M414 -212v268q-63 -68 -155 -68q-100 0 -155.5 72t-55.5 199t55.5 199t155.5 72q92 0 155 -68v268h60v-268q63 68 155 68q100 0 155.5 -72t55.5 -199t-55.5 -199t-155.5 -72q-92 0 -155 68v-268h-60zM414 116v286q-26 33 -64.5 53.5t-81.5 20.5q-78 0 -118 -56.5
t-40 -160.5t40 -160.5t118 -56.5q43 0 81.5 20.5t64.5 53.5zM620 476q-43 0 -81.5 -20.5t-64.5 -53.5v-286q26 -33 64.5 -53.5t81.5 -20.5q78 0 118 56.5t40 160.5t-40 160.5t-118 56.5z" />
    <glyph glyph-name="afii10087" unicode="&#x445;" horiz-adv-x="486" 
d="M401 0l-158 223l-158 -223h-71l194 272l-175 246h70l140 -198l140 198h70l-175 -246l194 -272h-71z" />
    <glyph glyph-name="afii10088" unicode="&#x446;" horiz-adv-x="584" 
d="M483 54h74v-164h-60v110h-424v518h60v-464h290v464h60v-464z" />
    <glyph glyph-name="afii10089" unicode="&#x447;" horiz-adv-x="544" 
d="M255 240q43 0 85.5 18.5t70.5 46.5v213h60v-518h-60v247q-69 -61 -164 -61q-91 0 -141.5 48t-50.5 144v140h60v-133q0 -76 34.5 -110.5t105.5 -34.5z" />
    <glyph glyph-name="afii10090" unicode="&#x448;" horiz-adv-x="695" 
d="M378 54h185v464h60v-518h-550v518h60v-464h185v464h60v-464z" />
    <glyph glyph-name="afii10091" unicode="&#x449;" horiz-adv-x="724" 
d="M378 54h185v464h60v-464h74v-164h-60v110h-564v518h60v-464h185v464h60v-464z" />
    <glyph glyph-name="afii10092" unicode="&#x44a;" horiz-adv-x="557" 
d="M213 316h107q100 0 152 -42t52 -116t-52 -116t-152 -42h-167v464h-147v54h207v-202zM314 262h-101v-208h101q148 0 148 104t-148 104z" />
    <glyph glyph-name="afii10093" unicode="&#x44b;" horiz-adv-x="669" 
d="M596 0h-60v518h60v-518zM240 316h-107v202h-60v-518h167q100 0 152 42t52 116t-52 116t-152 42zM133 262h101q148 0 148 -104t-148 -104h-101v208z" />
    <glyph glyph-name="afii10094" unicode="&#x44c;" horiz-adv-x="477" 
d="M133 316h107q100 0 152 -42t52 -116t-52 -116t-152 -42h-167v518h60v-202zM234 262h-101v-208h101q148 0 148 104t-148 104z" />
    <glyph glyph-name="afii10095" unicode="&#x44d;" horiz-adv-x="534" 
d="M491 259q0 -120 -67.5 -195.5t-176.5 -75.5q-142 0 -212 115l48 29q61 -88 160 -88q78 0 128 50.5t57 137.5h-247v54h247q-7 87 -57 137.5t-128 50.5q-99 0 -160 -88l-48 29q70 115 212 115q109 0 176.5 -75.5t67.5 -195.5z" />
    <glyph glyph-name="afii10096" unicode="&#x44e;" horiz-adv-x="711" 
d="M133 232v-232h-60v518h60v-232h96q7 109 66 176.5t153 67.5q100 0 160 -75.5t60 -195.5t-60 -195.5t-160 -75.5q-94 0 -153 67.5t-66 176.5h-96zM290 259q0 -98 43.5 -156.5t114.5 -58.5t114.5 58.5t43.5 156.5t-43.5 156.5t-114.5 58.5t-114.5 -58.5t-43.5 -156.5z" />
    <glyph glyph-name="afii10097" unicode="&#x44f;" horiz-adv-x="527" 
d="M233 221l-143 -221h-73l151 231q-56 13 -85.5 49.5t-29.5 88.5q0 69 49 109t146 40h205v-518h-60v221h-160zM253 275h140v189h-140q-70 0 -104 -25.5t-34 -69.5q0 -43 34 -68.5t104 -25.5z" />
    <glyph glyph-name="uni0450" unicode="&#x450;" horiz-adv-x="561" 
d="M300 -12q-116 0 -186.5 78.5t-70.5 193.5q0 118 67.5 194t173.5 76q104 0 171 -75.5t67 -193.5q0 -20 -1 -27h-414q6 -84 57 -137t133 -53q93 0 154 74l46 -33q-75 -97 -197 -97zM107 288h352q-4 83 -54 134.5t-122 51.5t-122 -51.5t-54 -134.5zM172 719l48 40l137 -147
l-36 -31z" />
    <glyph glyph-name="afii10071" unicode="&#x451;" horiz-adv-x="561" 
d="M300 -12q-116 0 -186.5 78.5t-70.5 193.5q0 118 67.5 194t173.5 76q104 0 171 -75.5t67 -193.5q0 -20 -1 -27h-414q6 -84 57 -137t133 -53q93 0 154 74l46 -33q-75 -97 -197 -97zM107 288h352q-4 83 -54 134.5t-122 51.5t-122 -51.5t-54 -134.5zM145 669q0 19 13 32
t32 13t32 -13t13 -32t-13 -32t-32 -13t-32 13t-13 32zM337 669q0 19 13 32t32 13t32 -13t13 -32t-13 -32t-32 -13t-32 13t-13 32z" />
    <glyph glyph-name="afii10099" unicode="&#x452;" horiz-adv-x="576" 
d="M325 530q85 0 133.5 -49t48.5 -141v-414q0 -80 -39 -115t-116 -35q-17 0 -37 2v57q21 -3 41 -3q47 0 69 22.5t22 76.5v394q0 149 -135 149q-48 0 -97.5 -26.5t-80.5 -63.5v-384h-60v602h-66v50h66v78h60v-78h208v-50h-208v-155q87 83 191 83z" />
    <glyph glyph-name="afii10100" unicode="&#x453;" horiz-adv-x="437" 
d="M421 464h-286v-464h-62v518h348v-54zM313 759l48 -40l-149 -138l-36 31z" />
    <glyph glyph-name="afii10101" unicode="&#x454;" horiz-adv-x="534" 
d="M43 259q0 120 67.5 195.5t176.5 75.5q142 0 212 -115l-48 -29q-61 88 -160 88q-78 0 -128 -50.5t-57 -137.5h247v-54h-247q7 -87 57 -137.5t128 -50.5q99 0 160 88l48 -29q-70 -115 -212 -115q-109 0 -176.5 75.5t-67.5 195.5z" />
    <glyph glyph-name="afii10102" unicode="&#x455;" horiz-adv-x="489" 
d="M252 44q62 0 97 24.5t35 65.5q0 42 -34.5 68t-113.5 46q-98 25 -138 58.5t-40 91.5q0 60 46.5 96t129.5 36q110 0 185 -72l-42 -40q-62 56 -143 56q-51 0 -82.5 -20.5t-31.5 -55.5q0 -34 30 -54t114 -43q97 -27 139.5 -64.5t42.5 -98.5q0 -69 -50.5 -109.5t-141.5 -40.5
q-135 0 -223 91l44 42q75 -77 177 -77z" />
    <glyph glyph-name="afii10103" unicode="&#x456;" horiz-adv-x="220" 
d="M80 0v518h60v-518h-60zM64 679q0 19 13.5 32.5t32.5 13.5t32.5 -13.5t13.5 -32.5t-13.5 -32.5t-32.5 -13.5t-32.5 13.5t-13.5 32.5z" />
    <glyph glyph-name="afii10104" unicode="&#x457;" horiz-adv-x="220" 
d="M80 0v518h60v-518h-60zM-31 669q0 19 13 32t32 13t32 -13t13 -32t-13 -32t-32 -13t-32 13t-13 32zM161 669q0 19 13 32t32 13t32 -13t13 -32t-13 -32t-32 -13t-32 13t-13 32z" />
    <glyph glyph-name="afii10105" unicode="&#x458;" horiz-adv-x="220" 
d="M80 -69v587h60v-592q0 -81 -38.5 -115.5t-115.5 -34.5q-17 0 -37 2v56q22 -2 40 -2q48 0 69.5 22.5t21.5 76.5zM64 679q0 19 13.5 32.5t32.5 13.5t32.5 -13.5t13.5 -32.5t-13.5 -32.5t-32.5 -13.5t-32.5 13.5t-13.5 32.5z" />
    <glyph glyph-name="afii10106" unicode="&#x459;" horiz-adv-x="837" 
d="M493 316h107q100 0 152 -42t52 -116t-52 -116t-152 -42h-167v464h-226v-322q0 -80 -37.5 -117t-113.5 -37q-18 0 -40 2v55q26 -3 45 -3q45 0 64.5 25t19.5 80v371h348v-202zM594 262h-101v-208h101q148 0 148 104t-148 104z" />
    <glyph glyph-name="afii10107" unicode="&#x45a;" horiz-adv-x="808" 
d="M464 316h107q100 0 152 -42t52 -116t-52 -116t-152 -42h-167v262h-269v-262h-62v518h62v-202h269v202h60v-202zM565 262h-101v-208h101q148 0 148 104t-148 104z" />
    <glyph glyph-name="afii10108" unicode="&#x45b;" horiz-adv-x="576" 
d="M325 530q85 0 133.5 -49t48.5 -141v-340h-60v325q0 149 -135 149q-48 0 -97.5 -26.5t-80.5 -63.5v-384h-60v602h-66v50h66v78h60v-78h208v-50h-208v-155q87 83 191 83z" />
    <glyph glyph-name="afii10109" unicode="&#x45c;" horiz-adv-x="505" 
d="M428 0l-180 269l-115 -131v-138h-60v518h60v-300l258 300h77l-181 -206l211 -312h-70zM335 759l48 -40l-149 -138l-36 31z" />
    <glyph glyph-name="uni045D" unicode="&#x45d;" horiz-adv-x="591" 
d="M518 0h-62v424l-321 -424h-62v518h62v-424l321 424h62v-518zM167 719l48 40l137 -147l-36 -31z" />
    <glyph glyph-name="afii10110" unicode="&#x45e;" horiz-adv-x="506" 
d="M82 518l178 -432l165 432h63l-279 -730h-62l82 216l-211 514h64zM253 648q78 0 107 91l45 -12q-16 -60 -55.5 -94t-96.5 -34t-96.5 34t-55.5 94l45 12q29 -91 107 -91z" />
    <glyph glyph-name="afii10193" unicode="&#x45f;" horiz-adv-x="556" 
d="M73 0v518h60v-465h290v465h60v-518h-174v-110h-62v110h-174z" />
    <glyph glyph-name="afii10050" unicode="&#x490;" horiz-adv-x="527" 
d="M83 0v700h360v123h64v-181h-360v-642h-64z" />
    <glyph glyph-name="afii10098" unicode="&#x491;" horiz-adv-x="437" 
d="M361 650h60v-186h-288v-464h-60v518h288v132z" />
    <glyph glyph-name="Wgrave" unicode="&#x1e80;" horiz-adv-x="988" 
d="M290 75l165 625h78l165 -625l197 625h70l-224 -700h-85l-162 619l-162 -619h-85l-224 700h70zM343 893l48 40l137 -147l-36 -31z" />
    <glyph glyph-name="wgrave" unicode="&#x1e81;" horiz-adv-x="778" 
d="M225 76l134 442h60l134 -442l139 442h68l-176 -518h-62l-133 436l-133 -436h-62l-176 518h68zM237 719l48 40l137 -147l-36 -31z" />
    <glyph glyph-name="Wacute" unicode="&#x1e82;" horiz-adv-x="988" 
d="M290 75l165 625h78l165 -625l197 625h70l-224 -700h-85l-162 619l-162 -619h-85l-224 700h70zM597 933l48 -40l-149 -138l-36 31z" />
    <glyph glyph-name="wacute" unicode="&#x1e83;" horiz-adv-x="778" 
d="M359 518l-134 -442l-139 442h-68l176 -518h62l133 436l133 -436h62l176 518h-68l-139 -442l-134 442h-60zM493 759l48 -40l-149 -138l-36 31z" />
    <glyph glyph-name="Wdieresis" unicode="&#x1e84;" horiz-adv-x="988" 
d="M290 75l165 625h78l165 -625l197 625h70l-224 -700h-85l-162 619l-162 -619h-85l-224 700h70zM353 843q0 19 13 32t32 13t32 -13t13 -32t-13 -32t-32 -13t-32 13t-13 32zM545 843q0 19 13 32t32 13t32 -13t13 -32t-13 -32t-32 -13t-32 13t-13 32z" />
    <glyph glyph-name="wdieresis" unicode="&#x1e85;" horiz-adv-x="778" 
d="M359 518l-134 -442l-139 442h-68l176 -518h62l133 436l133 -436h62l176 518h-68l-139 -442l-134 442h-60zM248 669q0 19 13 32t32 13t32 -13t13 -32t-13 -32t-32 -13t-32 13t-13 32zM440 669q0 19 13 32t32 13t32 -13t13 -32t-13 -32t-32 -13t-32 13t-13 32z" />
    <glyph glyph-name="Ygrave" unicode="&#x1ef2;" horiz-adv-x="590" 
d="M263 0v278l-245 422h72l205 -354l205 354h72l-245 -422v-278h-64zM176 893l48 40l137 -147l-36 -31z" />
    <glyph glyph-name="ygrave" unicode="&#x1ef3;" horiz-adv-x="506" 
d="M82 518l178 -432l165 432h63l-279 -730h-62l82 216l-211 514h64zM120 719l48 40l137 -147l-36 -31z" />
    <glyph glyph-name="thinspace" unicode="&#x2009;" horiz-adv-x="200" 
 />
    <glyph glyph-name="uni2010" unicode="&#x2010;" horiz-adv-x="406" 
d="M343 301h-280v62h280v-62z" />
    <glyph glyph-name="figuredash" unicode="&#x2012;" horiz-adv-x="573" 
d="M533 303h-493v57h493v-57z" />
    <glyph glyph-name="endash" unicode="&#x2013;" horiz-adv-x="500" 
d="M500 303h-500v57h500v-57z" />
    <glyph glyph-name="emdash" unicode="&#x2014;" horiz-adv-x="1000" 
d="M1000 303h-1000v57h1000v-57z" />
    <glyph glyph-name="afii00208" unicode="&#x2015;" horiz-adv-x="1000" 
d="M900 303h-800v57h800v-57z" />
    <glyph glyph-name="uni2016" unicode="&#x2016;" horiz-adv-x="412" 
d="M309 749v-879h-54v879h54zM157 749v-879h-54v879h54z" />
    <glyph glyph-name="underscoredbl" unicode="&#x2017;" horiz-adv-x="607" 
d="M53 -39h501v-50h-501v50zM53 -140h501v-51h-501v51z" />
    <glyph glyph-name="quoteleft" unicode="&#x2018;" horiz-adv-x="294" 
d="M166 519l-70 23l90 228l51 -17z" />
    <glyph glyph-name="quoteright" unicode="&#x2019;" horiz-adv-x="294" 
d="M128 769l70 -23l-90 -228l-51 17z" />
    <glyph glyph-name="quotesinglbase" unicode="&#x201a;" horiz-adv-x="294" 
d="M128 95l70 -23l-90 -228l-51 17z" />
    <glyph glyph-name="quotereversed" unicode="&#x201b;" horiz-adv-x="294" 
d="M166 770l71 -236l-51 -16l-90 228z" />
    <glyph glyph-name="quotedblleft" unicode="&#x201c;" horiz-adv-x="447" 
d="M319 519l-70 23l90 228l51 -17zM166 519l-70 23l90 228l51 -17z" />
    <glyph glyph-name="quotedblright" unicode="&#x201d;" horiz-adv-x="447" 
d="M281 769l70 -23l-90 -228l-51 17zM128 769l70 -23l-90 -228l-51 17z" />
    <glyph glyph-name="quotedblbase" unicode="&#x201e;" horiz-adv-x="447" 
d="M281 95l70 -23l-90 -228l-51 17zM128 95l70 -23l-90 -228l-51 17z" />
    <glyph glyph-name="uni201F" unicode="&#x201f;" horiz-adv-x="447" 
d="M166 770l71 -236l-51 -16l-90 228zM319 770l71 -236l-51 -16l-90 228z" />
    <glyph glyph-name="dagger" unicode="&#x2020;" horiz-adv-x="576" 
d="M319 517v-648h-62v648h-177v54h177v177h62v-177h177v-54h-177z" />
    <glyph glyph-name="daggerdbl" unicode="&#x2021;" horiz-adv-x="576" 
d="M496 100v-54h-177v-177h-62v177h-177v54h177v417h-177v54h177v177h62v-177h177v-54h-177v-417h177z" />
    <glyph glyph-name="bullet" unicode="&#x2022;" horiz-adv-x="430" 
d="M215 212q-50 0 -85 35t-35 84q0 50 35 85t85 35t85 -35t35 -85q0 -49 -35 -84t-85 -35z" />
    <glyph glyph-name="onedotenleader" unicode="&#x2024;" horiz-adv-x="294" 
d="M97 38q0 21 14.5 35.5t35.5 14.5t35.5 -14.5t14.5 -35.5t-14.5 -35.5t-35.5 -14.5t-35.5 14.5t-14.5 35.5z" />
    <glyph glyph-name="twodotenleader" unicode="&#x2025;" horiz-adv-x="588" 
d="M97 38q0 21 14.5 35.5t35.5 14.5t35.5 -14.5t14.5 -35.5t-14.5 -35.5t-35.5 -14.5t-35.5 14.5t-14.5 35.5zM391 38q0 21 14.5 35.5t35.5 14.5t35.5 -14.5t14.5 -35.5t-14.5 -35.5t-35.5 -14.5t-35.5 14.5t-14.5 35.5z" />
    <glyph glyph-name="ellipsis" unicode="&#x2026;" horiz-adv-x="882" 
d="M97 38q0 21 14.5 35.5t35.5 14.5t35.5 -14.5t14.5 -35.5t-14.5 -35.5t-35.5 -14.5t-35.5 14.5t-14.5 35.5zM685 38q0 21 14.5 35.5t35.5 14.5t35.5 -14.5t14.5 -35.5t-14.5 -35.5t-35.5 -14.5t-35.5 14.5t-14.5 35.5zM391 38q0 21 14.5 35.5t35.5 14.5t35.5 -14.5
t14.5 -35.5t-14.5 -35.5t-35.5 -14.5t-35.5 14.5t-14.5 35.5z" />
    <glyph glyph-name="perthousand" unicode="&#x2030;" horiz-adv-x="1064" 
d="M146 528q0 -58 21.5 -90.5t58.5 -32.5t58.5 32.5t21.5 90.5t-21.5 90.5t-58.5 32.5t-58.5 -32.5t-21.5 -90.5zM83 528q0 79 39.5 129t103.5 50t103.5 -50t39.5 -129t-39.5 -129t-103.5 -50t-103.5 50t-39.5 129zM138 21l435 691l47 -33l-435 -691zM612 172
q0 58 -21.5 90.5t-58.5 32.5t-58.5 -32.5t-21.5 -90.5t21.5 -90.5t58.5 -32.5t58.5 32.5t21.5 90.5zM675 172q0 -79 -39.5 -129t-103.5 -50t-103.5 50t-39.5 129t39.5 129t103.5 50t103.5 -50t39.5 -129zM918 172q0 58 -21.5 90.5t-58.5 32.5t-58.5 -32.5t-21.5 -90.5
t21.5 -90.5t58.5 -32.5t58.5 32.5t21.5 90.5zM981 172q0 -79 -39.5 -129t-103.5 -50t-103.5 50t-39.5 129t39.5 129t103.5 50t103.5 -50t39.5 -129z" />
    <glyph glyph-name="minute" unicode="&#x2032;" horiz-adv-x="318" 
d="M137 440l-46 14l71 236l65 -22z" />
    <glyph glyph-name="second" unicode="&#x2033;" horiz-adv-x="476" 
d="M137 440l-46 14l71 236l65 -22zM295 440l-46 14l71 236l65 -22z" />
    <glyph glyph-name="guilsinglleft" unicode="&#x2039;" horiz-adv-x="348" 
d="M50 300v24l217 160l31 -41l-180 -131l180 -131l-31 -41z" />
    <glyph glyph-name="guilsinglright" unicode="&#x203a;" horiz-adv-x="348" 
d="M298 324v-24l-217 -160l-31 41l180 131l-180 131l31 41z" />
    <glyph glyph-name="exclamdbl" unicode="&#x203c;" horiz-adv-x="453" 
d="M82 38q0 21 14.5 35.5t35.5 14.5t35.5 -14.5t14.5 -35.5t-14.5 -35.5t-35.5 -14.5t-35.5 14.5t-14.5 35.5zM112 169l-14 313v218h68v-218l-14 -313h-40zM271 38q0 21 14.5 35.5t35.5 14.5t35.5 -14.5t14.5 -35.5t-14.5 -35.5t-35.5 -14.5t-35.5 14.5t-14.5 35.5zM301 169
l-14 313v218h68v-218l-14 -313h-40z" />
    <glyph glyph-name="uni203E" unicode="&#x203e;" horiz-adv-x="400" 
d="M57 621v54h286v-54h-286z" />
    <glyph glyph-name="fraction" unicode="&#x2044;" horiz-adv-x="188" 
d="M308 689l-383 -702l-45 26l383 702z" />
    <glyph glyph-name="zerosuperior" unicode="&#x2070;" 
d="M90 469q0 -88 28.5 -137.5t82.5 -49.5t82.5 49.5t28.5 137.5t-28.5 137.5t-82.5 49.5t-82.5 -49.5t-28.5 -137.5zM34 469q0 108 43.5 173.5t123.5 65.5t123.5 -65.5t43.5 -173.5t-43.5 -173.5t-123.5 -65.5t-123.5 65.5t-43.5 173.5z" />
    <glyph glyph-name="uni2071" unicode="&#x2071;" 
d="M229 569v-332h-56v332h56zM164 664q0 15 11 26t26 11t26 -11t11 -26t-11 -26t-26 -11t-26 11t-11 26z" />
    <glyph glyph-name="foursuperior" unicode="&#x2074;" 
d="M247 339h-224v46l227 315h53v-311h56v-50h-56v-102h-56v102zM247 610l-158 -221h158v221z" />
    <glyph glyph-name="fivesuperior" unicode="&#x2075;" 
d="M192 279q43 0 71 27.5t28 70.5q0 47 -30 73.5t-80 26.5q-58 0 -100 -17l-10 7v233h251v-50h-197v-131q25 8 62 8q70 0 115 -41.5t45 -111.5q0 -64 -43.5 -104.5t-113.5 -40.5q-91 0 -148 61l38 35q46 -46 112 -46z" />
    <glyph glyph-name="sixsuperior" unicode="&#x2076;" 
d="M212 658q-48 0 -76.5 -40t-31.5 -121q48 41 107 41q69 0 110 -43.5t41 -112.5q0 -68 -43 -110.5t-110 -42.5q-74 0 -119.5 56.5t-45.5 168.5q0 127 46 190.5t124 63.5q79 0 126 -62l-40 -31q-36 43 -88 43zM206 488q-60 0 -104 -47q3 -83 32 -122.5t74 -39.5q46 0 72 29
t26 75q0 47 -26 76t-74 29z" />
    <glyph glyph-name="sevensuperior" unicode="&#x2077;" 
d="M347 650l-177 -413h-61l178 413h-232v50h292v-50z" />
    <glyph glyph-name="eightsuperior" unicode="&#x2078;" 
d="M58 589q0 54 39 86.5t102 32.5q64 0 103 -34t39 -90q0 -32 -17 -62.5t-45 -50.5q80 -43 80 -112q0 -59 -43.5 -94.5t-113.5 -35.5t-114 37.5t-44 100.5q0 81 69 128q-55 37 -55 94zM100 366q0 -39 29 -62.5t73 -23.5t72.5 21t28.5 57q0 14 -5.5 26t-13 20t-24 17.5
t-27 14.5t-35 16t-37.5 17q-61 -36 -61 -103zM285 585q0 33 -23.5 52.5t-64.5 19.5q-38 0 -60.5 -19t-22.5 -47q0 -16 6 -28t24.5 -24t33.5 -19.5t52 -24.5q55 42 55 90z" />
    <glyph glyph-name="ninesuperior" unicode="&#x2079;" 
d="M193 279q100 0 107 162q-47 -42 -108 -42q-68 0 -109.5 44t-41.5 112q0 67 43 110t110 43q75 0 120 -56t45 -169q0 -127 -43.5 -190.5t-124.5 -63.5q-72 0 -124 52l38 35q37 -37 88 -37zM198 449q59 0 103 47q-2 83 -31.5 122.5t-73.5 39.5q-46 0 -72.5 -29t-26.5 -75
q0 -48 26.5 -76.5t74.5 -28.5z" />
    <glyph glyph-name="uni207A" unicode="&#x207a;" 
d="M175 312v135h-138v48h138v135h53v-135h138v-48h-138v-135h-53z" />
    <glyph glyph-name="uni207B" unicode="&#x207b;" 
d="M366 447h-329v48h329v-48z" />
    <glyph glyph-name="uni207C" unicode="&#x207c;" 
d="M366 386h-329v48h329v-48zM366 508h-329v48h329v-48z" />
    <glyph glyph-name="uni207D" unicode="&#x207d;" 
d="M139 469q0 156 94 290l38 -18q-81 -125 -81 -272t81 -272l-38 -18q-94 134 -94 290z" />
    <glyph glyph-name="uni207E" unicode="&#x207e;" 
d="M264 469q0 -156 -94 -290l-38 18q81 125 81 272t-81 272l38 18q94 -134 94 -290z" />
    <glyph glyph-name="uni207F" unicode="&#x207f;" 
d="M230 577q112 0 112 -124v-216h-56v209q0 81 -70 81q-52 0 -99 -47v-243h-56v332h56v-38q51 46 113 46z" />
    <glyph glyph-name="zeroinferior" unicode="&#x2080;" 
d="M90 106q0 -88 28.5 -137.5t82.5 -49.5t82.5 49.5t28.5 137.5t-28.5 137.5t-82.5 49.5t-82.5 -49.5t-28.5 -137.5zM34 106q0 108 43.5 173.5t123.5 65.5t123.5 -65.5t43.5 -173.5t-43.5 -173.5t-123.5 -65.5t-123.5 65.5t-43.5 173.5z" />
    <glyph glyph-name="oneinferior" unicode="&#x2081;" 
d="M194 268l-79 -59l-35 40l120 89h49v-464h-55v394z" />
    <glyph glyph-name="twoinferior" unicode="&#x2082;" 
d="M191 295q-54 0 -99 -47l-39 33q61 64 141 64q63 0 99.5 -35t36.5 -95q0 -76 -70 -158q-68 -80 -131 -133h205v-50h-283v47q90 78 163 163q60 71 60 131q0 38 -21.5 59t-61.5 21z" />
    <glyph glyph-name="threeinferior" unicode="&#x2083;" 
d="M194 295q-60 0 -99 -47l-39 32q57 65 138 65q61 0 98 -33t37 -89q0 -39 -25.5 -69t-63.5 -38q44 -10 72 -41t28 -76q0 -58 -40 -95.5t-111 -37.5q-95 0 -149 73l41 33q41 -56 108 -56q44 0 69.5 24.5t25.5 58.5q0 91 -127 91h-38v49h38q55 0 85.5 22t30.5 59
q0 34 -20 54.5t-59 20.5z" />
    <glyph glyph-name="fourinferior" unicode="&#x2084;" 
d="M247 -24h-224v46l227 315h53v-311h56v-50h-56v-102h-56v102zM247 247l-158 -221h158v221z" />
    <glyph glyph-name="fiveinferior" unicode="&#x2085;" 
d="M192 -84q43 0 71 27.5t28 70.5q0 47 -30 73.5t-80 26.5q-58 0 -100 -17l-10 7v233h251v-50h-197v-131q25 8 62 8q70 0 115 -41.5t45 -111.5q0 -64 -43.5 -104.5t-113.5 -40.5q-91 0 -148 61l38 35q46 -46 112 -46z" />
    <glyph glyph-name="sixinferior" unicode="&#x2086;" 
d="M212 295q-48 0 -76.5 -40t-31.5 -121q48 41 107 41q69 0 110 -43.5t41 -112.5q0 -67 -43 -110t-110 -43q-74 0 -119.5 56.5t-45.5 168.5q0 127 46 190.5t124 63.5q79 0 126 -62l-40 -31q-36 43 -88 43zM206 125q-60 0 -104 -47q3 -83 32 -122.5t74 -39.5q46 0 72 29
t26 75q0 47 -26 76t-74 29z" />
    <glyph glyph-name="seveninferior" unicode="&#x2087;" 
d="M347 287l-177 -413h-61l178 413h-232v50h292v-50z" />
    <glyph glyph-name="eightinferior" unicode="&#x2088;" 
d="M58 226q0 54 39 86.5t102 32.5q64 0 103 -34t39 -90q0 -32 -17 -62.5t-45 -50.5q80 -43 80 -112q0 -59 -43.5 -94.5t-113.5 -35.5t-114 37.5t-44 100.5q0 81 69 128q-55 37 -55 94zM100 3q0 -39 29 -62.5t73 -23.5t72.5 21t28.5 57q0 14 -5.5 26t-13 20t-24 17.5
t-27 14.5t-35 16t-37.5 17q-61 -36 -61 -103zM285 222q0 33 -23.5 52.5t-64.5 19.5q-38 0 -60.5 -19t-22.5 -47q0 -16 6 -28t24.5 -24t33.5 -19.5t52 -24.5q55 42 55 90z" />
    <glyph glyph-name="nineinferior" unicode="&#x2089;" 
d="M193 -84q100 0 107 162q-47 -42 -108 -42q-68 0 -109.5 44t-41.5 112q0 67 43 110t110 43q75 0 120 -56t45 -169q0 -127 -43.5 -190.5t-124.5 -63.5q-72 0 -124 52l38 35q37 -37 88 -37zM198 86q59 0 103 47q-2 83 -31.5 122.5t-73.5 39.5q-46 0 -72.5 -29t-26.5 -75
q0 -48 26.5 -76.5t74.5 -28.5z" />
    <glyph glyph-name="uni208A" unicode="&#x208a;" 
d="M175 -51v135h-138v48h138v135h53v-135h138v-48h-138v-135h-53z" />
    <glyph glyph-name="uni208B" unicode="&#x208b;" 
d="M366 84h-329v48h329v-48z" />
    <glyph glyph-name="uni208C" unicode="&#x208c;" 
d="M366 23h-329v48h329v-48zM366 145h-329v48h329v-48z" />
    <glyph glyph-name="uni208D" unicode="&#x208d;" 
d="M139 106q0 156 94 290l38 -18q-81 -125 -81 -272t81 -272l-38 -18q-94 134 -94 290z" />
    <glyph glyph-name="uni208E" unicode="&#x208e;" 
d="M264 106q0 -156 -94 -290l-38 18q81 125 81 272t-81 272l38 18q94 -134 94 -290z" />
    <glyph glyph-name="uni2090" unicode="&#x2090;" 
d="M41 -24q0 50 37.5 80t94.5 30q72 0 115 -34v44q0 82 -90 82q-59 0 -104 -34l-31 34q63 47 137 47q66 0 102.5 -32.5t36.5 -89.5v-228h-51v30q-51 -38 -115 -38q-57 0 -94.5 30t-37.5 79zM182 -86q29 0 59.5 10t46.5 26v57q-36 32 -106 32q-40 0 -64 -16.5t-24 -46.5
q0 -29 24 -45.5t64 -16.5z" />
    <glyph glyph-name="uni2091" unicode="&#x2091;" 
d="M202 178q-43 0 -71 -28.5t-32 -79.5h207q-4 49 -33 78.5t-71 29.5zM211 -133q-77 0 -122.5 49.5t-45.5 129.5q0 79 44 129t115 50q70 0 114.5 -50.5t44.5 -128.5q0 -14 -1 -22h-262q5 -52 35 -81t78 -29q57 0 90 45l39 -31q-48 -61 -129 -61z" />
    <glyph glyph-name="uni2092" unicode="&#x2092;" 
d="M201 178q-48 0 -79.5 -37t-31.5 -95t31.5 -95t79.5 -37t79.5 37t31.5 95t-31.5 95t-79.5 37zM201 -133q-77 0 -122 50.5t-45 128.5t45 128.5t122 50.5t122 -50.5t45 -128.5t-45 -128.5t-122 -50.5z" />
    <glyph glyph-name="uni2093" unicode="&#x2093;" 
d="M362 217l-129 -168l136 -174h-66l-102 132l-102 -132h-66l136 174l-129 168h63l98 -126l98 126h63z" />
    <glyph glyph-name="uni2094" unicode="&#x2094;" 
d="M201 -86q43 0 71 28.5t32 79.5h-207q4 -49 33 -78.5t71 -29.5zM192 225q77 0 122.5 -49.5t45.5 -129.5q0 -79 -44 -129t-115 -50q-70 0 -114.5 50.5t-44.5 128.5q0 14 1 22h262q-5 52 -35 81t-78 29q-57 0 -90 -45l-39 31q48 61 129 61z" />
    <glyph glyph-name="uni20A0" unicode="&#x20a0;" horiz-adv-x="762" 
d="M397 0v239q-52 -34 -119 -34q-100 0 -166.5 72t-66.5 181q0 112 64.5 183t168.5 71q126 0 189 -101l-50 -32q-55 75 -138 75q-77 0 -122.5 -53.5t-45.5 -142.5q0 -87 47.5 -141t120.5 -54q76 0 118 43v184h317v-58h-253v-151h236v-58h-236v-165h260v-58h-324z" />
    <glyph glyph-name="colonmonetary" unicode="&#x20a1;" horiz-adv-x="680" 
d="M143 -55l30 108q-60 48 -92.5 125t-32.5 172q0 157 84.5 257t224.5 104l21 76l44 -13l-18 -64q30 -3 67 -13l25 90l44 -13l-26 -93q77 -37 124 -110l-53 -33q-38 54 -88 83l-159 -571q20 -2 31 -2q136 0 216 114l53 -33q-89 -141 -271 -141q-23 0 -46 3l-16 -59l-44 13
l15 55q-40 13 -63 26l-26 -94zM114 350q0 -146 78 -229l148 529q-102 -11 -164 -90.5t-62 -209.5zM230 88q26 -18 63 -29l162 581q-34 10 -67 11z" />
    <glyph glyph-name="uni20A2" unicode="&#x20a2;" horiz-adv-x="680" 
d="M48 350q0 160 87.5 261t231.5 101q182 0 271 -141l-53 -33q-80 114 -216 114q-113 0 -184 -81.5t-71 -220.5q0 -111 46 -186t124 -102v366h60v-70q66 82 170 82q12 0 34 -2v-56q-28 2 -43 2q-48 0 -92 -25t-69 -65v-245q6 -1 25 -1q136 0 216 114l53 -33
q-89 -141 -271 -141q-144 0 -231.5 101t-87.5 261z" />
    <glyph glyph-name="franc" unicode="&#x20a3;" horiz-adv-x="532" 
d="M23 453h60v247h426v-58h-362v-189h309v-44h-309v-90h309v-44h-309v-275h-64v275h-60v44h60v90h-60v44z" />
    <glyph glyph-name="lira" unicode="&#x20a4;" horiz-adv-x="578" 
d="M123 420v88q0 102 54.5 153t156.5 51q122 0 198 -89l-48 -39q-62 68 -152 68q-145 0 -145 -143v-89h217v-44h-217v-91h217v-44h-217q-2 -121 -68 -183h425v-58h-501v51q80 71 80 184v6h-80v44h80v91h-80v44h80z" />
    <glyph glyph-name="uni20A6" unicode="&#x20a6;" horiz-adv-x="707" 
d="M23 439h65v261h65l176 -261h226v261h64v-261h65v-44h-65v-91h65v-44h-65v-260h-64l-177 260h-226v-260h-64v260h-65v44h65v91h-65v44zM152 395v-91h196l-61 91h-135zM359 395l62 -91h134v91h-196zM152 594v-155h105zM451 260l104 -154v154h-104z" />
    <glyph glyph-name="peseta" unicode="&#x20a7;" horiz-adv-x="1017" 
d="M567 673v-155h184q31 12 63 12q85 0 148 -64l-39 -37q-47 47 -104 47q-41 0 -64.5 -20t-23.5 -56q0 -33 22.5 -56.5t84.5 -48.5q136 -55 136 -152q0 -69 -45.5 -106t-124.5 -37h-155q-143 0 -143 177v287h-67q-7 -97 -74.5 -148.5t-179.5 -51.5h-38v-264h-64v700h111
q106 0 169.5 -47t75.5 -135h67v155h61zM668 397q0 36 20 67h-121v-290q0 -66 21 -93t65 -27h151q107 0 107 86q0 35 -22.5 59t-77.5 45q-77 30 -110 65t-33 88zM376 482q0 81 -45 121t-142 40h-42v-322h42q187 0 187 161z" />
    <glyph glyph-name="uni20A8" unicode="&#x20a8;" horiz-adv-x="1019" 
d="M531 500q0 -72 -42.5 -121t-116.5 -68l188 -311h-74l-181 302q-20 -1 -62 -1h-96v-301h-64v700h195q114 0 183.5 -53t69.5 -147zM465 500q0 69 -48.5 106t-142.5 37h-127v-285h127q94 0 142.5 36.5t48.5 105.5zM782 44q62 0 97 24.5t35 65.5q0 42 -34.5 68t-113.5 46
q-98 25 -138 58.5t-40 91.5q0 60 46.5 96t129.5 36q110 0 185 -72l-42 -40q-62 56 -143 56q-51 0 -82.5 -20.5t-31.5 -55.5q0 -34 30 -54t114 -43q97 -27 139.5 -64.5t42.5 -98.5q0 -69 -50.5 -109.5t-141.5 -40.5q-135 0 -223 91l44 42q75 -77 177 -77z" />
    <glyph glyph-name="uni20A9" unicode="&#x20a9;" horiz-adv-x="988" 
d="M20 290h134l-29 91h-105v44h91l-88 275h70l86 -275h203l73 275h78l72 -275h203l87 275h70l-88 -275h91v-44h-105l-29 -91h134v-44h-148l-79 -246h-85l-64 246h-196l-64 -246h-85l-79 246h-148v44zM617 381l24 -91h125l28 91h-177zM193 381l29 -91h124l24 91h-177z
M432 381l-24 -91h172l-24 91h-124zM494 619l-51 -194h102zM652 246l46 -171l54 171h-100zM290 75l45 171h-99z" />
    <glyph glyph-name="afii57636" unicode="&#x20aa;" horiz-adv-x="845" 
d="M762 700v-700h-229q-118 0 -185 73t-67 213v152h64v-144q0 -127 48.5 -181.5t138.5 -54.5h166v642h64zM83 0v700h229q118 0 185 -73t67 -213v-152h-64v144q0 127 -48.5 181.5t-138.5 54.5h-166v-642h-64z" />
    <glyph glyph-name="dong" unicode="&#x20ab;" horiz-adv-x="577" 
d="M503 627h66v-51h-66v-576h-60v60q-79 -72 -173 -72q-107 0 -164.5 66t-57.5 190t57.5 190t164.5 66q94 0 173 -72v148h-208v51h208v73h60v-73zM110 244q0 -101 42 -150.5t129 -49.5q43 0 87.5 22t74.5 56v244q-30 34 -74.5 56t-87.5 22q-87 0 -129 -49.5t-42 -150.5z
M486 -93v-50h-349v50h349z" />
    <glyph glyph-name="Euro" unicode="&#x20ac;" horiz-adv-x="707" 
d="M450 389h-307q-2 -26 -2 -39q0 -15 2 -41h284l-14 -44h-264q20 -103 86 -160t161 -57q136 0 216 114l53 -33q-89 -141 -271 -141q-123 0 -206 75.5t-106 201.5h-62v44h56q-1 13 -1 41q0 26 1 39h-56v44h62q21 127 104.5 203t207.5 76q182 0 271 -141l-53 -33
q-80 114 -216 114q-95 0 -161.5 -58t-86.5 -161h315z" />
    <glyph glyph-name="afii61248" unicode="&#x2105;" horiz-adv-x="1014" 
d="M721 689l-384 -702l-45 24l384 704zM638 215q0 -77 39 -125t102 -48t102 48t39 125t-39 125t-102 48t-102 -48t-39 -125zM577 215q0 98 55.5 161.5t146.5 63.5t146.5 -63.5t55.5 -161.5t-55.5 -161.5t-146.5 -63.5t-146.5 63.5t-55.5 161.5zM33 484q0 -100 57 -163
t149 -63q118 0 178 101l-47 27q-51 -76 -131 -76q-67 0 -106 46.5t-39 127.5t39 127.5t106 46.5q80 0 131 -76l47 27q-60 101 -178 101q-92 0 -149 -63t-57 -163z" />
    <glyph glyph-name="uni2109" unicode="&#x2109;" horiz-adv-x="841" 
d="M392 0v700h426v-58h-362v-264h328v-58h-328v-320h-64zM198 452q-55 0 -93 38t-38 92t38 92t93 38t93 -38t38 -92t-38 -92t-93 -38zM198 665q-34 0 -57.5 -24t-23.5 -59t23.5 -59t57.5 -24t57.5 24t23.5 59t-23.5 59t-57.5 24z" />
    <glyph glyph-name="afii61289" unicode="&#x2113;" horiz-adv-x="464" 
d="M44 90q46 13 82 30q-49 111 -49 268q0 150 53 237t137 87q67 0 101.5 -60t34.5 -163q0 -124 -50.5 -227.5t-146.5 -166.5q34 -50 88 -50q47 0 85 36l33 -52q-44 -41 -114 -41q-86 0 -142 78q-44 -21 -90 -32zM142 393q0 -147 36 -243q160 110 160 339q0 166 -76 166
q-49 0 -84.5 -71.5t-35.5 -190.5z" />
    <glyph glyph-name="afii61352" unicode="&#x2116;" horiz-adv-x="927" 
d="M83 0v700h64l250 -564v564h62v-700h-64l-250 564v-564h-62zM885 52v-52h-375v52h375zM696 119q81 0 128 56.5t47 147.5t-47 147.5t-128 56.5t-128 -56.5t-47 -147.5t47 -147.5t128 -56.5zM696 173q-53 0 -82 39t-29 111t29 111t82 39t82 -39t29 -111t-29 -111t-82 -39z
" />
    <glyph glyph-name="uni2117" unicode="&#x2117;" horiz-adv-x="834" 
d="M544 417q0 -45 -29 -71.5t-83 -26.5h-94v196h94q54 0 83 -26.5t29 -71.5zM338 276h98q73 0 116 37.5t43 103.5t-43 103.5t-116 37.5h-149v-417h51v135zM55 350q0 150 106 256t256 106t256 -106t106 -256t-106 -256t-256 -106t-256 106t-106 256zM91 350q0 -136 94.5 -232
t231.5 -96t231.5 96t94.5 232t-94.5 232t-231.5 96t-231.5 -96t-94.5 -232z" />
    <glyph glyph-name="uni2120" unicode="&#x2120;" horiz-adv-x="675" 
d="M26 428l32 27q40 -43 91 -43q30 0 46.5 13.5t16.5 36.5q0 24 -17.5 39t-60.5 28q-50 15 -71 37t-21 53q0 37 27 61t74 24q71 0 109 -49l-29 -26q-30 36 -76 36q-25 0 -41 -12t-16 -31q0 -33 63 -53q56 -18 81.5 -41.5t25.5 -64.5t-29.5 -65t-81.5 -24q-76 0 -123 54z
M444 436l-92 170v-228h-46v322h41l115 -213l115 213h41v-322h-46v228l-92 -170h-36z" />
    <glyph glyph-name="uni2121" unicode="&#x2121;" horiz-adv-x="909" 
d="M188 0v648h-170v52h400v-52h-169v-648h-61zM392 288h242q-1 84 -35 136t-87 52q-52 0 -85.5 -52t-34.5 -136zM769 0v730h61v-730h-61zM633 115l48 -34q-58 -93 -156 -93q-96 0 -146 78.5t-50 193.5q0 122 50.5 196t132.5 74q85 0 135 -74.5t50 -194.5v-27h-305
q2 -82 36 -137t96 -55q68 0 109 73z" />
    <glyph glyph-name="trademark" unicode="&#x2122;" horiz-adv-x="658" 
d="M114 379v282h-101v39h247v-39h-100v-282h-46zM427 436l-92 170v-228h-46v322h41l115 -213l115 213h41v-322h-46v228l-92 -170h-36z" />
    <glyph glyph-name="Omega" unicode="&#x2126;" horiz-adv-x="708" 
d="M354 654q-111 0 -175.5 -81.5t-64.5 -202.5q0 -193 178 -313v-57h-233v58h148q-159 115 -159 312q0 148 82 245t224 97t224 -97t82 -245q0 -197 -159 -312h148v-58h-233v57q178 120 178 313q0 121 -64.5 202.5t-175.5 81.5z" />
    <glyph glyph-name="estimated" unicode="&#x212e;" horiz-adv-x="745" 
d="M601 97l31 -29q-94 -80 -226 -80q-96 0 -167 28t-111.5 79t-60 114.5t-19.5 140.5q0 99 37.5 180.5t114 131.5t178.5 50q147 0 232.5 -105t85.5 -263v-16h-499v-241q76 -62 210 -62q116 0 194 72zM375 673q-107 0 -178 -65v-241h355v243q-67 63 -177 63z" />
    <glyph glyph-name="onethird" unicode="&#x2153;" horiz-adv-x="969" 
d="M194 631l-79 -59l-35 40l120 89h49v-464h-55v394zM698 689l-383 -702l-45 26l383 702zM764 421q-60 0 -99 -47l-39 32q57 65 138 65q61 0 98 -33t37 -89q0 -39 -25.5 -69t-63.5 -38q44 -10 72 -41t28 -76q0 -58 -40 -95.5t-111 -37.5q-95 0 -149 73l41 33q41 -56 108 -56
q44 0 69.5 24.5t25.5 58.5q0 91 -127 91h-38v49h38q55 0 85.5 22t30.5 59q0 34 -20 54.5t-59 20.5z" />
    <glyph glyph-name="twothirds" unicode="&#x2154;" horiz-adv-x="969" 
d="M191 658q-54 0 -99 -47l-39 33q61 64 141 64q63 0 99.5 -35t36.5 -95q0 -76 -70 -158q-68 -80 -131 -133h205v-50h-283v47q90 78 163 163q60 71 60 131q0 38 -21.5 59t-61.5 21zM698 689l-383 -702l-45 26l383 702zM764 421q-60 0 -99 -47l-39 32q57 65 138 65
q61 0 98 -33t37 -89q0 -39 -25.5 -69t-63.5 -38q44 -10 72 -41t28 -76q0 -58 -40 -95.5t-111 -37.5q-95 0 -149 73l41 33q41 -56 108 -56q44 0 69.5 24.5t25.5 58.5q0 91 -127 91h-38v49h38q55 0 85.5 22t30.5 59q0 34 -20 54.5t-59 20.5z" />
    <glyph glyph-name="onefifth" unicode="&#x2155;" horiz-adv-x="969" 
d="M194 631l-79 -59l-35 40l120 89h49v-464h-55v394zM698 689l-383 -702l-45 26l383 702zM758 42q43 0 71 27.5t28 70.5q0 47 -30 73.5t-80 26.5q-57 0 -100 -17l-10 7v233h251v-50h-197v-131q25 8 62 8q70 0 115 -41.5t45 -111.5q0 -64 -43.5 -104.5t-113.5 -40.5
q-91 0 -148 61l38 35q46 -46 112 -46z" />
    <glyph glyph-name="twofifths" unicode="&#x2156;" horiz-adv-x="969" 
d="M191 658q-54 0 -99 -47l-39 33q61 64 141 64q63 0 99.5 -35t36.5 -95q0 -76 -70 -158q-68 -80 -131 -133h205v-50h-283v47q90 78 163 163q60 71 60 131q0 38 -21.5 59t-61.5 21zM698 689l-383 -702l-45 26l383 702zM758 42q43 0 71 27.5t28 70.5q0 47 -30 73.5t-80 26.5
q-57 0 -100 -17l-10 7v233h251v-50h-197v-131q25 8 62 8q70 0 115 -41.5t45 -111.5q0 -64 -43.5 -104.5t-113.5 -40.5q-91 0 -148 61l38 35q46 -46 112 -46z" />
    <glyph glyph-name="threefifths" unicode="&#x2157;" horiz-adv-x="969" 
d="M698 689l-383 -702l-45 26l383 702zM194 658q-60 0 -99 -47l-39 32q57 65 138 65q61 0 98 -33t37 -89q0 -39 -25.5 -69t-63.5 -38q44 -10 72 -41t28 -76q0 -58 -40 -95.5t-111 -37.5q-95 0 -149 73l41 33q41 -56 108 -56q44 0 69.5 24.5t25.5 58.5q0 91 -127 91h-38v49
h38q55 0 85.5 22t30.5 59q0 34 -20 54.5t-59 20.5zM758 42q43 0 71 27.5t28 70.5q0 47 -30 73.5t-80 26.5q-57 0 -100 -17l-10 7v233h251v-50h-197v-131q25 8 62 8q70 0 115 -41.5t45 -111.5q0 -64 -43.5 -104.5t-113.5 -40.5q-91 0 -148 61l38 35q46 -46 112 -46z" />
    <glyph glyph-name="fourfifths" unicode="&#x2158;" horiz-adv-x="969" 
d="M247 339h-224v46l227 315h53v-311h56v-50h-56v-102h-56v102zM247 610l-158 -221h158v221zM698 689l-383 -702l-45 26l383 702zM758 42q43 0 71 27.5t28 70.5q0 47 -30 73.5t-80 26.5q-57 0 -100 -17l-10 7v233h251v-50h-197v-131q25 8 62 8q70 0 115 -41.5t45 -111.5
q0 -64 -43.5 -104.5t-113.5 -40.5q-91 0 -148 61l38 35q46 -46 112 -46z" />
    <glyph glyph-name="onesixth" unicode="&#x2159;" horiz-adv-x="969" 
d="M194 631l-79 -59l-35 40l120 89h49v-464h-55v394zM698 689l-383 -702l-45 26l383 702zM778 421q-48 0 -76.5 -40t-31.5 -121q48 41 107 41q69 0 110 -43.5t41 -112.5q0 -67 -43 -110t-110 -43q-74 0 -119.5 56.5t-45.5 168.5q0 127 46 190.5t124 63.5q79 0 126 -62
l-40 -31q-36 43 -88 43zM772 251q-60 0 -104 -47q3 -83 32 -122.5t74 -39.5q46 0 72 29t26 75q0 47 -26 76t-74 29z" />
    <glyph glyph-name="fivesixths" unicode="&#x215a;" horiz-adv-x="969" 
d="M192 279q43 0 71 27.5t28 70.5q0 47 -30 73.5t-80 26.5q-58 0 -100 -17l-10 7v233h251v-50h-197v-131q25 8 62 8q70 0 115 -41.5t45 -111.5q0 -64 -43.5 -104.5t-113.5 -40.5q-91 0 -148 61l38 35q46 -46 112 -46zM778 421q-48 0 -76.5 -40t-31.5 -121q48 41 107 41
q69 0 110 -43.5t41 -112.5q0 -67 -43 -110t-110 -43q-74 0 -119.5 56.5t-45.5 168.5q0 127 46 190.5t124 63.5q79 0 126 -62l-40 -31q-36 43 -88 43zM772 251q-60 0 -104 -47q3 -83 32 -122.5t74 -39.5q46 0 72 29t26 75q0 47 -26 76t-74 29zM698 689l-383 -702l-45 26
l383 702z" />
    <glyph glyph-name="oneeighth" unicode="&#x215b;" horiz-adv-x="969" 
d="M194 631l-79 -59l-35 40l120 89h49v-464h-55v394zM698 689l-383 -702l-45 26l383 702zM624 352q0 -57 55 -94q-69 -47 -69 -128q0 -63 44 -100.5t114 -37.5t113.5 35.5t43.5 94.5q0 69 -80 112q28 20 45 50.5t17 62.5q0 56 -39 90t-103 34q-63 0 -102 -32.5t-39 -86.5z
M666 129q0 67 61 103q13 -6 37.5 -17t35 -16t27 -14.5t24 -17.5t13 -20t5.5 -26q0 -36 -28.5 -57t-72.5 -21t-73 23.5t-29 62.5zM851 348q0 -48 -55 -90q-37 17 -52 24.5t-33.5 19.5t-24.5 24t-6 28q0 28 22.5 47t60.5 19q41 0 64.5 -19.5t23.5 -52.5z" />
    <glyph glyph-name="threeeighths" unicode="&#x215c;" horiz-adv-x="969" 
d="M698 689l-383 -702l-45 26l383 702zM194 658q-60 0 -99 -47l-39 32q57 65 138 65q61 0 98 -33t37 -89q0 -39 -25.5 -69t-63.5 -38q44 -10 72 -41t28 -76q0 -58 -40 -95.5t-111 -37.5q-95 0 -149 73l41 33q41 -56 108 -56q44 0 69.5 24.5t25.5 58.5q0 91 -127 91h-38v49
h38q55 0 85.5 22t30.5 59q0 34 -20 54.5t-59 20.5zM624 352q0 -57 55 -94q-69 -47 -69 -128q0 -63 44 -100.5t114 -37.5t113.5 35.5t43.5 94.5q0 69 -80 112q28 20 45 50.5t17 62.5q0 56 -39 90t-103 34q-63 0 -102 -32.5t-39 -86.5zM666 129q0 67 61 103q13 -6 37.5 -17
t35 -16t27 -14.5t24 -17.5t13 -20t5.5 -26q0 -36 -28.5 -57t-72.5 -21t-73 23.5t-29 62.5zM851 348q0 -48 -55 -90q-37 17 -52 24.5t-33.5 19.5t-24.5 24t-6 28q0 28 22.5 47t60.5 19q41 0 64.5 -19.5t23.5 -52.5z" />
    <glyph glyph-name="fiveeighths" unicode="&#x215d;" horiz-adv-x="969" 
d="M698 689l-383 -702l-45 26l383 702zM624 352q0 -57 55 -94q-69 -47 -69 -128q0 -63 44 -100.5t114 -37.5t113.5 35.5t43.5 94.5q0 69 -80 112q28 20 45 50.5t17 62.5q0 56 -39 90t-103 34q-63 0 -102 -32.5t-39 -86.5zM666 129q0 67 61 103q13 -6 37.5 -17t35 -16
t27 -14.5t24 -17.5t13 -20t5.5 -26q0 -36 -28.5 -57t-72.5 -21t-73 23.5t-29 62.5zM851 348q0 -48 -55 -90q-37 17 -52 24.5t-33.5 19.5t-24.5 24t-6 28q0 28 22.5 47t60.5 19q41 0 64.5 -19.5t23.5 -52.5zM192 279q43 0 71 27.5t28 70.5q0 47 -30 73.5t-80 26.5
q-58 0 -100 -17l-10 7v233h251v-50h-197v-131q25 8 62 8q70 0 115 -41.5t45 -111.5q0 -64 -43.5 -104.5t-113.5 -40.5q-91 0 -148 61l38 35q46 -46 112 -46z" />
    <glyph glyph-name="seveneighths" unicode="&#x215e;" horiz-adv-x="969" 
d="M347 650l-177 -413h-61l178 413h-232v50h292v-50zM698 689l-383 -702l-45 26l383 702zM624 352q0 -57 55 -94q-69 -47 -69 -128q0 -63 44 -100.5t114 -37.5t113.5 35.5t43.5 94.5q0 69 -80 112q28 20 45 50.5t17 62.5q0 56 -39 90t-103 34q-63 0 -102 -32.5t-39 -86.5z
M666 129q0 67 61 103q13 -6 37.5 -17t35 -16t27 -14.5t24 -17.5t13 -20t5.5 -26q0 -36 -28.5 -57t-72.5 -21t-73 23.5t-29 62.5zM851 348q0 -48 -55 -90q-37 17 -52 24.5t-33.5 19.5t-24.5 24t-6 28q0 28 22.5 47t60.5 19q41 0 64.5 -19.5t23.5 -52.5z" />
    <glyph glyph-name="uni215F" unicode="&#x215f;" horiz-adv-x="969" 
d="M194 631l-79 -59l-35 40l120 89h49v-464h-55v394zM698 689l-383 -702l-45 26l383 702z" />
    <glyph glyph-name="arrowleft" unicode="&#x2190;" horiz-adv-x="860" 
d="M208 357h616v-50h-616l47 -157l-219 182l219 182z" />
    <glyph glyph-name="arrowup" unicode="&#x2191;" horiz-adv-x="860" 
d="M455 -38h-50v615l-157 -47l182 219l182 -219l-157 47v-615z" />
    <glyph glyph-name="arrowright" unicode="&#x2192;" horiz-adv-x="860" 
d="M36 357h616l-47 157l219 -182l-219 -182l47 157h-616v50z" />
    <glyph glyph-name="arrowdown" unicode="&#x2193;" horiz-adv-x="860" 
d="M405 750h50v-615l157 47l-182 -219l-182 219l157 -47v615z" />
    <glyph glyph-name="arrowboth" unicode="&#x2194;" horiz-adv-x="860" 
d="M208 357h444l-47 157l219 -182l-219 -182l47 157h-444l47 -157l-219 182l219 182z" />
    <glyph glyph-name="arrowupdn" unicode="&#x2195;" horiz-adv-x="860" 
d="M455 577v-443l157 47l-182 -219l-182 219l157 -47v443l-157 -47l182 219l182 -219z" />
    <glyph glyph-name="arrowupdnbse" unicode="&#x21a8;" horiz-adv-x="860" 
d="M436 -31h182v-57h-376v57h182l-176 212l157 -47v443l-157 -47l182 219l182 -219l-157 47v-443l157 47z" />
    <glyph glyph-name="partialdiff" unicode="&#x2202;" horiz-adv-x="580" 
d="M274 652q-90 0 -149 -73l-48 36q76 97 198 97q245 0 245 -380q0 -176 -65 -260t-179 -84q-100 0 -164.5 63t-64.5 164q0 103 60 167.5t161 64.5q104 0 185 -71q-11 276 -179 276zM277 387q-78 0 -121 -45.5t-43 -124.5q0 -78 44 -123.5t120 -45.5q73 0 122 60t55 200
q-37 36 -84.5 57.5t-92.5 21.5z" />
    <glyph glyph-name="Delta" unicode="&#x2206;" horiz-adv-x="662" 
d="M109 59h444l-222 525zM633 0h-604l-9 13l303 699h16l303 -699z" />
    <glyph glyph-name="product" unicode="&#x220f;" horiz-adv-x="681" 
d="M83 -111v851h515v-851h-64v793h-387v-793h-64z" />
    <glyph glyph-name="summation" unicode="&#x2211;" horiz-adv-x="606" 
d="M43 -56l242 387l-242 351v58h533v-58h-458l230 -338v-28l-230 -369h458v-58h-533v55z" />
    <glyph glyph-name="minus" unicode="&#x2212;" horiz-adv-x="618" 
d="M555 303h-492v57h492v-57z" />
    <glyph glyph-name="uni2215" unicode="&#x2215;" horiz-adv-x="188" 
d="M308 689l-383 -702l-45 26l383 702z" />
    <glyph glyph-name="uni2219" unicode="&#x2219;" horiz-adv-x="284" 
d="M92 323q0 21 14.5 35.5t35.5 14.5t35.5 -14.5t14.5 -35.5t-14.5 -35.5t-35.5 -14.5t-35.5 14.5t-14.5 35.5z" />
    <glyph glyph-name="radical" unicode="&#x221a;" horiz-adv-x="603" 
d="M103 374h107l138 -281l162 677h53l-188 -770h-32l-164 328h-76v46z" />
    <glyph glyph-name="infinity" unicode="&#x221e;" horiz-adv-x="771" 
d="M385 293q-87 -101 -179 -101q-63 0 -103 38.5t-40 101.5t40 101.5t103 38.5q91 0 179 -101q88 101 179 101q63 0 103 -38.5t40 -101.5t-40 -101.5t-103 -38.5q-92 0 -179 101zM207 423q-40 0 -63 -24.5t-23 -66.5t23 -66.5t63 -24.5q36 0 68.5 19t76.5 72
q-44 53 -76.5 72t-68.5 19zM563 423q-36 0 -68.5 -19t-76.5 -72q44 -53 76.5 -72t68.5 -19q40 0 63 24.5t23 66.5t-23 66.5t-63 24.5z" />
    <glyph glyph-name="orthogonal" unicode="&#x221f;" horiz-adv-x="636" 
d="M613 53v-53h-510v575h62v-522h448z" />
    <glyph glyph-name="intersection" unicode="&#x2229;" horiz-adv-x="763" 
d="M382 617q138 0 208 -93t70 -258v-266h-62v267q0 147 -57.5 222.5t-158.5 75.5q-102 0 -159.5 -75.5t-57.5 -222.5v-267h-62v266q0 164 70.5 257.5t208.5 93.5z" />
    <glyph glyph-name="integral" unicode="&#x222b;" horiz-adv-x="394" 
d="M166 -64v662q0 81 38.5 116.5t118.5 35.5q31 0 55 -3v-54q-27 3 -55 3q-50 0 -72.5 -23.5t-22.5 -78.5v-662q0 -81 -38.5 -116.5t-118.5 -35.5q-31 0 -55 3v54q27 -3 55 -3q50 0 72.5 23.5t22.5 78.5z" />
    <glyph glyph-name="approxequal" unicode="&#x2248;" horiz-adv-x="618" 
d="M294 217q-59 45 -108 45q-63 0 -83 -85l-54 9q10 60 46.5 96.5t88.5 36.5q66 0 140 -57q59 -45 108 -45q63 0 83 85l54 -9q-10 -60 -46.5 -96.5t-88.5 -36.5q-66 0 -140 57zM294 404q-59 45 -108 45q-63 0 -83 -85l-54 9q10 60 46.5 96.5t88.5 36.5q66 0 140 -57
q59 -45 108 -45q63 0 83 85l54 -9q-10 -60 -46.5 -96.5t-88.5 -36.5q-66 0 -140 57z" />
    <glyph glyph-name="notequal" unicode="&#x2260;" horiz-adv-x="618" 
d="M555 190h-298l-108 -178l-44 26l92 152h-134v57h169l103 170h-272v57h307l100 163l43 -27l-83 -136h125v-57h-160l-103 -170h263v-57z" />
    <glyph glyph-name="equivalence" unicode="&#x2261;" horiz-adv-x="618" 
d="M555 477h-492v57h492v-57zM555 130h-492v57h492v-57zM555 303h-492v57h492v-57z" />
    <glyph glyph-name="lessequal" unicode="&#x2264;" horiz-adv-x="618" 
d="M555 0h-492v57h492v-57zM63 381l465 222l24 -55l-397 -186l397 -186l-24 -55l-465 222v38z" />
    <glyph glyph-name="greaterequal" unicode="&#x2265;" horiz-adv-x="618" 
d="M555 0h-492v57h492v-57zM90 603l465 -222v-38l-465 -222l-24 55l397 186l-397 186z" />
    <glyph glyph-name="house" unicode="&#x2302;" horiz-adv-x="708" 
d="M605 328v-328h-502v328l251 288zM165 51h378v255l-189 218l-189 -218v-255z" />
    <glyph glyph-name="revlogicalnot" unicode="&#x2310;" horiz-adv-x="618" 
d="M559 437v-57h-424v-213h-66v270h490z" />
    <glyph glyph-name="uni2318" unicode="&#x2318;" horiz-adv-x="908" 
d="M331 385h-63q-71 0 -114.5 34t-43.5 99q0 59 38.5 96.5t102.5 37.5q67 0 103.5 -41.5t36.5 -110.5v-63h126v63q0 69 36.5 110.5t103.5 41.5q64 0 102.5 -37.5t38.5 -96.5q0 -65 -43.5 -99t-114.5 -34h-63v-125h63q71 0 114.5 -34t43.5 -99q0 -59 -38.5 -96.5
t-102.5 -37.5q-67 0 -103.5 41.5t-36.5 110.5v63h-126v-63q0 -69 -36.5 -110.5t-103.5 -41.5q-64 0 -102.5 37.5t-38.5 96.5q0 65 43.5 99t114.5 34h63v125zM575 435h62q101 0 101 83q0 38 -21.5 60t-60.5 22q-81 0 -81 -102v-63zM637 210h-62v-63q0 -102 81 -102
q39 0 60.5 22t21.5 60q0 83 -101 83zM333 210h-62q-101 0 -101 -83q0 -38 21.5 -60t60.5 -22q81 0 81 102v63zM271 435h62v63q0 102 -81 102q-39 0 -60.5 -22t-21.5 -60q0 -83 101 -83zM517 385h-126v-125h126v125z" />
    <glyph glyph-name="lozenge" unicode="&#x25ca;" horiz-adv-x="575" 
d="M287 -157l-244 459l244 459l244 -459zM287 633l-175 -331l175 -331l175 331z" />
    <glyph glyph-name="H18533" unicode="&#x25cf;" horiz-adv-x="1000" 
d="M162 326q0 140 99 239t239 99t239 -99t99 -239t-99 -239t-239 -99t-239 99t-99 239z" />
    <glyph glyph-name="fi" horiz-adv-x="557" 
d="M276 730q32 0 54 -3v-56q-26 3 -54 3q-50 0 -73 -22.5t-23 -77.5v-56h297v-518h-60v464h-237v-464h-60v464h-103v54h103v60q0 81 38 116.5t118 35.5zM401 679q0 19 13.5 32.5t32.5 13.5t32.5 -13.5t13.5 -32.5t-13.5 -32.5t-32.5 -13.5t-32.5 13.5t-13.5 32.5z" />
    <glyph glyph-name="fl" horiz-adv-x="541" 
d="M120 518v59q0 80 38.5 116.5t117.5 36.5q54 0 125 -15v15h60v-730h-60v663q-67 13 -124 13q-50 0 -73.5 -24.5t-23.5 -79.5v-54h140v-54h-140v-464h-60v464h-103v54h103z" />
    <glyph glyph-name="commaaccent" horiz-adv-x="400" 
d="M142 -241l60 193l55 -19l-71 -189z" />
    <glyph glyph-name="zero.tnum" horiz-adv-x="599" 
d="M53 350q0 163 63 262.5t183 99.5t183 -99.5t63 -262.5t-63 -262.5t-183 -99.5t-183 99.5t-63 262.5zM119 350q0 -143 46 -222.5t134 -79.5t134 79.5t46 222.5t-46 222.5t-134 79.5t-134 -79.5t-46 -222.5z" />
    <glyph glyph-name="one.tnum" horiz-adv-x="395" 
d="M204 623l-151 -104l-39 44l197 137h57v-700h-64v623z" />
    <glyph glyph-name="two.tnum" horiz-adv-x="535" 
d="M269 712q95 0 153.5 -52t58.5 -140q0 -115 -125 -258q-89 -101 -207 -204h342v-58h-436v52q139 123 240 236q120 135 120 235q0 56 -40 92.5t-107 36.5q-104 0 -183 -87l-47 38q101 109 231 109z" />
    <glyph glyph-name="three.tnum" horiz-adv-x="555" 
d="M271 652q-104 0 -178 -83l-47 39q95 104 226 104q96 0 152 -47t56 -126q0 -66 -40 -112.5t-98 -59.5q75 -18 116 -64.5t41 -118.5q0 -88 -61 -142t-169 -54q-155 0 -245 112l47 39q79 -91 195 -91q78 0 122.5 37.5t44.5 99.5q0 73 -53 113t-142 40h-66v57h66q78 0 127 37
t49 102q0 52 -37 85t-106 33z" />
    <glyph glyph-name="four.tnum" horiz-adv-x="560" 
d="M379 162h-351v55l355 483h60v-480h94v-58h-94v-162h-64v162zM379 592l-275 -372h275v372z" />
    <glyph glyph-name="five.tnum" horiz-adv-x="560" 
d="M278 48q75 0 119 44.5t44 110.5q0 75 -49.5 118t-127.5 43q-90 0 -162 -24l-9 5v355h378v-58h-314v-235q54 17 116 17q104 0 169 -61t65 -165q0 -90 -61.5 -150t-166.5 -60q-145 0 -231 106l48 42q78 -88 182 -88z" />
    <glyph glyph-name="six.tnum" horiz-adv-x="570" 
d="M300 652q-168 0 -179 -276q81 71 185 71q101 0 161 -64.5t60 -167.5q0 -101 -64.5 -164t-164.5 -63q-114 0 -179 84t-65 260q0 380 245 380q122 0 198 -97l-48 -36q-59 73 -149 73zM297 387q-45 0 -92.5 -21.5t-84.5 -57.5q6 -140 55 -200t122 -60q76 0 120 45.5
t44 123.5q0 79 -43 124.5t-121 45.5z" />
    <glyph glyph-name="seven.tnum" horiz-adv-x="518" 
d="M481 642l-282 -642h-72l284 642h-381v58h451v-58z" />
    <glyph glyph-name="eight.tnum" horiz-adv-x="589" 
d="M53 188q0 59 32 111.5t88 85.5q-91 54 -91 149q0 77 58.5 127.5t154.5 50.5q97 0 154.5 -51t57.5 -128q0 -109 -106 -174q135 -66 135 -181q0 -86 -67.5 -138t-173.5 -52q-108 0 -175 53t-67 147zM249 351q-3 1 -7 2.5t-6 1.5q-55 -32 -85.5 -76.5t-30.5 -92.5
q0 -64 48.5 -102t126.5 -38q77 0 125.5 35.5t48.5 94.5q0 61 -51.5 98t-168.5 77zM296 402q28 -10 42 -16q102 66 102 143q0 55 -39 89.5t-106 34.5q-65 0 -105.5 -33.5t-40.5 -85.5q0 -42 34.5 -73.5t112.5 -58.5z" />
    <glyph glyph-name="nine.tnum" horiz-adv-x="570" 
d="M261 -12q-113 0 -189 74l43 41q67 -55 149 -55q74 0 126.5 66t59.5 209q-82 -70 -185 -70q-101 0 -161 64.5t-60 167.5q0 101 64.5 164t164.5 63q114 0 179 -84t65 -260q0 -193 -68.5 -286.5t-187.5 -93.5zM274 313q45 0 92.5 21.5t83.5 56.5q-5 140 -54 200.5t-122 60.5
q-76 0 -120 -45.5t-44 -123.5q0 -79 43 -124.5t121 -45.5z" />
    <glyph glyph-name="parenleft.case" horiz-adv-x="345" 
d="M113 350q0 249 147 440l45 -22q-129 -188 -129 -418t129 -418l-45 -22q-147 191 -147 440z" />
    <glyph glyph-name="parenright.case" horiz-adv-x="345" 
d="M232 350q0 -249 -147 -440l-45 22q129 188 129 418t-129 418l45 22q147 -191 147 -440z" />
    <glyph glyph-name="hyphen.case" horiz-adv-x="406" 
d="M343 319h-280v62h280v-62z" />
    <glyph glyph-name="at.case" horiz-adv-x="957" 
d="M730 132q-85 0 -112 65q-67 -74 -156 -74q-94 0 -142.5 60t-48.5 163t48.5 163t142.5 60q83 0 148 -68v56h59v-298q0 -36 17.5 -56.5t47.5 -20.5q96 0 96 191q0 158 -99 263t-254 105q-154 0 -252 -111t-98 -280q0 -168 99 -280.5t256 -112.5q126 0 231 79l24 -41
q-110 -84 -255 -84q-185 0 -295.5 126.5t-110.5 312.5t109 311.5t292 125.5q121 0 214.5 -57t141.5 -150.5t48 -206.5q0 -50 -7.5 -91t-24 -76t-47 -54.5t-72.5 -19.5zM610 442q-64 75 -141 75q-139 0 -139 -171t139 -171q81 0 141 74v193z" />
    <glyph glyph-name="bracketleft.case" horiz-adv-x="398" 
d="M123 -90v880h251v-52h-188v-776h188v-52h-251z" />
    <glyph glyph-name="bracketright.case" horiz-adv-x="398" 
d="M275 790v-880h-251v52h188v776h-188v52h251z" />
    <glyph glyph-name="braceleft.case" horiz-adv-x="374" 
d="M173 22v201q0 45 -28 72.5t-70 27.5v54q42 0 70 27.5t28 72.5v201q0 112 113 112h68v-52h-68q-50 0 -50 -54v-215q0 -96 -89 -119q89 -23 89 -119v-215q0 -54 50 -54h68v-52h-68q-113 0 -113 112z" />
    <glyph glyph-name="braceright.case" horiz-adv-x="374" 
d="M201 223v-201q0 -112 -113 -112h-68v52h68q50 0 50 54v215q0 96 89 119q-89 23 -89 119v215q0 54 -50 54h-68v52h68q113 0 113 -112v-201q0 -45 28 -72.5t70 -27.5v-54q-42 0 -70 -27.5t-28 -72.5z" />
    <glyph glyph-name="exclamdown.case" horiz-adv-x="264" 
d="M82 662q0 21 14.5 35.5t35.5 14.5t35.5 -14.5t14.5 -35.5t-14.5 -35.5t-35.5 -14.5t-35.5 14.5t-14.5 35.5zM98 218l14 313h40l14 -313v-218h-68v218z" />
    <glyph glyph-name="guillemotleft.case" horiz-adv-x="551" 
d="M50 338v24l217 160l31 -41l-180 -131l180 -131l-31 -41zM252 338v24l218 160l31 -41l-180 -131l180 -131l-31 -41z" />
    <glyph glyph-name="periodcentered.case" horiz-adv-x="294" 
d="M97 337q0 21 14.5 35.5t35.5 14.5t35.5 -14.5t14.5 -35.5t-14.5 -35.5t-35.5 -14.5t-35.5 14.5t-14.5 35.5z" />
    <glyph glyph-name="guillemotright.case" horiz-adv-x="551" 
d="M501 362v-24l-217 -160l-32 41l180 131l-180 131l32 41zM298 362v-24l-217 -160l-31 41l180 131l-180 131l31 41z" />
    <glyph glyph-name="questiondown.case" horiz-adv-x="519" 
d="M269 46q90 0 159 80l44 -36q-86 -102 -208 -102q-91 0 -142.5 45t-51.5 123q0 112 120 192q45 30 61 61t16 82v40h64v-43q0 -63 -21 -105.5t-73 -76.5q-58 -38 -79.5 -72t-21.5 -79q0 -50 36 -79.5t97 -29.5zM348 662q0 -21 -14.5 -35.5t-35.5 -14.5t-35.5 14.5
t-14.5 35.5t14.5 35.5t35.5 14.5t35.5 -14.5t14.5 -35.5z" />
    <glyph glyph-name="endash.case" horiz-adv-x="500" 
d="M500 321h-500v57h500v-57z" />
    <glyph glyph-name="emdash.case" horiz-adv-x="1000" 
d="M1000 321h-1000v57h1000v-57z" />
    <glyph glyph-name="bullet.case" horiz-adv-x="430" 
d="M215 230q-50 0 -85 35t-35 84q0 50 35 85t85 35t85 -35t35 -85q0 -49 -35 -84t-85 -35z" />
    <glyph glyph-name="guilsinglleft.case" horiz-adv-x="348" 
d="M50 338v24l217 160l31 -41l-180 -131l180 -131l-31 -41z" />
    <glyph glyph-name="guilsinglright.case" horiz-adv-x="348" 
d="M298 362v-24l-217 -160l-31 41l180 131l-180 131l31 41z" />
    <glyph glyph-name="zero.numerator" 
d="M90 469q0 -88 28.5 -137.5t82.5 -49.5t82.5 49.5t28.5 137.5t-28.5 137.5t-82.5 49.5t-82.5 -49.5t-28.5 -137.5zM34 469q0 108 43.5 173.5t123.5 65.5t123.5 -65.5t43.5 -173.5t-43.5 -173.5t-123.5 -65.5t-123.5 65.5t-43.5 173.5z" />
    <glyph glyph-name="one.numerator" 
d="M194 631l-79 -59l-35 40l120 89h49v-464h-55v394z" />
    <glyph glyph-name="two.numerator" 
d="M191 658q-54 0 -99 -47l-39 33q61 64 141 64q63 0 99.5 -35t36.5 -95q0 -76 -70 -158q-68 -80 -131 -133h205v-50h-283v47q90 78 163 163q60 71 60 131q0 38 -21.5 59t-61.5 21z" />
    <glyph glyph-name="three.numerator" 
d="M194 658q-60 0 -99 -47l-39 32q57 65 138 65q61 0 98 -33t37 -89q0 -39 -25.5 -69t-63.5 -38q44 -10 72 -41t28 -76q0 -58 -40 -95.5t-111 -37.5q-95 0 -149 73l41 33q41 -56 108 -56q44 0 69.5 24.5t25.5 58.5q0 91 -127 91h-38v49h38q55 0 85.5 22t30.5 59
q0 34 -20 54.5t-59 20.5z" />
    <glyph glyph-name="four.numerator" 
d="M247 339h-224v46l227 315h53v-311h56v-50h-56v-102h-56v102zM247 610l-158 -221h158v221z" />
    <glyph glyph-name="five.numerator" 
d="M192 279q43 0 71 27.5t28 70.5q0 47 -30 73.5t-80 26.5q-58 0 -100 -17l-10 7v233h251v-50h-197v-131q25 8 62 8q70 0 115 -41.5t45 -111.5q0 -64 -43.5 -104.5t-113.5 -40.5q-91 0 -148 61l38 35q46 -46 112 -46z" />
    <glyph glyph-name="six.numerator" 
d="M212 658q-48 0 -76.5 -40t-31.5 -121q48 41 107 41q69 0 110 -43.5t41 -112.5q0 -68 -43 -110.5t-110 -42.5q-74 0 -119.5 56.5t-45.5 168.5q0 127 46 190.5t124 63.5q79 0 126 -62l-40 -31q-36 43 -88 43zM206 488q-60 0 -104 -47q3 -83 32 -122.5t74 -39.5q46 0 72 29
t26 75q0 47 -26 76t-74 29z" />
    <glyph glyph-name="seven.numerator" 
d="M347 650l-177 -413h-61l178 413h-232v50h292v-50z" />
    <glyph glyph-name="eight.numerator" 
d="M58 589q0 54 39 86.5t102 32.5q64 0 103 -34t39 -90q0 -32 -17 -62.5t-45 -50.5q80 -43 80 -112q0 -59 -43.5 -94.5t-113.5 -35.5t-114 37.5t-44 100.5q0 81 69 128q-55 37 -55 94zM100 366q0 -39 29 -62.5t73 -23.5t72.5 21t28.5 57q0 14 -5.5 26t-13 20t-24 17.5
t-27 14.5t-35 16t-37.5 17q-61 -36 -61 -103zM285 585q0 33 -23.5 52.5t-64.5 19.5q-38 0 -60.5 -19t-22.5 -47q0 -16 6 -28t24.5 -24t33.5 -19.5t52 -24.5q55 42 55 90z" />
    <glyph glyph-name="nine.numerator" 
d="M193 279q100 0 107 162q-47 -42 -108 -42q-68 0 -109.5 44t-41.5 112q0 67 43 110t110 43q75 0 120 -56t45 -169q0 -127 -43.5 -190.5t-124.5 -63.5q-72 0 -124 52l38 35q37 -37 88 -37zM198 449q59 0 103 47q-2 83 -31.5 122.5t-73.5 39.5q-46 0 -72.5 -29t-26.5 -75
q0 -48 26.5 -76.5t74.5 -28.5z" />
    <glyph glyph-name="zero.denominator" 
d="M90 232q0 -88 28.5 -137.5t82.5 -49.5t82.5 49.5t28.5 137.5t-28.5 137.5t-82.5 49.5t-82.5 -49.5t-28.5 -137.5zM34 232q0 108 43.5 173.5t123.5 65.5t123.5 -65.5t43.5 -173.5t-43.5 -173.5t-123.5 -65.5t-123.5 65.5t-43.5 173.5z" />
    <glyph glyph-name="one.denominator" 
d="M194 394l-79 -59l-35 40l120 89h49v-464h-55v394z" />
    <glyph glyph-name="two.denominator" 
d="M191 421q-54 0 -99 -47l-39 33q61 64 141 64q63 0 99.5 -35t36.5 -95q0 -76 -70 -158q-68 -80 -131 -133h205v-50h-283v47q90 78 163 163q60 71 60 131q0 38 -21.5 59t-61.5 21z" />
    <glyph glyph-name="three.denominator" 
d="M194 421q-60 0 -99 -47l-39 32q57 65 138 65q61 0 98 -33t37 -89q0 -39 -25.5 -69t-63.5 -38q44 -10 72 -41t28 -76q0 -58 -40 -95.5t-111 -37.5q-95 0 -149 73l41 33q41 -56 108 -56q44 0 69.5 24.5t25.5 58.5q0 91 -127 91h-38v49h38q55 0 85.5 22t30.5 59
q0 34 -20 54.5t-59 20.5z" />
    <glyph glyph-name="four.denominator" 
d="M247 102h-224v46l227 315h53v-311h56v-50h-56v-102h-56v102zM247 373l-158 -221h158v221z" />
    <glyph glyph-name="five.denominator" 
d="M192 42q43 0 71 27.5t28 70.5q0 47 -30 73.5t-80 26.5q-58 0 -100 -17l-10 7v233h251v-50h-197v-131q25 8 62 8q70 0 115 -41.5t45 -111.5q0 -64 -43.5 -104.5t-113.5 -40.5q-91 0 -148 61l38 35q46 -46 112 -46z" />
    <glyph glyph-name="six.denominator" 
d="M212 421q-48 0 -76.5 -40t-31.5 -121q48 41 107 41q69 0 110 -43.5t41 -112.5q0 -67 -43 -110t-110 -43q-74 0 -119.5 56.5t-45.5 168.5q0 127 46 190.5t124 63.5q79 0 126 -62l-40 -31q-36 43 -88 43zM206 251q-60 0 -104 -47q3 -83 32 -122.5t74 -39.5q46 0 72 29
t26 75q0 47 -26 76t-74 29z" />
    <glyph glyph-name="seven.denominator" 
d="M347 413l-177 -413h-61l178 413h-232v50h292v-50z" />
    <glyph glyph-name="eight.denominator" 
d="M58 352q0 54 39 86.5t102 32.5q64 0 103 -34t39 -90q0 -32 -17 -62.5t-45 -50.5q80 -43 80 -112q0 -59 -43.5 -94.5t-113.5 -35.5t-114 37.5t-44 100.5q0 81 69 128q-55 37 -55 94zM100 129q0 -39 29 -62.5t73 -23.5t72.5 21t28.5 57q0 14 -5.5 26t-13 20t-24 17.5
t-27 14.5t-35 16t-37.5 17q-61 -36 -61 -103zM285 348q0 33 -23.5 52.5t-64.5 19.5q-38 0 -60.5 -19t-22.5 -47q0 -16 6 -28t24.5 -24t33.5 -19.5t52 -24.5q55 42 55 90z" />
    <glyph glyph-name="nine.denominator" 
d="M193 42q100 0 107 162q-47 -42 -108 -42q-68 0 -109.5 44t-41.5 112q0 67 43 110t110 43q75 0 120 -56t45 -169q0 -127 -43.5 -190.5t-124.5 -63.5q-72 0 -124 52l38 35q37 -37 88 -37zM198 212q59 0 103 47q-2 83 -31.5 122.5t-73.5 39.5q-46 0 -72.5 -29t-26.5 -75
q0 -48 26.5 -76.5t74.5 -28.5z" />
    </font>
</defs>
</svg>
